{
DisplayStrings = (
"processes\012messagionog\012ngnogoo",
o,
"Q/Q.alt R\012/R.alt oshashanah\012S/Germandbls os\U00DF\012HH/Placeholder HH\012OO/Placeholder OO\012nn/Placeholder nn\012oo/Placeholder oo",
an,
/a.alt,
"a\U00E6e",
Q,
/Q.alt,
/R.alt,
"\U00E6",
g,
Oo,
"ononovonpewvynx/x.alt oyvno",
m,
nvwa,
vwy,
w,
"HOHOHH\012OOO",
"HOHOHHHH\012OOO",
"HOHOHOoHhHHHHDEFGIJ\012OOOOO\012MOONPOP",
JoUo,
a,
/hookabovecomb,
/Acircumflexhookabove,
/circumflexcomb,
"\U00F8",
/acutecomb,
"\U00C3",
/dieresiscomb,
"\U00C4/dieresiscomb",
"OO\U00D8\U00F8",
/hbar,
"vn/Zhe-cy XBEvwn",
/Hbar,
"69/notdef.001 aduYW0",
"A\U00C6E",
"HZHSV /Hbar PF ",
"?",
"\U00BFH?",
MZ/z.alt,
M,
"HUEBCO\012LDETTER RPCGROUPSOADINGSO",
"c\U00A2S$C/euro \U00A3Y\U00A5&",
$,
Y,
"\U00F0",
"\U00A5",
/euro,
"\U00A3",
"\U00AB",
"/z.alt \U00A5",
K/k.alt,
k,
A,
/dieresiscomb/dotaccentcomb/gravecomb/acutecomb/hungarumlautcomb/circumflexcomb/caroncomb/brevecomb/ringcomb/tildecomb/macroncomb/hookabovecomb/commaturnedabovecomb,
/gravecomb/acutecomb/hungarumlautcomb,
O,
/gravecomb,
DSC,
/a.alt2
);
classes = (
{
automatic = 1;
code = "A A.alt Aacute Acircumflex Adieresis Agrave Aring Atilde AE B C Ccedilla D Eth E Eacute Ecircumflex Edieresis Egrave F G H Hbar I Iacute Icircumflex Idieresis Igrave J K L M N Ntilde O Oacute Ocircumflex Odieresis Ograve Oslash Otilde OE P Thorn Q Q.alt R R.alt S Germandbls T U Uacute Ucircumflex Udieresis Ugrave V W Wacute Wcircumflex Wdieresis Wgrave X Y Yacute Ycircumflex Ydieresis Ygrave Z Be-cy De-cy Zhe-cy Ef-cy";
name = Uppercase;
}
);
copyright = "Aoife Mooney";
date = "2015-06-25 01:21:12 +0000";
designer = "Aoife Mooney";
designerURL = www.aoifemooney.org;
familyName = "BioRhyme";
featurePrefixes = (
{
automatic = 1;
code = "languagesystem DFLT dflt;\012";
name = Languagesystems;
}
);
features = (
{
code = "sub R by R.alt;\012sub Q by Q.alt;\012\012\012";
name = ss01;
},
{
code = "#alternate exit strokes\012sub a by a.alt;\012sub d by d.alt;\012sub u by u.alt;\012";
name = ss02;

glyphs = (
{
glyphname = A;
lastChange = "2015-11-11 18:41:44 +0000";
layers = (
{
anchors = (
{
name = bottom;
position = "{429, 0}";
},
{
name = hook;
position = "{618, 585}";
},
{
name = ogonek;
position = "{810, 10}";
},
{
name = top;
position = "{520, 520}";
}
);
layerId = "B29C398E-974A-40D0-A0A0-00935056D4B4";
name = "Light Extended";
paths = (
{
closed = 1;
nodes = (
"114 13 LINE",
"519 502 LINE",
"516 502 LINE",
"748 13 LINE",
"775 13 LINE",
"536 510 LINE SMOOTH",
"500 510 LINE",
"87 13 LINE"
);
},
{
closed = 1;
nodes = (
"259 0 LINE",
"263 23 LINE",
"-59 23 LINE",
"-63 0 LINE"
);
},
{
closed = 1;
nodes = (
"671 199 LINE",
"659 222 LINE",
"274 222 LINE",
"252 199 LINE"
);
},
{
closed = 1;
nodes = (
"919 0 LINE",
"923 23 LINE",
"602 23 LINE",
"598 0 LINE"
);
},
{
closed = 1;
nodes = (
"694 497 LINE",
"698 520 LINE",
"341 520 LINE",
"337 497 LINE"
);
}
);
width = 982;
},
{
anchors = (
{
name = bottom;
position = "{254, 0}";
},
{
name = hook;
position = "{429, 580}";
},
{
name = ogonek;
position = "{484, 13}";
},
{
name = top;
position = "{341, 490}";
}
);
layerId = "543F9737-16F7-428D-9F96-2EBD9FC8D3B6";
name = Light;
paths = (
{
closed = 1;
nodes = (
"58 13 LINE",
"345 502 LINE",
"344 502 LINE",
"457 13 LINE",
"484 13 LINE",
"364 510 LINE SMOOTH",
"326 510 LINE",
"34 13 LINE"
);
},
{
closed = 1;
nodes = (
"155 0 LINE",
"159 23 LINE",
"-59 23 LINE",
"-63 0 LINE"
);
},
{
closed = 1;
nodes = (
"433 198 LINE",
"421 221 LINE",
"168 221 LINE",
"147 198 LINE"
);
},
{
closed = 1;
nodes = (
"575 0 LINE",
"580 23 LINE",
"363 23 LINE",
"359 0 LINE"
);
},
{
closed = 1;
nodes = (
"469 497 LINE",
"473 520 LINE",
"221 520 LINE",
"217 497 LINE"
);
}
);
width = 638;
},
{
anchors = (
{
name = bottom;
position = "{251, 0}";
},
{
name = hook;
position = "{429, 638}";
},
{
name = ogonek;
position = "{553, 9}";
},
{
name = top;
position = "{337, 502}";
}
);
layerId = "EB38A4D2-CD30-49BA-8E45-1F04A566FFE8";
name = Bold;
paths = (
{
closed = 1;
nodes = (
"90 13 LINE",
"355 463 LINE",
"307 463 LINE",
"411 13 LINE",
"541 13 LINE",
"411 461 LINE SMOOTH",
"246 461 LINE",
"-40 13 LINE"
);
},
{
closed = 1;
nodes = (
"190 0 LINE",
"207 96 LINE",
"-46 96 LINE",
"-63 0 LINE"
);
},
{
closed = 1;
nodes = (
"401 172 LINE",
"400 259 LINE",
"185 259 LINE",
"153 172 LINE"
);
},
{
closed = 1;
nodes = (
"561 0 LINE",
"578 96 LINE",
"326 96 LINE",
"309 0 LINE"
);
},
{
closed = 1;
nodes = (
"474 424 LINE",
"491 520 LINE",
"187 520 LINE",
"170 424 LINE"
);
}
);
width = 624;
}
);
leftKerningGroup = A;
rightKerningGroup = A;
unicode = 0041;
},
{
glyphname = A.alt;
lastChange = "2015-11-11 18:41:44 +0000";
layers = (
{
anchors = (
{
name = bottom;
position = "{426, 0}";
},
{
name = ogonek;
position = "{805, 10}";
},
{
name = top;
position = "{513, 490}";
}
);
background = {
paths = (
{
closed = 1;
nodes = (
"133 0 LINE",
"376 347 LINE",
"622 0 LINE",
"631 18 LINE",
"376 376 LINE",
"124 18 LINE"
);
},
{
closed = 1;
nodes = (
"522 151 LINE",
"228 151 LINE",
"215 133 LINE",
"535 133 LINE"
);
},
{
closed = 1;
nodes = (
"249 -1 LINE",
"249 18 LINE",
"0 18 LINE",
"0 -1 LINE"
);
},
{
closed = 1;
nodes = (
"506 18 LINE",
"506 -1 LINE",
"752 -1 LINE",
"753 18 LINE"
);
}
);
};
layerId = "B29C398E-974A-40D0-A0A0-00935056D4B4";
name = "Light Extended";
paths = (
{
closed = 1;
nodes = (
"517 530 LINE",
"87 13 LINE",
"114 13 LINE",
"520 498 LINE",
"508 498 LINE",
"742 13 LINE",
"770 13 LINE",
"523 530 LINE"
);
},
{
closed = 1;
nodes = (
"914 0 LINE",
"918 23 LINE",
"598 23 LINE",
"594 0 LINE"
);
},
{
closed = 1;
nodes = (
"257 0 LINE",
"261 23 LINE",
"-59 23 LINE",
"-63 0 LINE"
);
},
{
closed = 1;
nodes = (
"658 206 LINE",
"267 206 LINE",
"245 183 LINE",
"669 183 LINE"
);
}
);
width = 977;
},
{
anchors = (
{
name = bottom;
position = "{257, 0}";
},
{
name = ogonek;
position = "{551, 10}";
},
{
name = top;
position = "{351, 530}";
}
);
layerId = "543F9737-16F7-428D-9F96-2EBD9FC8D3B6";
name = Light;
paths = (
{
closed = 1;
nodes = (
"347 530 LINE",
"34 13 LINE",
"58 13 LINE",
"348 496 LINE",
"339 496 LINE",
"459 13 LINE",
"485 13 LINE",
"353 530 LINE"
);
},
{
closed = 1;
nodes = (
"576 0 LINE",
"580 23 LINE",
"346 23 LINE",
"342 0 LINE"
);
},
{
closed = 1;
nodes = (
"172 0 LINE",
"176 23 LINE",
"-59 23 LINE",
"-63 0 LINE"
);
},
{
closed = 1;
nodes = (
"416 205 LINE",
"167 205 LINE",
"147 182 LINE",
"428 182 LINE"
);
}
);
width = 639;
},
{
anchors = (
{
name = bottom;
position = "{261, 0}";
},
{
name = ogonek;
position = "{554, 10}";
},
{
name = top;
position = "{347, 487}";
}
);
layerId = "EB38A4D2-CD30-49BA-8E45-1F04A566FFE8";
name = Bold;
paths = (
{
closed = 1;
nodes = (
"323 530 LINE",
"-29 13 LINE",
"96 13 LINE",
"364 436 LINE",
"308 436 LINE",
"427 13 LINE",
"554 13 LINE",
"385 530 LINE"
);
},
{
closed = 1;
nodes = (
"584 0 LINE",
"601 96 LINE",
"343 96 LINE",
"327 0 LINE"
);
},
{
closed = 1;
nodes = (
"195 0 LINE",
"211 96 LINE",
"-46 96 LINE",
"-63 0 LINE"
);
},
{
closed = 1;
nodes = (
"407 248 LINE",
"196 248 LINE",
"165 161 LINE",
"408 161 LINE"
);
}
);
width = 647;
}
);
leftKerningGroup = A.alt;
rightKerningGroup = A.alt;
},
{
color = 0;
glyphname = AE;
lastChange = "2015-11-11 18:41:44 +0000";
layers = (
{
anchors = (
{
name = bottom;
position = "{680, 0}";
},
{
name = ogonek;
position = "{1162, 0}";
},
{
name = top;
position = "{773, 520}";
}
);
layerId = "B29C398E-974A-40D0-A0A0-00935056D4B4";
name = "Light Extended";
paths = (
{
closed = 1;
nodes = (
"115 13 LINE",
"617 502 LINE",
"608 502 LINE",
"750 13 LINE",
"776 13 LINE",
"631 510 LINE SMOOTH",
"594 510 LINE",
"84 13 LINE"
);
},
{
closed = 1;
nodes = (
"269 0 LINE",
"273 23 LINE",
"-59 23 LINE",
"-63 0 LINE"
);
},
{
closed = 1;
nodes = (
"702 194 LINE",
"706 217 LINE",
"316 217 LINE",
"290 194 LINE"
);
},
{
closed = 1;
nodes = (
"1162 0 LINE",
"1194 183 LINE",
"1171 183 LINE",
"1143 23 LINE",
"580 23 LINE",
"576 0 LINE"
);
},
{
closed = 1;
nodes = (
"937 158 LINE",
"979 397 LINE",
"955 397 LINE",
"936 289 LINE",
"688 289 LINE",
"684 266 LINE",
"932 266 LINE",
"913 158 LINE"
);
},
{
closed = 1;
nodes = (
"1221 337 LINE",
"1253 520 LINE",
"421 520 LINE",
"417 497 LINE",
"1225 497 LINE",
"1197 337 LINE"
);
}
);
width = 1324;
},
{
anchors = (
{
name = bottom;
position = "{423, 0}";
},
{
name = ogonek;
position = "{773, 0}";
},
{
name = top;
position = "{516, 520}";
}
);
layerId = "543F9737-16F7-428D-9F96-2EBD9FC8D3B6";
name = Light;
paths = (
{
closed = 1;
nodes = (
"58 13 LINE",
"439 501 LINE",
"438 501 LINE",
"476 13 LINE",
"503 13 LINE",
"459 510 LINE SMOOTH",
"419 510 LINE",
"32 13 LINE"
);
},
{
closed = 1;
nodes = (
"155 0 LINE",
"159 23 LINE",
"-59 23 LINE",
"-63 0 LINE"
);
},
{
closed = 1;
nodes = (
"471 198 LINE",
"459 221 LINE",
"206 221 LINE",
"185 198 LINE"
);
},
{
closed = 1;
nodes = (
"773 0 LINE",
"797 136 LINE",
"774 136 LINE",
"754 23 LINE",
"382 23 LINE",
"378 0 LINE"
);
},
{
closed = 1;
nodes = (
"656 178 LINE",
"690 367 LINE",
"666 367 LINE",
"651 284 LINE",
"470 284 LINE",
"466 261 LINE",
"647 261 LINE",
"632 178 LINE"
);
},
{
closed = 1;
nodes = (
"841 384 LINE",
"865 520 LINE",
"316 520 LINE",
"312 497 LINE",
"837 497 LINE",
"817 384 LINE"
);
}
);
width = 893;
},
{
anchors = (
{
name = bottom;
position = "{360, 0}";
},
{
name = ogonek;
position = "{730, 0}";
},
{
name = top;
position = "{452, 520}";
}
);
layerId = "EB38A4D2-CD30-49BA-8E45-1F04A566FFE8";
name = Bold;
paths = (
{
closed = 1;
nodes = (
"50 13 LINE",
"384 463 LINE",
"331 463 LINE",
"360 13 LINE",
"475 13 LINE",
"440 461 LINE SMOOTH",
"268 461 LINE",
"-81 13 LINE"
);
},
{
closed = 1;
nodes = (
"149 0 LINE",
"166 96 LINE",
"-64 96 LINE",
"-81 0 LINE"
);
},
{
closed = 1;
nodes = (
"420 172 LINE",
"419 259 LINE",
"159 259 LINE",
"127 172 LINE"
);
},
{
closed = 1;
nodes = (
"730 0 LINE",
"764 193 LINE",
"662 193 LINE",
"645 96 LINE",
"268 96 LINE",
"252 0 LINE"
);
},
{
closed = 1;
nodes = (
"596 151 LINE",
"633 357 LINE",
"542 357 LINE",
"532 302 LINE",
"388 302 LINE",
"371 206 LINE",
"515 206 LINE",
"505 151 LINE"
);
},
{
closed = 1;
nodes = (
"789 331 LINE",
"822 520 LINE",
"209 520 LINE",
"192 424 LINE",
"702 424 LINE",
"686 331 LINE"
);
}
);
width = 845;
}
);
leftKerningGroup = A;
rightKerningGroup = E;
rightMetricsKey = "=E";
unicode = 00C6;
},
{
glyphname = B;
lastChange = "2015-11-11 18:41:44 +0000";
layers = (
{
anchors = (
{
name = bottom;
position = "{376, 0}";
},
{
name = top;
position = "{468, 520}";
}
);
background = {
paths = (
{
closed = 1;
nodes = (
"263 14 LINE",
"263 478 LINE",
"238 478 LINE",
"238 14 LINE"
);
},
{
closed = 1;
nodes = (
"664 247 LINE",
"776 247 OFFCURVE",
"828 302 OFFCURVE",
"828 365 CURVE SMOOTH",
"828 443 OFFCURVE",
"769 490 OFFCURVE",
"666 490 CURVE SMOOTH",
"56 490 LINE",
"56 467 LINE",
"666 467 LINE SMOOTH",
"755 467 OFFCURVE",
"803 427 OFFCURVE",
"803 365 CURVE SMOOTH",
"803 305 OFFCURVE",
"746 263 OFFCURVE",
"656 263 CURVE SMOOTH",
"254 263 LINE",
"254 240 LINE",
"656 239 LINE SMOOTH",
"756 239 OFFCURVE",
"837 202 OFFCURVE",
"837 128 CURVE SMOOTH",
"837 57 OFFCURVE",
"778 23 OFFCURVE",
"675 23 CURVE SMOOTH",
"56 23 LINE",
"56 0 LINE",
"673 0 LINE SMOOTH",
"805 0 OFFCURVE",
"862 48 OFFCURVE",
"862 128 CURVE SMOOTH",
"862 205 OFFCURVE",
"794 255 OFFCURVE",
"664 255 CURVE"
);
}
);
};
layerId = "B29C398E-974A-40D0-A0A0-00935056D4B4";
name = "Light Extended";
paths = (
{
closed = 1;
nodes = (
"577 0 LINE SMOOTH",
"689 0 OFFCURVE",
"764 44 OFFCURVE",
"780 134 CURVE SMOOTH",
"797 230 OFFCURVE",
"726 270 OFFCURVE",
"615 270 CURVE",
"615 262 LINE",
"720 262 OFFCURVE",
"779 314 OFFCURVE",
"792 389 CURVE SMOOTH",
"806 468 OFFCURVE",
"757 520 OFFCURVE",
"661 520 CURVE SMOOTH",
"82 520 LINE",
"78 497 LINE",
"656 497 LINE SMOOTH",
"731 497 OFFCURVE",
"782 466 OFFCURVE",
"769 393 CURVE SMOOTH",
"756 317 OFFCURVE",
"693 278 OFFCURVE",
"613 278 CURVE SMOOTH",
"227 278 LINE",
"223 255 LINE",
"606 254 LINE SMOOTH",
"700 254 OFFCURVE",
"772 223 OFFCURVE",
"757 139 CURVE SMOOTH",
"742 56 OFFCURVE",
"671 23 OFFCURVE",
"574 23 CURVE SMOOTH",
"-6 23 LINE",
"-10 0 LINE"
);
},
{
closed = 1;
nodes = (
"189 14 LINE",
"276 508 LINE",
"253 508 LINE",
"166 14 LINE"
);
}
);
width = 909;
},
{
anchors = (
{
name = bottom;
position = "{205, 0}";
},
{
name = top;
position = "{291, 490}";
}
);
background = {
paths = (
{
closed = 1;
nodes = (
"548 242 LINE",
"548 265 LINE",
"152 265 LINE",
"152 242 LINE"
);
},
{
closed = 1;
nodes = (
"261 0 LINE",
"261 23 LINE",
"20 23 LINE",
"20 0 LINE"
);
},
{
closed = 1;
nodes = (
"157 13 LINE",
"157 509 LINE",
"133 509 LINE",
"133 13 LINE"
);
},
{
closed = 1;
nodes = (
"261 497 LINE",
"261 520 LINE",
"20 520 LINE",
"20 497 LINE"
);
},
{
closed = 1;
nodes = (
"679 0 LINE",
"679 23 LINE",
"438 23 LINE",
"438 0 LINE"
);
},
{
closed = 1;
nodes = (
"567 13 LINE",
"567 509 LINE",
"542 509 LINE",
"542 13 LINE"
);
},
{
closed = 1;
nodes = (
"679 497 LINE",
"679 520 LINE",
"438 520 LINE",
"438 497 LINE"
);
}
);
};
layerId = "543F9737-16F7-428D-9F96-2EBD9FC8D3B6";
name = Light;
paths = (
{
closed = 1;
nodes = (
"250 0 LINE SMOOTH",
"361 0 OFFCURVE",
"436 44 OFFCURVE",
"452 134 CURVE SMOOTH",
"469 230 OFFCURVE",
"398 270 OFFCURVE",
"287 270 CURVE",
"287 262 LINE",
"393 262 OFFCURVE",
"451 314 OFFCURVE",
"464 389 CURVE SMOOTH",
"478 468 OFFCURVE",
"430 520 OFFCURVE",
"334 520 CURVE SMOOTH",
"57 520 LINE",
"53 497 LINE",
"329 497 LINE SMOOTH",
"404 497 OFFCURVE",
"454 466 OFFCURVE",
"441 393 CURVE SMOOTH",
"428 317 OFFCURVE",
"365 278 OFFCURVE",
"285 278 CURVE SMOOTH",
"137 278 LINE",
"133 255 LINE",
"278 254 LINE SMOOTH",
"372 253 OFFCURVE",
"444 223 OFFCURVE",
"429 139 CURVE SMOOTH",
"414 56 OFFCURVE",
"343 23 OFFCURVE",
"246 23 CURVE SMOOTH",
"-30 23 LINE",
"-34 0 LINE"
);
},
{
closed = 1;
nodes = (
"99 14 LINE",
"186 508 LINE",
"162 508 LINE",
"75 14 LINE"
);
}
);
width = 543;
},
{
anchors = (
{
name = bottom;
position = "{195, 0}";
},
{
name = top;
position = "{288, 527}";
}
);
layerId = "EB38A4D2-CD30-49BA-8E45-1F04A566FFE8";
name = Bold;
paths = (
{
closed = 1;
nodes = (
"279 0 LINE SMOOTH",
"408 0 OFFCURVE",
"481 51 OFFCURVE",
"496 139 CURVE SMOOTH",
"519 265 OFFCURVE",
"398 287 OFFCURVE",
"312 287 CURVE",
"311 240 LINE",
"374 240 OFFCURVE",
"481 273 OFFCURVE",
"498 371 CURVE SMOOTH",
"513 456 OFFCURVE",
"465 520 OFFCURVE",
"349 520 CURVE SMOOTH",
"52 520 LINE",
"36 424 LINE",
"332 424 LINE SMOOTH",
"360 424 OFFCURVE",
"390 415 OFFCURVE",
"382 371 CURVE SMOOTH",
"374 321 OFFCURVE",
"334 302 OFFCURVE",
"283 302 CURVE SMOOTH",
"172 302 LINE",
"156 215 LINE",
"317 215 LINE SMOOTH",
"371 215 OFFCURVE",
"391 201 OFFCURVE",
"385 165 CURVE SMOOTH",
"377 117 OFFCURVE",
"337 96 OFFCURVE",
"282 96 CURVE SMOOTH",
"-22 96 LINE",
"-39 0 LINE"
);
},
{
closed = 1;
nodes = (
"168 53 LINE",
"240 464 LINE",
"123 464 LINE",
"51 53 LINE"
);
}
);
width = 546;
}
);
leftKerningGroup = H;
leftMetricsKey = "=H";
rightKerningGroup = B;
unicode = 0042;
},
{
glyphname = C;
lastChange = "2015-11-11 18:41:44 +0000";
layers = (
{
anchors = (
{
name = bottom;
position = "{343, -10}";
},
{
name = top;
position = "{438, 530}";
}
);
background = {
paths = (
{
closed = 1;
nodes = (
"797 173 LINE",
"759 82 OFFCURVE",
"640 -20 OFFCURVE",
"426 -20 CURVE",
"234 -20 OFFCURVE",
"70 79 OFFCURVE",
"70 249 CURVE",
"70 419 OFFCURVE",
"241 517 OFFCURVE",
"434 517 CURVE",
"605 517 OFFCURVE",
"719 445 OFFCURVE",
"789 348 CURVE",
"769 348 LINE",
"769 491 LINE",
"792 491 LINE",
"792 311 LINE",
"690 447 OFFCURVE",
"561 494 OFFCURVE",
"434 494 CURVE",
"249 494 OFFCURVE",
"95 401 OFFCURVE",
"95 249 CURVE",
"95 97 OFFCURVE",
"244 3 OFFCURVE",
"426 3 CURVE",
"624 3 OFFCURVE",
"743 103 OFFCURVE",
"774 182 CURVE"
);
}
);
};
layerId = "B29C398E-974A-40D0-A0A0-00935056D4B4";
name = "Light Extended";
paths = (
{
closed = 1;
nodes = (
"544 -11 OFFCURVE",
"662 84 OFFCURVE",
"721 167 CURVE",
"703 182 LINE",
"653 108 OFFCURVE",
"531 12 OFFCURVE",
"342 12 CURVE",
"170 12 OFFCURVE",
"46 105 OFFCURVE",
"73 258 CURVE",
"100 413 OFFCURVE",
"264 507 OFFCURVE",
"441 507 CURVE SMOOTH",
"571 507 OFFCURVE",
"673 462 OFFCURVE",
"735 331 CURVE",
"747 331 LINE",
"780 520 LINE",
"758 520 LINE",
"730 361 LINE",
"741 360 LINE",
"693 460 OFFCURVE",
"595 530 OFFCURVE",
"441 530 CURVE SMOOTH",
"259 530 OFFCURVE",
"80 433 OFFCURVE",
"50 262 CURVE",
"19 89 OFFCURVE",
"158 -11 OFFCURVE",
"342 -11 CURVE"
);
}
);
width = 826;
},
{
associatedMasterId = "B29C398E-974A-40D0-A0A0-00935056D4B4";
background = {
paths = (
{
closed = 1;
nodes = (
"748 293 LINE",
"771 300 LINE",
"771 301 OFFCURVE",
"739 354 OFFCURVE",
"673 408 CURVE SMOOTH",
"608 462 OFFCURVE",
"508 516 OFFCURVE",
"376 516 CURVE SMOOTH",
"251 516 OFFCURVE",
"157 479 OFFCURVE",
"94 425 CURVE SMOOTH",
"31 370 OFFCURVE",
"0 298 OFFCURVE",
"0 227 CURVE SMOOTH",
"0 155 OFFCURVE",
"31 84 OFFCURVE",
"94 31 CURVE SMOOTH",
"156 -22 OFFCURVE",
"250 -57 OFFCURVE",
"375 -57 CURVE SMOOTH",
"534 -57 OFFCURVE",
"634 -2 OFFCURVE",
"694 53 CURVE SMOOTH",
"748 102 OFFCURVE",
"770 158 OFFCURVE",
"773 166 CURVE",
"748 174 LINE",
"746 166 OFFCURVE",
"727 119 OFFCURVE",
"675 71 CURVE SMOOTH",
"620 21 OFFCURVE",
"527 -31 OFFCURVE",
"375 -31 CURVE SMOOTH",
"255 -31 OFFCURVE",
"167 2 OFFCURVE",
"111 50 CURVE SMOOTH",
"53 99 OFFCURVE",
"26 162 OFFCURVE",
"26 227 CURVE SMOOTH",
"26 291 OFFCURVE",
"53 356 OFFCURVE",
"111 406 CURVE SMOOTH",
"168 456 OFFCURVE",
"255 490 OFFCURVE",
"376 490 CURVE SMOOTH",
"501 490 OFFCURVE",
"594 439 OFFCURVE",
"657 388 CURVE SMOOTH",
"708 346 OFFCURVE",
"739 309 OFFCURVE",
"773 247 CURVE",
"773 490 LINE",
"748 490 LINE"
);
}
);
};
layerId = "4CE72ED2-500C-4544-8864-BE0CB7E60B06";
name = Background;
paths = (
{
closed = 1;
nodes = (
"748 302 LINE",
"771 300 LINE",
"685 449 OFFCURVE",
"545 516 OFFCURVE",
"376 516 CURVE SMOOTH",
"251 516 OFFCURVE",
"157 479 OFFCURVE",
"94 425 CURVE SMOOTH",
"31 370 OFFCURVE",
"0 298 OFFCURVE",
"0 227 CURVE SMOOTH",
"0 155 OFFCURVE",
"31 84 OFFCURVE",
"94 31 CURVE SMOOTH",
"156 -22 OFFCURVE",
"250 -57 OFFCURVE",
"375 -57 CURVE SMOOTH",
"534 -57 OFFCURVE",
"634 -2 OFFCURVE",
"694 53 CURVE SMOOTH",
"748 102 OFFCURVE",
"770 158 OFFCURVE",
"773 166 CURVE",
"748 174 LINE",
"746 166 OFFCURVE",
"727 119 OFFCURVE",
"675 71 CURVE SMOOTH",
"620 21 OFFCURVE",
"527 -31 OFFCURVE",
"375 -31 CURVE SMOOTH",
"255 -31 OFFCURVE",
"167 2 OFFCURVE",
"111 50 CURVE SMOOTH",
"53 99 OFFCURVE",
"26 162 OFFCURVE",
"26 227 CURVE SMOOTH",
"26 291 OFFCURVE",
"53 356 OFFCURVE",
"111 406 CURVE SMOOTH",
"168 456 OFFCURVE",
"255 490 OFFCURVE",
"376 490 CURVE SMOOTH",
"541 490 OFFCURVE",
"687 419 OFFCURVE",
"773 247 CURVE",
"773 490 LINE",
"748 490 LINE"
);
}
);
width = 829;
},
{
anchors = (
{
name = bottom;
position = "{219, -10}";
},
{
name = top;
position = "{311, 510}";
}
);
background = {
paths = (
{
closed = 1;
nodes = (
"442 -10 OFFCURVE",
"557 89 OFFCURVE",
"557 257 CURVE",
"557 424 OFFCURVE",
"442 523 OFFCURVE",
"304 523 CURVE",
"165 523 OFFCURVE",
"51 424 OFFCURVE",
"51 257 CURVE",
"51 89 OFFCURVE",
"165 -10 OFFCURVE",
"304 -10 CURVE"
);
},
{
closed = 1;
nodes = (
"175 14 OFFCURVE",
"75 107 OFFCURVE",
"75 257 CURVE",
"75 406 OFFCURVE",
"175 499 OFFCURVE",
"304 499 CURVE",
"432 499 OFFCURVE",
"533 406 OFFCURVE",
"533 257 CURVE",
"533 107 OFFCURVE",
"432 14 OFFCURVE",
"304 14 CURVE"
);
}
);
};
layerId = "543F9737-16F7-428D-9F96-2EBD9FC8D3B6";
name = Light;
paths = (
{
closed = 1;
nodes = (
"330 -11 OFFCURVE",
"399 49 OFFCURVE",
"439 96 CURVE",
"425 112 LINE",
"386 65 OFFCURVE",
"317 12 OFFCURVE",
"223 12 CURVE SMOOTH",
"104 12 OFFCURVE",
"28 110 OFFCURVE",
"54 258 CURVE SMOOTH",
"80 408 OFFCURVE",
"197 507 OFFCURVE",
"314 507 CURVE SMOOTH",
"410 507 OFFCURVE",
"458 455 OFFCURVE",
"479 366 CURVE",
"491 366 LINE",
"519 520 LINE",
"497 520 LINE",
"475 399 LINE",
"485 393 LINE",
"475 462 OFFCURVE",
"421 530 OFFCURVE",
"315 530 CURVE SMOOTH",
"192 530 OFFCURVE",
"60 428 OFFCURVE",
"31 262 CURVE SMOOTH",
"1 94 OFFCURVE",
"92 -11 OFFCURVE",
"223 -11 CURVE SMOOTH"
);
}
);
width = 533;
},
{
anchors = (
{
name = bottom;
position = "{224, -10}";
},
{
name = top;
position = "{320, 534}";
}
);
background = {
paths = (
{
closed = 1;
nodes = (
"397 -10 OFFCURVE",
"496 33 OFFCURVE",
"554 123 CURVE",
"476 188 LINE",
"434 129 OFFCURVE",
"380 90 OFFCURVE",
"309 90 CURVE SMOOTH",
"215 90 OFFCURVE",
"153 157 OFFCURVE",
"153 258 CURVE SMOOTH",
"153 365 OFFCURVE",
"226 435 OFFCURVE",
"314 435 CURVE SMOOTH",
"385 435 OFFCURVE",
"443 386 OFFCURVE",
"469 331 CURVE",
"550 335 LINE",
"550 520 LINE",
"440 520 LINE",
"440 415 LINE",
"495 399 LINE",
"455 480 OFFCURVE",
"385 530 OFFCURVE",
"282 530 CURVE SMOOTH",
"155 530 OFFCURVE",
"25 423 OFFCURVE",
"25 258 CURVE SMOOTH",
"25 99 OFFCURVE",
"154 -10 OFFCURVE",
"309 -10 CURVE SMOOTH"
);
}
);
};
layerId = "EB38A4D2-CD30-49BA-8E45-1F04A566FFE8";
name = Bold;
paths = (
{
closed = 1;
nodes = (
"336 -10 OFFCURVE",
"422 39 OFFCURVE",
"486 120 CURVE",
"420 191 LINE",
"372 131 OFFCURVE",
"321 90 OFFCURVE",
"240 90 CURVE SMOOTH",
"161 90 OFFCURVE",
"111 160 OFFCURVE",
"127 252 CURVE SMOOTH",
"147 367 OFFCURVE",
"232 435 OFFCURVE",
"317 435 CURVE SMOOTH",
"391 435 OFFCURVE",
"428 390 OFFCURVE",
"443 335 CURVE",
"519 335 LINE",
"551 520 LINE",
"447 520 LINE",
"428 415 LINE",
"476 395 LINE",
"452 476 OFFCURVE",
"398 530 OFFCURVE",
"292 530 CURVE SMOOTH",
"164 530 OFFCURVE",
"36 424 OFFCURVE",
"8 266 CURVE SMOOTH",
"-19 112 OFFCURVE",
"79 -10 OFFCURVE",
"235 -10 CURVE SMOOTH"
);
}
);
width = 551;
}
);
leftKerningGroup = O;
leftMetricsKey = "=O";
rightKerningGroup = C;
unicode = 0043;
},
{
glyphname = D;
lastChange = "2015-11-11 18:41:44 +0000";
layers = (
{
anchors = (
{
name = bottom;
position = "{393, 0}";
},
{
name = center;
position = "{436, 245}";
},
{
name = top;
position = "{485, 520}";
}
);
layerId = "B29C398E-974A-40D0-A0A0-00935056D4B4";
name = "Light Extended";
paths = (
{
closed = 1;
nodes = (
"456 0 LINE",
"651 0 OFFCURVE",
"796 84 OFFCURVE",
"827 258 CURVE",
"858 434 OFFCURVE",
"740 520 OFFCURVE",
"546 520 CURVE",
"82 520 LINE",
"78 497 LINE",
"543 497 LINE",
"728 497 OFFCURVE",
"832 419 OFFCURVE",
"804 262 CURVE",
"776 103 OFFCURVE",
"642 23 OFFCURVE",
"458 23 CURVE",
"-6 23 LINE",
"-10 0 LINE"
);
},
{
closed = 1;
nodes = (
"189 13 LINE",
"276 507 LINE",
"253 507 LINE",
"165 13 LINE"
);
}
);
width = 911;
},
{
anchors = (
{
name = bottom;
position = "{206, 0}";
},
{
name = center;
position = "{249, 245}";
},
{
name = top;
position = "{292, 490}";
}
);
layerId = "543F9737-16F7-428D-9F96-2EBD9FC8D3B6";
name = Light;
paths = (
{
closed = 1;
nodes = (
"202 0 LINE",
"366 0 OFFCURVE",
"489 98 OFFCURVE",
"517 258 CURVE",
"546 420 OFFCURVE",
"456 520 OFFCURVE",
"292 520 CURVE",
"57 520 LINE",
"53 497 LINE",
"290 497 LINE",
"445 497 OFFCURVE",
"520 405 OFFCURVE",
"494 262 CURVE",
"469 117 OFFCURVE",
"359 23 OFFCURVE",
"204 23 CURVE",
"-30 23 LINE",
"-34 0 LINE"
);
},
{
closed = 1;
nodes = (
"99 13 LINE",
"186 507 LINE",
"162 507 LINE",
"75 13 LINE"
);
}
);
width = 582;
},
{
anchors = (
{
name = bottom;
position = "{222, 0}";
},
{
name = center;
position = "{268, 263}";
},
{
name = top;
position = "{315, 527}";
}
);
layerId = "EB38A4D2-CD30-49BA-8E45-1F04A566FFE8";
name = Bold;
paths = (
{
closed = 1;
nodes = (
"234 0 LINE",
"371 0 OFFCURVE",
"533 69 OFFCURVE",
"565 252 CURVE",
"598 443 OFFCURVE",
"457 520 OFFCURVE",
"320 520 CURVE",
"52 520 LINE",
"36 424 LINE",
"291 424 LINE",
"365 424 OFFCURVE",
"471 408 OFFCURVE",
"446 268 CURVE",
"420 120 OFFCURVE",
"302 98 OFFCURVE",
"228 98 CURVE",
"-22 98 LINE",
"-39 0 LINE"
);
},
{
closed = 1;
nodes = (
"168 56 LINE",
"240 464 LINE",
"123 464 LINE",
"51 56 LINE"
);
}
);
width = 607;
}
);
leftKerningGroup = H;
leftMetricsKey = "=H";
rightKerningGroup = O;
rightMetricsKey = "=O";
unicode = 0044;
},
{
glyphname = E;
lastChange = "2015-11-11 18:41:44 +0000";
layers = (
{
anchors = (
{
name = bottom;
position = "{372, 10}";
},
{
name = ogonek;
position = "{661, 10}";
},
{
name = top;
position = "{457, 490}";
}
);
background = {
paths = (
{
closed = 1;
nodes = (
"891 7 LINE",
"891 189 LINE",
"865 189 LINE",
"865 33 LINE",
"83 33 LINE",
"83 7 LINE"
);
},
{
closed = 1;
nodes = (
"291 25 LINE",
"291 479 LINE",
"265 479 LINE",
"265 25 LINE"
);
},
{
closed = 1;
nodes = (
"608 260 LINE",
"608 286 LINE",
"278 286 LINE",
"278 260 LINE"
);
},
{
closed = 1;
nodes = (
"621 144 LINE",
"621 390 LINE",
"595 390 LINE",
"595 144 LINE"
);
},
{
closed = 1;
nodes = (
"867 464 LINE",
"867 313 LINE",
"893 313 LINE",
"893 490 LINE",
"86 490 LINE",
"85 464 LINE"
);
}
);
};
guideLines = (
{
position = "{417, 307}";
}
);
layerId = "B29C398E-974A-40D0-A0A0-00935056D4B4";
name = "Light Extended";
paths = (
{
closed = 1;
nodes = (
"756 0 LINE",
"788 183 LINE",
"765 183 LINE",
"737 23 LINE",
"-6 23 LINE",
"-10 0 LINE"
);
},
{
closed = 1;
nodes = (
"189 13 LINE",
"276 507 LINE",
"253 507 LINE",
"165 13 LINE"
);
},
{
closed = 1;
nodes = (
"537 261 LINE",
"541 284 LINE",
"234 284 LINE",
"230 261 LINE"
);
},
{
closed = 1;
nodes = (
"530 153 LINE",
"572 392 LINE",
"549 392 LINE",
"506 153 LINE"
);
},
{
closed = 1;
nodes = (
"815 337 LINE",
"848 520 LINE",
"82 520 LINE",
"78 497 LINE",
"820 497 LINE",
"792 337 LINE"
);
}
);
width = 919;
},
{
anchors = (
{
name = bottom;
position = "{230, 10}";
},
{
name = ogonek;
position = "{419, 10}";
},
{
name = top;
position = "{315, 490}";
}
);
background = {
paths = (
{
closed = 1;
nodes = (
"796 0 LINE",
"796 184 LINE",
"779 184 LINE",
"779 23 LINE",
"204 23 LINE",
"204 0 LINE"
);
},
{
closed = 1;
nodes = (
"591 258 LINE",
"591 281 LINE",
"353 281 LINE",
"353 258 LINE"
);
},
{
closed = 1;
nodes = (
"601 145 LINE",
"601 382 LINE",
"583 382 LINE",
"583 145 LINE"
);
},
{
closed = 1;
nodes = (
"778 491 LINE",
"778 333 LINE",
"796 333 LINE",
"796 514 LINE",
"204 514 LINE",
"204 491 LINE"
);
},
{
closed = 1;
nodes = (
"356 13 LINE",
"356 501 LINE",
"338 501 LINE",
"338 13 LINE"
);
}
);
};
layerId = "543F9737-16F7-428D-9F96-2EBD9FC8D3B6";
name = Light;
paths = (
{
closed = 1;
nodes = (
"428 0 LINE",
"452 136 LINE",
"429 136 LINE",
"409 23 LINE",
"-30 23 LINE",
"-34 0 LINE"
);
},
{
closed = 1;
nodes = (
"99 13 LINE",
"186 507 LINE",
"162 507 LINE",
"75 13 LINE"
);
},
{
closed = 1;
nodes = (
"314 261 LINE",
"318 284 LINE",
"144 284 LINE",
"140 261 LINE"
);
},
{
closed = 1;
nodes = (
"311 178 LINE",
"345 367 LINE",
"321 367 LINE",
"288 178 LINE"
);
},
{
closed = 1;
nodes = (
"496 384 LINE",
"520 520 LINE",
"57 520 LINE",
"53 497 LINE",
"492 497 LINE",
"472 384 LINE"
);
}
);
width = 548;
},
{
anchors = (
{
name = bottom;
position = "{217, -2}";
},
{
name = ogonek;
position = "{482, -2}";
},
{
name = top;
position = "{310, 527}";
}
);
layerId = "EB38A4D2-CD30-49BA-8E45-1F04A566FFE8";
name = Bold;
paths = (
{
closed = 1;
nodes = (
"471 0 LINE",
"505 193 LINE",
"402 193 LINE",
"385 96 LINE",
"-22 96 LINE",
"-39 0 LINE"
);
},
{
closed = 1;
nodes = (
"166 53 LINE",
"237 458 LINE",
"121 458 LINE",
"50 53 LINE"
);
},
{
closed = 1;
nodes = (
"314 206 LINE",
"331 302 LINE",
"136 302 LINE",
"119 206 LINE"
);
},
{
closed = 1;
nodes = (
"343 151 LINE",
"379 357 LINE",
"288 357 LINE",
"252 151 LINE"
);
},
{
closed = 1;
nodes = (
"529 327 LINE",
"563 520 LINE",
"52 520 LINE",
"36 424 LINE",
"443 424 LINE",
"426 327 LINE"
);
}
);
width = 586;
}
);
leftKerningGroup = H;
leftMetricsKey = "=H";
rightKerningGroup = E;
unicode = 0045;
},
{
glyphname = F;
lastChange = "2015-11-11 18:41:44 +0000";
layers = (
{
anchors = (
{
name = bottom;
position = "{364, 0}";
},
{
name = top;
position = "{450, 490}";
}
);
layerId = "B29C398E-974A-40D0-A0A0-00935056D4B4";
name = "Light Extended";
paths = (
{
closed = 1;
nodes = (
"815 337 LINE",
"848 520 LINE",
"82 520 LINE",
"78 497 LINE",
"821 497 LINE",
"793 337 LINE"
);
},
{
closed = 1;
nodes = (
"369 0 LINE",
"373 23 LINE",
"-6 23 LINE",
"-10 0 LINE"
);
},
{
closed = 1;
nodes = (
"189 13 LINE",
"276 507 LINE",
"253 507 LINE",
"165 13 LINE"
);
},
{
closed = 1;
nodes = (
"552 240 LINE",
"556 263 LINE",
"230 263 LINE",
"226 240 LINE"
);
},
{
closed = 1;
nodes = (
"545 132 LINE",
"587 371 LINE",
"564 371 LINE",
"522 132 LINE"
);
}
);
width = 871;
},
{
anchors = (
{
name = bottom;
position = "{203, 0}";
},
{
name = top;
position = "{289, 490}";
}
);
layerId = "543F9737-16F7-428D-9F96-2EBD9FC8D3B6";
name = Light;
paths = (
{
closed = 1;
nodes = (
"515 384 LINE",
"539 520 LINE",
"57 520 LINE",
"53 497 LINE",
"511 497 LINE",
"491 384 LINE"
);
},
{
closed = 1;
nodes = (
"209 0 LINE",
"213 23 LINE",
"-30 23 LINE",
"-34 0 LINE"
);
},
{
closed = 1;
nodes = (
"99 13 LINE",
"186 507 LINE",
"162 507 LINE",
"75 13 LINE"
);
},
{
closed = 1;
nodes = (
"329 241 LINE",
"333 264 LINE",
"140 264 LINE",
"136 241 LINE"
);
},
{
closed = 1;
nodes = (
"327 158 LINE",
"360 347 LINE",
"336 347 LINE",
"303 158 LINE"
);
}
);
width = 515;
},
{
anchors = (
{
name = bottom;
position = "{227, 0}";
},
{
name = top;
position = "{320, 527}";
}
);
layerId = "EB38A4D2-CD30-49BA-8E45-1F04A566FFE8";
name = Bold;
paths = (
{
closed = 1;
nodes = (
"522 320 LINE",
"557 520 LINE",
"52 520 LINE",
"36 424 LINE",
"437 424 LINE",
"419 320 LINE"
);
},
{
closed = 1;
nodes = (
"242 0 LINE",
"259 96 LINE",
"-22 96 LINE",
"-39 0 LINE"
);
},
{
closed = 1;
nodes = (
"167 53 LINE",
"239 464 LINE",
"123 464 LINE",
"51 53 LINE"
);
},
{
closed = 1;
nodes = (
"308 204 LINE",
"325 301 LINE",
"136 301 LINE",
"119 204 LINE"
);
},
{
closed = 1;
nodes = (
"337 149 LINE",
"373 356 LINE",
"282 356 LINE",
"245 149 LINE"
);
}
);
width = 539;
}
);
leftKerningGroup = H;
leftMetricsKey = "=H";
rightKerningGroup = F;
unicode = 0046;
},
{
glyphname = G;
lastChange = "2015-11-11 18:41:44 +0000";
layers = (
{
anchors = (
{
name = bottom;
position = "{343, -10}";
},
{
name = top;
position = "{438, 530}";
}
);
background = {
paths = (
{
closed = 1;
nodes = (
"653 -10 OFFCURVE",
"799 106 OFFCURVE",
"799 252 CURVE SMOOTH",
"799 254 LINE",
"422 254 LINE",
"422 231 LINE",
"774 231 LINE",
"761 118 OFFCURVE",
"647 13 OFFCURVE",
"426 13 CURVE SMOOTH",
"244 13 OFFCURVE",
"95 107 OFFCURVE",
"95 259 CURVE SMOOTH",
"95 413 OFFCURVE",
"249 507 OFFCURVE",
"434 507 CURVE SMOOTH",
"566 507 OFFCURVE",
"689 461 OFFCURVE",
"791 324 CURVE",
"791 520 LINE",
"768 520 LINE",
"768 371 LINE",
"772 377 LINE",
"702 466 OFFCURVE",
"595 530 OFFCURVE",
"434 530 CURVE SMOOTH",
"241 530 OFFCURVE",
"70 431 OFFCURVE",
"70 259 CURVE SMOOTH",
"70 89 OFFCURVE",
"234 -10 OFFCURVE",
"426 -10 CURVE SMOOTH"
);
}
);
};
layerId = "B29C398E-974A-40D0-A0A0-00935056D4B4";
name = "Light Extended";
paths = (
{
closed = 1;
nodes = (
"557 -10 OFFCURVE",
"715 105 OFFCURVE",
"740 251 CURVE SMOOTH",
"741 254 LINE",
"383 254 LINE",
"379 231 LINE",
"713 232 LINE",
"681 119 OFFCURVE",
"553 13 OFFCURVE",
"342 13 CURVE SMOOTH",
"170 13 OFFCURVE",
"46 106 OFFCURVE",
"73 257 CURVE SMOOTH",
"100 412 OFFCURVE",
"264 507 OFFCURVE",
"441 507 CURVE SMOOTH",
"571 507 OFFCURVE",
"673 462 OFFCURVE",
"735 331 CURVE",
"747 331 LINE",
"780 520 LINE",
"758 520 LINE",
"730 361 LINE",
"741 360 LINE",
"693 460 OFFCURVE",
"595 530 OFFCURVE",
"441 530 CURVE SMOOTH",
"259 530 OFFCURVE",
"80 432 OFFCURVE",
"50 261 CURVE SMOOTH",
"19 90 OFFCURVE",
"159 -10 OFFCURVE",
"342 -10 CURVE SMOOTH"
);
}
);
width = 830;
},
{
anchors = (
{
name = bottom;
position = "{219, -10}";
},
{
name = top;
position = "{315, 530}";
}
);
background = {
paths = (
{
closed = 1;
nodes = (
"442 -11 OFFCURVE",
"534 95 OFFCURVE",
"534 245 CURVE SMOOTH",
"534 254 LINE",
"282 254 LINE",
"282 231 LINE",
"509 231 LINE",
"507 113 OFFCURVE",
"435 12 OFFCURVE",
"301 12 CURVE SMOOTH",
"174 12 OFFCURVE",
"75 111 OFFCURVE",
"75 260 CURVE SMOOTH",
"75 409 OFFCURVE",
"179 507 OFFCURVE",
"301 507 CURVE SMOOTH",
"408 507 OFFCURVE",
"469 454 OFFCURVE",
"509 370 CURVE",
"521 371 LINE",
"521 520 LINE",
"498 520 LINE",
"498 413 LINE",
"501 419 LINE",
"470 476 OFFCURVE",
"405 530 OFFCURVE",
"301 530 CURVE SMOOTH",
"171 530 OFFCURVE",
"50 427 OFFCURVE",
"50 260 CURVE SMOOTH",
"50 93 OFFCURVE",
"164 -11 OFFCURVE",
"301 -11 CURVE SMOOTH"
);
}
);
};
layerId = "543F9737-16F7-428D-9F96-2EBD9FC8D3B6";
name = Light;
paths = (
{
closed = 1;
nodes = (
"356 -11 OFFCURVE",
"461 94 OFFCURVE",
"486 234 CURVE SMOOTH",
"487 244 LINE",
"248 244 LINE",
"244 221 LINE",
"460 222 LINE",
"439 114 OFFCURVE",
"351 12 OFFCURVE",
"223 12 CURVE SMOOTH",
"104 12 OFFCURVE",
"28 110 OFFCURVE",
"54 258 CURVE SMOOTH",
"80 408 OFFCURVE",
"197 507 OFFCURVE",
"314 507 CURVE SMOOTH",
"415 507 OFFCURVE",
"463 455 OFFCURVE",
"486 371 CURVE",
"497 371 LINE",
"524 520 LINE",
"502 520 LINE",
"483 413 LINE",
"491 412 LINE",
"478 457 OFFCURVE",
"424 530 OFFCURVE",
"315 530 CURVE SMOOTH",
"192 530 OFFCURVE",
"60 428 OFFCURVE",
"31 262 CURVE SMOOTH",
"1 94 OFFCURVE",
"92 -11 OFFCURVE",
"223 -11 CURVE SMOOTH"
);
}
);
width = 555;
},
{
anchors = (
{
name = bottom;
position = "{231, -10}";
},
{
name = top;
position = "{326, 530}";
}
);
layerId = "EB38A4D2-CD30-49BA-8E45-1F04A566FFE8";
name = Bold;
paths = (
{
closed = 1;
nodes = (
"382 -11 OFFCURVE",
"503 101 OFFCURVE",
"529 248 CURVE SMOOTH",
"535 282 LINE",
"245 282 LINE",
"228 186 LINE",
"398 190 LINE",
"381 139 OFFCURVE",
"321 85 OFFCURVE",
"240 85 CURVE SMOOTH",
"160 85 OFFCURVE",
"110 158 OFFCURVE",
"127 252 CURVE SMOOTH",
"145 354 OFFCURVE",
"230 435 OFFCURVE",
"321 435 CURVE SMOOTH",
"392 435 OFFCURVE",
"436 389 OFFCURVE",
"454 345 CURVE",
"528 347 LINE",
"559 520 LINE",
"454 520 LINE",
"437 424 LINE",
"486 403 LINE",
"459 477 OFFCURVE",
"395 530 OFFCURVE",
"294 530 CURVE SMOOTH",
"160 530 OFFCURVE",
"34 415 OFFCURVE",
"8 268 CURVE SMOOTH",
"-19 112 OFFCURVE",
"79 -11 OFFCURVE",
"232 -11 CURVE SMOOTH"
);
}
);
width = 581;
}
);
leftKerningGroup = O;
leftMetricsKey = "=O";
rightKerningGroup = G;
unicode = 0047;
},
{
glyphname = H;
lastChange = "2015-11-11 18:41:44 +0000";
layers = (
{
anchors = (
{
name = bottom;
position = "{475, 0}";
},
{
name = center;
position = "{521, 265}";
},
{
name = top;
position = "{566, 520}";
}
);
layerId = "B29C398E-974A-40D0-A0A0-00935056D4B4";
name = "Light Extended";
paths = (
{
closed = 1;
nodes = (
"813 253 LINE",
"817 276 LINE",
"231 276 LINE",
"227 253 LINE"
);
},
{
closed = 1;
nodes = (
"360 0 LINE",
"364 23 LINE",
"-6 23 LINE",
"-10 0 LINE"
);
},
{
closed = 1;
nodes = (
"189 11 LINE",
"276 507 LINE",
"253 507 LINE",
"165 11 LINE"
);
},
{
closed = 1;
nodes = (
"447 497 LINE",
"451 520 LINE",
"82 520 LINE",
"78 497 LINE"
);
},
{
closed = 1;
nodes = (
"959 0 LINE",
"963 23 LINE",
"594 23 LINE",
"590 0 LINE"
);
},
{
closed = 1;
nodes = (
"789 13 LINE",
"876 509 LINE",
"852 509 LINE",
"765 13 LINE"
);
},
{
closed = 1;
nodes = (
"1047 497 LINE",
"1051 520 LINE",
"681 520 LINE",
"677 497 LINE"
);
}
);
width = 1075;
},
{
anchors = (
{
name = bottom;
position = "{279, 0}";
},
{
name = center;
position = "{322, 245}";
},
{
name = top;
position = "{365, 490}";
}
);
background = {
paths = (
{
closed = 1;
nodes = (
"577 13 LINE",
"577 479 LINE",
"552 479 LINE",
"552 13 LINE"
);
},
{
closed = 1;
nodes = (
"271 0 LINE",
"271 25 LINE",
"30 25 LINE",
"30 0 LINE"
);
},
{
closed = 1;
nodes = (
"167 13 LINE",
"167 479 LINE",
"143 479 LINE",
"143 13 LINE"
);
},
{
closed = 1;
nodes = (
"558 230 LINE",
"558 254 LINE",
"162 254 LINE",
"162 230 LINE"
);
},
{
closed = 1;
nodes = (
"271 465 LINE",
"271 490 LINE",
"30 490 LINE",
"30 465 LINE"
);
},
{
closed = 1;
nodes = (
"689 0 LINE",
"689 25 LINE",
"448 25 LINE",
"448 0 LINE"
);
},
{
closed = 1;
nodes = (
"689 465 LINE",
"689 490 LINE",
"448 490 LINE",
"448 465 LINE"
);
}
);
};
layerId = "543F9737-16F7-428D-9F96-2EBD9FC8D3B6";
name = Light;
paths = (
{
closed = 1;
nodes = (
"512 252 LINE",
"516 275 LINE",
"139 275 LINE",
"135 252 LINE"
);
},
{
closed = 1;
nodes = (
"203 0 LINE",
"207 23 LINE",
"-30 23 LINE",
"-34 0 LINE"
);
},
{
closed = 1;
nodes = (
"98 13 LINE",
"185 509 LINE",
"163 509 LINE",
"75 13 LINE"
);
},
{
closed = 1;
nodes = (
"291 497 LINE",
"295 520 LINE",
"57 520 LINE",
"53 497 LINE"
);
},
{
closed = 1;
nodes = (
"593 0 LINE",
"597 23 LINE",
"358 23 LINE",
"354 0 LINE"
);
},
{
closed = 1;
nodes = (
"487 13 LINE",
"575 509 LINE",
"551 509 LINE",
"464 13 LINE"
);
},
{
closed = 1;
nodes = (
"680 497 LINE",
"684 520 LINE",
"446 520 LINE",
"442 497 LINE"
);
}
);
width = 684;
},
{
anchors = (
{
name = bottom;
position = "{277, 0}";
},
{
name = center;
position = "{322, 257}";
},
{
name = top;
position = "{370, 527}";
}
);
layerId = "EB38A4D2-CD30-49BA-8E45-1F04A566FFE8";
name = Bold;
paths = (
{
closed = 1;
nodes = (
"518 217 LINE",
"535 313 LINE",
"133 313 LINE",
"116 217 LINE"
);
},
{
closed = 1;
nodes = (
"238 0 LINE",
"255 96 LINE",
"-22 96 LINE",
"-39 0 LINE"
);
},
{
closed = 1;
nodes = (
"168 53 LINE",
"240 464 LINE",
"123 464 LINE",
"51 53 LINE"
);
},
{
closed = 1;
nodes = (
"313 424 LINE",
"330 520 LINE",
"52 520 LINE",
"36 424 LINE"
);
},
{
closed = 1;
nodes = (
"595 0 LINE",
"612 96 LINE",
"336 96 LINE",
"319 0 LINE"
);
},
{
closed = 1;
nodes = (
"525 56 LINE",
"598 467 LINE",
"481 467 LINE",
"409 56 LINE"
);
},
{
closed = 1;
nodes = (
"670 424 LINE",
"687 520 LINE",
"411 520 LINE",
"394 424 LINE"
);
}
);
width = 682;
}
);
leftKerningGroup = H;
rightKerningGroup = H;
unicode = 0048;
},
{
glyphname = Hbar;
lastChange = "2015-11-11 18:41:44 +0000";
layers = (
{
anchors = (
{
name = bottom;
position = "{480, 0}";
},
{
name = center;
position = "{524, 255}";
},
{
name = top;
position = "{571, 520}";
}
);
layerId = "B29C398E-974A-40D0-A0A0-00935056D4B4";
name = "Light Extended";
paths = (
{
closed = 1;
nodes = (
"1024 370 LINE",
"1028 392 LINE",
"59 392 LINE",
"55 370 LINE"
);
},
{
closed = 1;
nodes = (
"360 0 LINE",
"364 23 LINE",
"-6 23 LINE",
"-10 0 LINE"
);
},
{
closed = 1;
nodes = (
"189 11 LINE",
"276 507 LINE",
"253 507 LINE",
"165 11 LINE"
);
},
{
closed = 1;
nodes = (
"959 0 LINE",
"963 23 LINE",
"594 23 LINE",
"590 0 LINE"
);
},
{
closed = 1;
nodes = (
"813 253 LINE",
"817 276 LINE",
"231 276 LINE",
"227 253 LINE"
);
},
{
closed = 1;
nodes = (
"447 497 LINE",
"451 520 LINE",
"82 520 LINE",
"78 497 LINE"
);
},
{
closed = 1;
nodes = (
"789 13 LINE",
"876 509 LINE",
"852 509 LINE",
"765 13 LINE"
);
},
{
closed = 1;
nodes = (
"1047 497 LINE",
"1051 520 LINE",
"681 520 LINE",
"677 497 LINE"
);
}
);
width = 1074;
},
{
anchors = (
{
name = bottom;
position = "{290, 0}";
},
{
name = center;
position = "{334, 255}";
},
{
name = top;
position = "{381, 520}";
}
);
layerId = "543F9737-16F7-428D-9F96-2EBD9FC8D3B6";
name = Light;
paths = (
{
closed = 1;
nodes = (
"636 365 LINE",
"640 387 LINE",
"60 387 LINE",
"57 365 LINE"
);
},
{
closed = 1;
nodes = (
"203 0 LINE",
"207 23 LINE",
"-30 23 LINE",
"-34 0 LINE"
);
},
{
closed = 1;
nodes = (
"98 13 LINE",
"185 509 LINE",
"163 509 LINE",
"75 13 LINE"
);
},
{
closed = 1;
nodes = (
"593 0 LINE",
"597 23 LINE",
"358 23 LINE",
"354 0 LINE"
);
},
{
closed = 1;
nodes = (
"509 238 LINE",
"513 261 LINE",
"137 261 LINE",
"133 238 LINE"
);
},
{
closed = 1;
nodes = (
"291 497 LINE",
"295 520 LINE",
"57 520 LINE",
"53 497 LINE"
);
},
{
closed = 1;
nodes = (
"487 13 LINE",
"575 509 LINE",
"551 509 LINE",
"464 13 LINE"
);
},
{
closed = 1;
nodes = (
"680 497 LINE",
"684 520 LINE",
"446 520 LINE",
"442 497 LINE"
);
}
);
width = 684;
},
{
anchors = (
{
name = bottom;
position = "{275, 0}";
},
{
name = center;
position = "{320, 255}";
},
{
name = top;
position = "{367, 520}";
}
);
layerId = "EB38A4D2-CD30-49BA-8E45-1F04A566FFE8";
name = Bold;
paths = (
{
closed = 1;
nodes = (
"627 308 LINE",
"642 392 LINE",
"53 392 LINE",
"38 308 LINE"
);
},
{
closed = 1;
nodes = (
"238 0 LINE",
"255 96 LINE",
"-22 96 LINE",
"-39 0 LINE"
);
},
{
closed = 1;
nodes = (
"167 53 LINE",
"239 464 LINE",
"123 464 LINE",
"51 53 LINE"
);
},
{
closed = 1;
nodes = (
"596 0 LINE",
"613 96 LINE",
"335 96 LINE",
"318 0 LINE"
);
},
{
closed = 1;
nodes = (
"513 189 LINE",
"528 276 LINE",
"126 276 LINE",
"111 189 LINE"
);
},
{
closed = 1;
nodes = (
"313 424 LINE",
"330 520 LINE",
"52 520 LINE",
"36 424 LINE"
);
},
{
closed = 1;
nodes = (
"525 56 LINE",
"598 467 LINE",
"481 467 LINE",
"409 56 LINE"
);
},
{
closed = 1;
nodes = (
"671 424 LINE",
"688 520 LINE",
"410 520 LINE",
"393 424 LINE"
);
}
);
width = 683;
}
);
leftKerningGroup = H;
leftMetricsKey = "=H";
rightKerningGroup = H;
rightMetricsKey = "=H";
unicode = 0126;
},
{
glyphname = I;
lastChange = "2015-11-11 18:41:44 +0000";
layers = (
{
anchors = (
{
name = bottom;
position = "{176, 0}";
},
{
name = ogonek;
position = "{362, 11}";
},
{
name = top;
position = "{267, 520}";
}
);
layerId = "B29C398E-974A-40D0-A0A0-00935056D4B4";
name = "Light Extended";
paths = (
{
closed = 1;
nodes = (
"189 13 LINE SMOOTH",
"276 507 LINE SMOOTH",
"253 507 LINE SMOOTH",
"165 13 LINE SMOOTH"
);
},
{
closed = 1;
nodes = (
"360 0 LINE SMOOTH",
"364 23 LINE SMOOTH",
"-6 23 LINE SMOOTH",
"-10 0 LINE SMOOTH"
);
},
{
closed = 1;
nodes = (
"447 497 LINE SMOOTH",
"451 520 LINE SMOOTH",
"82 520 LINE SMOOTH",
"78 497 LINE SMOOTH"
);
}
);
width = 476;
},
{
anchors = (
{
name = bottom;
position = "{81, 0}";
},
{
name = ogonek;
position = "{203, 0}";
},
{
name = top;
position = "{168, 490}";
}
);
layerId = "543F9737-16F7-428D-9F96-2EBD9FC8D3B6";
name = Light;
paths = (
{
closed = 1;
nodes = (
"99 13 LINE",
"186 509 LINE",
"163 509 LINE",
"75 13 LINE"
);
},
{
closed = 1;
nodes = (
"204 0 LINE",
"208 23 LINE",
"-30 23 LINE",
"-34 0 LINE"
);
},
{
closed = 1;
nodes = (
"292 497 LINE",
"296 520 LINE",
"57 520 LINE",
"53 497 LINE"
);
}
);
width = 295;
},
{
anchors = (
{
name = bottom;
position = "{101, 0}";
},
{
name = ogonek;
position = "{214, 0}";
},
{
name = top;
position = "{194, 527}";
}
);
layerId = "EB38A4D2-CD30-49BA-8E45-1F04A566FFE8";
name = Bold;
paths = (
{
closed = 1;
nodes = (
"168 57 LINE",
"240 464 LINE",
"123 464 LINE",
"52 57 LINE"
);
},
{
closed = 1;
nodes = (
"239 0 LINE",
"256 96 LINE",
"-22 96 LINE",
"-39 0 LINE"
);
},
{
closed = 1;
nodes = (
"314 424 LINE",
"331 520 LINE",
"52 520 LINE",
"36 424 LINE"
);
}
);
width = 326;
}
);
leftKerningGroup = H;
leftMetricsKey = "=H";
rightKerningGroup = H;
rightMetricsKey = "=H";
unicode = 0049;
},
{
glyphname = J;
lastChange = "2015-11-11 18:41:44 +0000";
layers = (
{
anchors = (
{
name = bottom;
position = "{258, 0}";
},
{
name = top;
position = "{350, 520}";
}
);
background = {
paths = (
{
closed = 1;
nodes = (
"631 467 LINE",
"631 490 LINE",
"206 490 LINE",
"206 467 LINE"
);
},
{
closed = 1;
nodes = (
"18 103 LINE",
"57 45 OFFCURVE",
"131 -20 OFFCURVE",
"249 -20 CURVE SMOOTH",
"381 -20 OFFCURVE",
"471 55 OFFCURVE",
"471 176 CURVE SMOOTH",
"471 477 LINE",
"446 477 LINE",
"446 176 LINE SMOOTH",
"446 58 OFFCURVE",
"355 3 OFFCURVE",
"249 3 CURVE SMOOTH",
"148 3 OFFCURVE",
"77 62 OFFCURVE",
"37 117 CURVE"
);
}
);
};
layerId = "B29C398E-974A-40D0-A0A0-00935056D4B4";
name = "Light Extended";
paths = (
{
closed = 1;
nodes = (
"298 -10 OFFCURVE",
"396 64 OFFCURVE",
"417 185 CURVE SMOOTH",
"474 507 LINE",
"450 507 LINE",
"394 187 LINE SMOOTH",
"373 69 OFFCURVE",
"276 13 OFFCURVE",
"174 13 CURVE SMOOTH",
"79 13 OFFCURVE",
"23 71 OFFCURVE",
"-6 126 CURVE",
"-24 112 LINE",
"3 56 OFFCURVE",
"61 -10 OFFCURVE",
"174 -10 CURVE SMOOTH"
);
},
{
closed = 1;
nodes = (
"645 497 LINE",
"649 520 LINE",
"224 520 LINE",
"220 497 LINE"
);
}
);
width = 635;
},
{
anchors = (
{
name = bottom;
position = "{101, 0}";
},
{
name = top;
position = "{193, 520}";
}
);
layerId = "543F9737-16F7-428D-9F96-2EBD9FC8D3B6";
name = Light;
paths = (
{
closed = 1;
nodes = (
"190 -10 OFFCURVE",
"262 53 OFFCURVE",
"282 168 CURVE SMOOTH",
"342 507 LINE",
"317 507 LINE",
"257 165 LINE SMOOTH",
"239 65 OFFCURVE",
"176 13 OFFCURVE",
"103 13 CURVE SMOOTH",
"40 13 OFFCURVE",
"-5 45 OFFCURVE",
"-32 72 CURVE",
"-49 54 LINE",
"-17 25 OFFCURVE",
"31 -10 OFFCURVE",
"102 -10 CURVE SMOOTH"
);
},
{
closed = 1;
nodes = (
"447 497 LINE",
"451 520 LINE",
"183 520 LINE",
"179 497 LINE"
);
}
);
width = 428;
},
{
anchors = (
{
name = bottom;
position = "{85, -12}";
},
{
name = top;
position = "{318, 520}";
}
);
layerId = "EB38A4D2-CD30-49BA-8E45-1F04A566FFE8";
name = Bold;
paths = (
{
closed = 1;
nodes = (
"184 -10 OFFCURVE",
"276 60 OFFCURVE",
"297 175 CURVE SMOOTH",
"348 468 LINE",
"233 468 LINE",
"185 191 LINE SMOOTH",
"174 129 OFFCURVE",
"133 94 OFFCURVE",
"90 91 CURVE SMOOTH",
"61 90 OFFCURVE",
"34 107 OFFCURVE",
"15 127 CURVE",
"-47 44 LINE",
"-19 17 OFFCURVE",
"26 -10 OFFCURVE",
"91 -10 CURVE SMOOTH"
);
},
{
closed = 1;
nodes = (
"420 424 LINE",
"437 520 LINE",
"120 520 LINE",
"103 424 LINE"
);
}
);
width = 414;
}
);
leftKerningGroup = J;
rightKerningGroup = U;
rightMetricsKey = "=U";
unicode = 004A;
},
{
glyphname = K;
lastChange = "2015-11-11 18:41:44 +0000";
layers = (
{
anchors = (
{
name = bottom;
position = "{436, 0}";
},
{
name = top;
position = "{527, 520}";
}
);
layerId = "B29C398E-974A-40D0-A0A0-00935056D4B4";
name = "Light Extended";
paths = (
{
closed = 1;
nodes = (
"809 507 LINE",
"771 507 LINE",
"202 156 LINE",
"197 129 LINE"
);
},
{
closed = 1;
nodes = (
"360 0 LINE SMOOTH",
"364 23 LINE SMOOTH",
"-6 23 LINE SMOOTH",
"-10 0 LINE SMOOTH"
);
},
{
closed = 1;
nodes = (
"189 13 LINE SMOOTH",
"276 507 LINE SMOOTH",
"253 507 LINE SMOOTH",
"165 13 LINE SMOOTH"
);
},
{
closed = 1;
nodes = (
"851 0 LINE SMOOTH",
"855 23 LINE SMOOTH",
"521 23 LINE SMOOTH",
"517 0 LINE SMOOTH"
);
},
{
closed = 1;
nodes = (
"727 10 LINE",
"445 294 LINE",
"428 278 LINE",
"694 10 LINE"
);
},
{
closed = 1;
nodes = (
"447 497 LINE SMOOTH",
"451 520 LINE SMOOTH",
"82 520 LINE SMOOTH",
"78 497 LINE SMOOTH"
);
},
{
closed = 1;
nodes = (
"929 497 LINE SMOOTH",
"933 520 LINE SMOOTH",
"599 520 LINE SMOOTH",
"595 497 LINE SMOOTH"
);
}
);
width = 931;
},
{
anchors = (
{
name = bottom;
position = "{266, 0}";
},
{
name = top;
position = "{357, 520}";
}
);
layerId = "543F9737-16F7-428D-9F96-2EBD9FC8D3B6";
name = Light;
paths = (
{
closed = 1;
nodes = (
"580 507 LINE",
"549 507 LINE",
"114 168 LINE",
"109 140 LINE"
);
},
{
closed = 1;
nodes = (
"204 0 LINE SMOOTH",
"208 23 LINE SMOOTH",
"-30 23 LINE SMOOTH",
"-34 0 LINE SMOOTH"
);
},
{
closed = 1;
nodes = (
"99 13 LINE SMOOTH",
"186 507 LINE SMOOTH",
"162 507 LINE SMOOTH",
"75 13 LINE SMOOTH"
);
},
{
closed = 1;
nodes = (
"552 0 LINE SMOOTH",
"556 23 LINE SMOOTH",
"345 23 LINE SMOOTH",
"341 0 LINE SMOOTH"
);
},
{
closed = 1;
nodes = (
"479 10 LINE",
"298 294 LINE",
"281 278 LINE",
"452 10 LINE"
);
},
{
closed = 1;
nodes = (
"292 497 LINE SMOOTH",
"296 520 LINE SMOOTH",
"57 520 LINE SMOOTH",
"53 497 LINE SMOOTH"
);
},
{
closed = 1;
nodes = (
"639 497 LINE SMOOTH",
"643 520 LINE SMOOTH",
"432 520 LINE SMOOTH",
"428 497 LINE SMOOTH"
);
}
);
width = 615;
},
{
anchors = (
{
name = bottom;
position = "{278, 0}";
},
{
name = top;
position = "{370, 520}";
}
);
layerId = "EB38A4D2-CD30-49BA-8E45-1F04A566FFE8";
name = Bold;
paths = (
{
closed = 1;
nodes = (
"588 442 LINE",
"457 442 LINE",
"124 197 LINE",
"106 81 LINE"
);
},
{
closed = 1;
nodes = (
"232 0 LINE SMOOTH",
"248 96 LINE SMOOTH",
"-22 96 LINE SMOOTH",
"-39 0 LINE SMOOTH"
);
},
{
closed = 1;
nodes = (
"167 53 LINE SMOOTH",
"239 464 LINE SMOOTH",
"123 464 LINE SMOOTH",
"51 53 LINE SMOOTH"
);
},
{
closed = 1;
nodes = (
"554 0 LINE SMOOTH",
"571 96 LINE SMOOTH",
"322 96 LINE SMOOTH",
"305 0 LINE SMOOTH"
);
},
{
closed = 1;
nodes = (
"539 72 LINE",
"350 333 LINE",
"252 276 LINE",
"393 72 LINE"
);
},
{
closed = 1;
nodes = (
"306 424 LINE SMOOTH",
"323 520 LINE SMOOTH",
"52 520 LINE SMOOTH",
"36 424 LINE SMOOTH"
);
},
{
closed = 1;
nodes = (
"617 424 LINE SMOOTH",
"634 520 LINE SMOOTH",
"385 520 LINE SMOOTH",
"368 424 LINE SMOOTH"
);
}
);
width = 614;
}
);
leftKerningGroup = H;
leftMetricsKey = "=H";
rightKerningGroup = K;
unicode = 004B;
},
{
glyphname = L;
lastChange = "2015-11-11 18:41:44 +0000";
layers = (
{
anchors = (
{
name = bottom;
position = "{328, 0}";
},
{
name = center;
position = "{372, 245}";
},
{
name = top;
position = "{420, 520}";
},
{
name = topright;
position = "{787, 490}";
}
);
layerId = "B29C398E-974A-40D0-A0A0-00935056D4B4";
name = "Light Extended";
paths = (
{
closed = 1;
nodes = (
"687 0 LINE",
"719 183 LINE",
"695 183 LINE",
"667 23 LINE",
"-6 23 LINE",
"-10 0 LINE"
);
},
{
closed = 1;
nodes = (
"189 13 LINE",
"276 507 LINE",
"253 507 LINE",
"165 13 LINE"
);
},
{
closed = 1;
nodes = (
"447 497 LINE",
"451 520 LINE",
"82 520 LINE",
"78 497 LINE"
);
}
);
width = 792;
},
{
anchors = (
{
name = bottom;
position = "{149, 0}";
},
{
name = center;
position = "{192, 245}";
},
{
name = top;
position = "{235, 490}";
},
{
name = topright;
position = "{437, 490}";
}
);
layerId = "543F9737-16F7-428D-9F96-2EBD9FC8D3B6";
name = Light;
paths = (
{
closed = 1;
nodes = (
"428 0 LINE",
"452 136 LINE",
"429 136 LINE",
"409 23 LINE",
"-30 23 LINE",
"-34 0 LINE"
);
},
{
closed = 1;
nodes = (
"99 13 LINE",
"186 507 LINE",
"162 507 LINE",
"75 13 LINE"
);
},
{
closed = 1;
nodes = (
"292 497 LINE",
"296 520 LINE",
"57 520 LINE",
"53 497 LINE"
);
}
);
width = 496;
},
{
anchors = (
{
name = bottom;
position = "{202, 0}";
},
{
name = center;
position = "{245, 245}";
},
{
name = top;
position = "{295, 527}";
},
{
name = topright;
position = "{479, 490}";
}
);
layerId = "EB38A4D2-CD30-49BA-8E45-1F04A566FFE8";
name = Bold;
paths = (
{
closed = 1;
nodes = (
"454 0 LINE",
"492 218 LINE",
"382 218 LINE",
"361 96 LINE",
"-22 96 LINE",
"-39 0 LINE"
);
},
{
closed = 1;
nodes = (
"167 53 LINE",
"238 458 LINE",
"122 458 LINE",
"51 53 LINE"
);
},
{
closed = 1;
nodes = (
"312 424 LINE",
"329 520 LINE",
"52 520 LINE",
"36 424 LINE"
);
}
);
width = 516;
}
);
leftKerningGroup = H;
leftMetricsKey = "=H";
rightKerningGroup = L;
unicode = 004C;
},
{
glyphname = M;
lastChange = "2015-11-11 18:41:44 +0000";
layers = (
{
anchors = (
{
name = bottom;
position = "{522, -20}";
},
{
name = top;
position = "{612, 490}";
}
);
background = {
paths = (
{
closed = 1;
nodes = (
"629 3 LINE",
"263 490 LINE",
"232 490 LINE",
"619 -27 LINE"
);
},
{
closed = 1;
nodes = (
"400 0 LINE",
"400 23 LINE",
"61 23 LINE",
"61 0 LINE"
);
},
{
closed = 1;
nodes = (
"263 12 LINE",
"263 477 LINE",
"238 477 LINE",
"238 12 LINE"
);
},
{
closed = 1;
nodes = (
"263 467 LINE",
"263 490 LINE",
"61 490 LINE",
"61 467 LINE"
);
},
{
closed = 1;
nodes = (
"1176 0 LINE",
"1176 23 LINE",
"837 23 LINE",
"837 0 LINE"
);
},
{
closed = 1;
nodes = (
"1006 490 LINE",
"972 490 LINE",
"611 3 LINE",
"619 -27 LINE"
);
},
{
closed = 1;
nodes = (
"999 12 LINE",
"999 477 LINE",
"974 477 LINE",
"974 12 LINE"
);
},
{
closed = 1;
nodes = (
"1176 467 LINE",
"1176 490 LINE",
"974 490 LINE",
"974 467 LINE"
);
}
);
};
layerId = "B29C398E-974A-40D0-A0A0-00935056D4B4";
name = "Light Extended";
paths = (
{
closed = 1;
nodes = (
"525 -11 LINE",
"537 14 LINE",
"279 520 LINE",
"249 520 LINE",
"520 -11 LINE"
);
},
{
closed = 1;
nodes = (
"329 0 LINE",
"333 23 LINE",
"-6 23 LINE",
"-10 0 LINE"
);
},
{
closed = 1;
nodes = (
"189 12 LINE",
"267 452 LINE",
"270 474 OFFCURVE",
"275 497 OFFCURVE",
"278 519 CURVE",
"255 520 LINE",
"165 12 LINE"
);
},
{
closed = 1;
nodes = (
"275 497 LINE",
"279 520 LINE",
"82 520 LINE",
"78 497 LINE"
);
},
{
closed = 1;
nodes = (
"1059 0 LINE",
"1063 23 LINE",
"724 23 LINE",
"720 0 LINE"
);
},
{
closed = 1;
nodes = (
"526 -11 LINE",
"984 520 LINE",
"954 520 LINE",
"520 14 LINE",
"521 -11 LINE"
);
},
{
closed = 1;
nodes = (
"888 12 LINE",
"978 520 LINE",
"954 521 LINE",
"950 499 OFFCURVE",
"946 476 OFFCURVE",
"942 454 CURVE",
"864 12 LINE"
);
},
{
closed = 1;
nodes = (
"1147 497 LINE",
"1151 520 LINE",
"954 520 LINE",
"950 497 LINE"
);
}
);
width = 1175;
},
{
anchors = (
{
name = bottom;
position = "{321, -25}";
},
{
name = top;
position = "{408, 480}";
}
);
background = {
paths = (
{
closed = 1;
nodes = (
"33 23 LINE",
"263 23 LINE",
"263 0 LINE",
"33 0 LINE"
);
},
{
closed = 1;
nodes = (
"141 490 LINE",
"166 490 LINE",
"166 12 LINE",
"141 12 LINE"
);
},
{
closed = 1;
nodes = (
"33 490 LINE",
"166 490 LINE",
"166 467 LINE",
"33 467 LINE"
);
},
{
closed = 1;
nodes = (
"410 -27 LINE",
"144 490 LINE",
"170 490 LINE",
"420 6 LINE"
);
},
{
closed = 1;
nodes = (
"650 490 LINE",
"676 490 LINE",
"410 -27 LINE",
"402 6 LINE"
);
},
{
closed = 1;
nodes = (
"557 0 LINE",
"557 23 LINE",
"787 23 LINE",
"787 0 LINE"
);
},
{
closed = 1;
nodes = (
"654 12 LINE",
"654 490 LINE",
"679 490 LINE",
"679 12 LINE"
);
},
{
closed = 1;
nodes = (
"654 467 LINE",
"654 490 LINE",
"787 490 LINE",
"787 467 LINE"
);
}
);
};
layerId = "543F9737-16F7-428D-9F96-2EBD9FC8D3B6";
name = Light;
paths = (
{
closed = 1;
nodes = (
"327 -11 LINE",
"339 14 LINE",
"190 520 LINE",
"165 520 LINE",
"322 -11 LINE"
);
},
{
closed = 1;
nodes = (
"193 0 LINE",
"197 23 LINE",
"-30 23 LINE",
"-34 0 LINE"
);
},
{
closed = 1;
nodes = (
"97 12 LINE",
"173 446 LINE",
"178 470 OFFCURVE",
"182 495 OFFCURVE",
"186 519 CURVE",
"163 520 LINE",
"73 12 LINE"
);
},
{
closed = 1;
nodes = (
"182 497 LINE",
"186 520 LINE",
"57 520 LINE",
"53 497 LINE"
);
},
{
closed = 1;
nodes = (
"689 0 LINE",
"694 23 LINE",
"465 23 LINE",
"461 0 LINE"
);
},
{
closed = 1;
nodes = (
"327 -11 LINE",
"671 520 LINE",
"646 520 LINE",
"321 14 LINE",
"323 -11 LINE"
);
},
{
closed = 1;
nodes = (
"584 12 LINE",
"674 520 LINE",
"650 521 LINE",
"646 497 OFFCURVE",
"642 472 OFFCURVE",
"637 448 CURVE",
"560 12 LINE"
);
},
{
closed = 1;
nodes = (
"777 497 LINE",
"781 520 LINE",
"650 520 LINE",
"646 497 LINE"
);
}
);
width = 781;
},
{
anchors = (
{
name = bottom;
position = "{339, 3}";
},
{
name = top;
position = "{423, 492}";
}
);
layerId = "EB38A4D2-CD30-49BA-8E45-1F04A566FFE8";
name = Bold;
paths = (
{
closed = 1;
nodes = (
"351 -1 LINE",
"391 86 LINE",
"260 520 LINE",
"142 520 LINE",
"305 -1 LINE"
);
},
{
closed = 1;
nodes = (
"225 0 LINE",
"242 96 LINE",
"-22 96 LINE",
"-39 0 LINE"
);
},
{
closed = 1;
nodes = (
"160 54 LINE",
"190 225 LINE",
"206 312 OFFCURVE",
"205 459 OFFCURVE",
"203 516 CURVE",
"133 520 LINE",
"51 54 LINE"
);
},
{
closed = 1;
nodes = (
"223 424 LINE",
"240 520 LINE",
"52 520 LINE",
"36 424 LINE"
);
},
{
closed = 1;
nodes = (
"716 0 LINE",
"733 96 LINE",
"463 96 LINE",
"446 0 LINE"
);
},
{
closed = 1;
nodes = (
"368 -1 LINE",
"715 520 LINE",
"598 520 LINE",
"320 86 LINE",
"325 -1 LINE"
);
},
{
closed = 1;
nodes = (
"645 54 LINE",
"727 520 LINE",
"658 524 LINE",
"632 467 OFFCURVE",
"576 320 OFFCURVE",
"560 233 CURVE SMOOTH",
"529 54 LINE"
);
},
{
closed = 1;
nodes = (
"791 424 LINE",
"808 520 LINE",
"615 520 LINE",
"598 424 LINE"
);
}
);
width = 803;
}
);
leftKerningGroup = M;
leftMetricsKey = "=H";
rightKerningGroup = M;
rightMetricsKey = "=H";
unicode = 004D;
},
{
glyphname = N;
lastChange = "2015-11-11 18:41:44 +0000";
layers = (
{
anchors = (
{
name = bottom;
position = "{461, 0}";
},
{
name = top;
position = "{547, 490}";
}
);
background = {
paths = (
{
closed = 1;
nodes = (
"905 -5 LINE",
"910 -5 LINE",
"910 507 LINE",
"885 507 LINE",
"885 57 LINE",
"496 520 LINE",
"461 520 LINE"
);
}
);
};
layerId = "B29C398E-974A-40D0-A0A0-00935056D4B4";
name = "Light Extended";
paths = (
{
closed = 1;
nodes = (
"801 -5 LINE",
"891 507 LINE",
"867 507 LINE",
"785 43 LINE",
"279 520 LINE",
"237 520 LINE",
"796 -5 LINE"
);
},
{
closed = 1;
nodes = (
"360 0 LINE",
"364 23 LINE",
"-6 23 LINE",
"-10 0 LINE"
);
},
{
closed = 1;
nodes = (
"189 12 LINE",
"279 520 LINE",
"255 520 LINE",
"165 12 LINE"
);
},
{
closed = 1;
nodes = (
"275 497 LINE",
"279 520 LINE",
"82 520 LINE",
"78 497 LINE"
);
},
{
closed = 1;
nodes = (
"1062 497 LINE",
"1066 520 LINE",
"697 520 LINE",
"693 497 LINE"
);
}
);
width = 1052;
},
{
anchors = (
{
name = bottom;
position = "{298, 0}";
},
{
name = top;
position = "{384, 490}";
}
);
background = {
paths = (
{
closed = 1;
nodes = (
"558 242 LINE",
"558 265 LINE",
"162 265 LINE",
"162 242 LINE"
);
},
{
closed = 1;
nodes = (
"271 0 LINE",
"271 23 LINE",
"30 23 LINE",
"30 0 LINE"
);
},
{
closed = 1;
nodes = (
"167 13 LINE",
"167 509 LINE",
"143 509 LINE",
"143 13 LINE"
);
},
{
closed = 1;
nodes = (
"271 497 LINE",
"271 520 LINE",
"30 520 LINE",
"30 497 LINE"
);
},
{
closed = 1;
nodes = (
"689 0 LINE",
"689 23 LINE",
"448 23 LINE",
"448 0 LINE"
);
},
{
closed = 1;
nodes = (
"577 13 LINE",
"577 509 LINE",
"552 509 LINE",
"552 13 LINE"
);
},
{
closed = 1;
nodes = (
"689 497 LINE",
"689 520 LINE",
"448 520 LINE",
"448 497 LINE"
);
}
);
};
layerId = "543F9737-16F7-428D-9F96-2EBD9FC8D3B6";
name = Light;
paths = (
{
closed = 1;
nodes = (
"489 -5 LINE",
"579 507 LINE",
"556 507 LINE",
"476 57 LINE",
"188 520 LINE",
"155 520 LINE",
"484 -5 LINE"
);
},
{
closed = 1;
nodes = (
"195 0 LINE",
"200 23 LINE",
"-30 23 LINE",
"-34 0 LINE"
);
},
{
closed = 1;
nodes = (
"99 12 LINE",
"188 520 LINE",
"165 520 LINE",
"75 12 LINE"
);
},
{
closed = 1;
nodes = (
"184 497 LINE",
"188 520 LINE",
"57 520 LINE",
"53 497 LINE"
);
},
{
closed = 1;
nodes = (
"685 497 LINE",
"689 520 LINE",
"451 520 LINE",
"446 497 LINE"
);
}
);
width = 670;
},
{
anchors = (
{
name = bottom;
position = "{293, 24}";
},
{
name = top;
position = "{375, 490}";
}
);
layerId = "EB38A4D2-CD30-49BA-8E45-1F04A566FFE8";
name = Bold;
paths = (
{
closed = 1;
nodes = (
"524 -4 LINE",
"614 507 LINE",
"508 507 LINE",
"453 201 LINE",
"244 520 LINE",
"103 520 LINE",
"462 -5 LINE"
);
},
{
closed = 1;
nodes = (
"239 0 LINE",
"256 96 LINE",
"-22 96 LINE",
"-39 0 LINE"
);
},
{
closed = 1;
nodes = (
"156 12 LINE",
"245 520 LINE",
"133 520 LINE",
"44 12 LINE"
);
},
{
closed = 1;
nodes = (
"225 424 LINE",
"245 520 LINE",
"52 520 LINE",
"36 424 LINE"
);
},
{
closed = 1;
nodes = (
"681 424 LINE",
"698 520 LINE",
"430 520 LINE",
"413 424 LINE"
);
}
);
width = 673;
}
);
leftKerningGroup = H;
leftMetricsKey = "=H";
rightKerningGroup = H;
unicode = 004E;
},
{
glyphname = O;
lastChange = "2015-11-11 18:41:44 +0000";
layers = (
{
anchors = (
{
name = bottom;
position = "{366, -10}";
},
{
name = center;
position = "{411, 245}";
},
{
name = ogonek;
position = "{368, -8}";
},
{
name = top;
position = "{461, 530}";
},
{
name = topright;
position = "{865, 490}";
}
);
background = {
paths = (
{
closed = 1;
nodes = (
"669 -20 OFFCURVE",
"836 78 OFFCURVE",
"836 248 CURVE",
"836 417 OFFCURVE",
"669 516 OFFCURVE",
"453 516 CURVE",
"237 516 OFFCURVE",
"70 417 OFFCURVE",
"70 248 CURVE",
"70 78 OFFCURVE",
"237 -20 OFFCURVE",
"453 -20 CURVE"
);
},
{
closed = 1;
nodes = (
"247 3 OFFCURVE",
"95 96 OFFCURVE",
"95 248 CURVE",
"95 400 OFFCURVE",
"247 493 OFFCURVE",
"453 493 CURVE",
"658 493 OFFCURVE",
"811 400 OFFCURVE",
"811 248 CURVE",
"811 96 OFFCURVE",
"658 3 OFFCURVE",
"453 3 CURVE"
);
}
);
};
layerId = "B29C398E-974A-40D0-A0A0-00935056D4B4";
name = "Light Extended";
paths = (
{
closed = 1;
nodes = (
"572 -10 OFFCURVE",
"747 87 OFFCURVE",
"777 258 CURVE",
"807 430 OFFCURVE",
"665 530 OFFCURVE",
"459 530 CURVE",
"255 530 OFFCURVE",
"80 432 OFFCURVE",
"50 262 CURVE",
"19 89 OFFCURVE",
"161 -10 OFFCURVE",
"368 -10 CURVE"
);
},
{
closed = 1;
nodes = (
"173 13 OFFCURVE",
"46 105 OFFCURVE",
"73 258 CURVE",
"100 413 OFFCURVE",
"262 507 OFFCURVE",
"459 507 CURVE",
"652 507 OFFCURVE",
"781 415 OFFCURVE",
"754 262 CURVE",
"726 107 OFFCURVE",
"563 13 OFFCURVE",
"368 13 CURVE"
);
}
);
width = 861;
},
{
anchors = (
{
name = bottom;
position = "{220, -27}";
},
{
name = center;
position = "{268, 245}";
},
{
name = ogonek;
position = "{222, -15}";
},
{
name = top;
position = "{316, 517}";
},
{
name = topright;
position = "{536, 490}";
}
);
layerId = "543F9737-16F7-428D-9F96-2EBD9FC8D3B6";
name = Light;
paths = (
{
closed = 1;
nodes = (
"355 -10 OFFCURVE",
"481 88 OFFCURVE",
"511 258 CURVE",
"541 430 OFFCURVE",
"449 530 OFFCURVE",
"316 530 CURVE",
"185 530 OFFCURVE",
"61 432 OFFCURVE",
"31 262 CURVE",
"0 90 OFFCURVE",
"92 -10 OFFCURVE",
"225 -10 CURVE"
);
},
{
closed = 1;
nodes = (
"104 14 OFFCURVE",
"26 106 OFFCURVE",
"53 258 CURVE",
"80 412 OFFCURVE",
"193 506 OFFCURVE",
"316 506 CURVE",
"437 506 OFFCURVE",
"515 414 OFFCURVE",
"489 262 CURVE",
"461 108 OFFCURVE",
"348 14 OFFCURVE",
"225 14 CURVE"
);
}
);
width = 576;
},
{
anchors = (
{
name = bottom;
position = "{228, -6}";
},
{
name = center;
position = "{274, 245}";
},
{
name = ogonek;
position = "{276, -9}";
},
{
name = top;
position = "{324, 534}";
},
{
name = topright;
position = "{542, 490}";
}
);
layerId = "EB38A4D2-CD30-49BA-8E45-1F04A566FFE8";
name = Bold;
paths = (
{
closed = 1;
nodes = (
"387 -10 OFFCURVE",
"518 106 OFFCURVE",
"544 252 CURVE",
"571 406 OFFCURVE",
"476 530 OFFCURVE",
"317 530 CURVE",
"165 530 OFFCURVE",
"34 414 OFFCURVE",
"8 268 CURVE",
"-19 114 OFFCURVE",
"76 -10 OFFCURVE",
"235 -10 CURVE"
);
},
{
closed = 1;
nodes = (
"149 89 OFFCURVE",
"112 163 OFFCURVE",
"128 252 CURVE",
"145 347 OFFCURVE",
"215 431 OFFCURVE",
"312 431 CURVE",
"403 431 OFFCURVE",
"440 357 OFFCURVE",
"424 268 CURVE",
"407 173 OFFCURVE",
"337 89 OFFCURVE",
"239 89 CURVE"
);
}
);
width = 586;
}
);
leftKerningGroup = O;
rightKerningGroup = O;
unicode = 004F;
},
{
glyphname = Oslash;
lastChange = "2015-11-11 18:41:44 +0000";
layers = (
{
components = (
{
name = O;
transform = "{1, 0, 0, 1, -63, 0}";
}
);
layerId = "B29C398E-974A-40D0-A0A0-00935056D4B4";
name = "Light Extended";
paths = (
{
closed = 1;
nodes = (
"258 9 LINE",
"262 15 LINE",
"588 503 LINE",
"593 510 LINE",
"640 581 LINE",
"613 581 LINE",
"567 514 LINE",
"562 507 LINE",
"238 23 LINE",
"231 14 LINE",
"184 -59 LINE",
"211 -59 LINE"
);
}
);
width = 861;
},
{
components = (
{
name = O;
transform = "{1, 0, 0, 1, -63, 0}";
}
);
layerId = "543F9737-16F7-428D-9F96-2EBD9FC8D3B6";
name = Light;
paths = (
{
closed = 1;
nodes = (
"147 11 LINE",
"151 19 LINE",
"402 498 LINE",
"406 506 LINE",
"445 581 LINE",
"421 581 LINE",
"385 513 LINE",
"382 506 LINE",
"132 28 LINE",
"129 21 LINE",
"87 -59 LINE",
"111 -59 LINE"
);
}
);
width = 576;
},
{
components = (
{
name = O;
transform = "{1, 0, 0, 1, -63, 0}";
}
);
layerId = "EB38A4D2-CD30-49BA-8E45-1F04A566FFE8";
name = Bold;
paths = (
{
closed = 1;
nodes = (
"191 43 LINE",
"191 58 LINE",
"426 439 LINE",
"440 445 LINE",
"521 581 LINE",
"422 581 LINE",
"362 480 LINE",
"361 465 LINE",
"118 69 LINE",
"101 59 LINE",
"30 -59 LINE",
"129 -59 LINE"
);
}
);
width = 586;
}
);
leftKerningGroup = O;
rightKerningGroup = O;
unicode = 00D8;
},
{
color = 0;
glyphname = OE;
lastChange = "2015-11-11 18:41:44 +0000";
layers = (
{
anchors = (
{
name = bottom;
position = "{655, 0}";
},
{
name = center;
position = "{698, 245}";
},
{
name = ogonek;
position = "{1191, 0}";
},
{
name = top;
position = "{747, 520}";
}
);
layerId = "B29C398E-974A-40D0-A0A0-00935056D4B4";
name = "Light Extended";
paths = (
{
closed = 1;
nodes = (
"1191 0 LINE",
"1223 183 LINE",
"1201 183 LINE",
"1172 23 LINE",
"333 23 LINE SMOOTH",
"149 23 OFFCURVE",
"45 101 OFFCURVE",
"73 258 CURVE SMOOTH",
"101 417 OFFCURVE",
"235 497 OFFCURVE",
"419 497 CURVE SMOOTH",
"1255 497 LINE",
"1227 337 LINE",
"1250 337 LINE",
"1283 520 LINE",
"421 520 LINE SMOOTH",
"226 520 OFFCURVE",
"80 436 OFFCURVE",
"50 262 CURVE SMOOTH",
"19 86 OFFCURVE",
"137 0 OFFCURVE",
"331 0 CURVE SMOOTH"
);
},
{
closed = 1;
nodes = (
"624 13 LINE",
"711 507 LINE",
"688 507 LINE",
"601 13 LINE"
);
},
{
closed = 1;
nodes = (
"972 261 LINE",
"976 284 LINE",
"669 284 LINE",
"665 261 LINE"
);
},
{
closed = 1;
nodes = (
"965 153 LINE",
"1007 392 LINE",
"984 392 LINE",
"942 153 LINE"
);
}
);
width = 1354;
},
{
anchors = (
{
name = bottom;
position = "{370, 0}";
},
{
name = center;
position = "{413, 245}";
},
{
name = ogonek;
position = "{657, 0}";
},
{
name = top;
position = "{462, 520}";
}
);
layerId = "543F9737-16F7-428D-9F96-2EBD9FC8D3B6";
name = Light;
paths = (
{
closed = 1;
nodes = (
"657 0 LINE",
"681 136 LINE",
"658 136 LINE",
"638 23 LINE",
"263 23 LINE SMOOTH",
"108 23 OFFCURVE",
"28 110 OFFCURVE",
"53 253 CURVE SMOOTH",
"78 398 OFFCURVE",
"194 497 OFFCURVE",
"349 497 CURVE SMOOTH",
"721 497 LINE",
"701 384 LINE",
"725 384 LINE",
"749 520 LINE",
"351 520 LINE SMOOTH",
"186 520 OFFCURVE",
"58 417 OFFCURVE",
"30 257 CURVE SMOOTH",
"1 95 OFFCURVE",
"97 0 OFFCURVE",
"261 0 CURVE SMOOTH"
);
},
{
closed = 1;
nodes = (
"356 13 LINE",
"443 507 LINE",
"420 507 LINE",
"333 13 LINE"
);
},
{
closed = 1;
nodes = (
"552 261 LINE",
"556 284 LINE",
"401 284 LINE",
"397 261 LINE"
);
},
{
closed = 1;
nodes = (
"550 178 LINE",
"583 367 LINE",
"559 367 LINE",
"526 178 LINE"
);
}
);
width = 777;
},
{
anchors = (
{
name = bottom;
position = "{404, 0}";
},
{
name = center;
position = "{451, 263}";
},
{
name = ogonek;
position = "{729, 0}";
},
{
name = top;
position = "{496, 520}";
}
);
layerId = "EB38A4D2-CD30-49BA-8E45-1F04A566FFE8";
name = Bold;
paths = (
{
closed = 1;
nodes = (
"729 0 LINE",
"763 190 LINE",
"660 190 LINE",
"644 96 LINE",
"281 96 LINE SMOOTH",
"207 96 OFFCURVE",
"102 113 OFFCURVE",
"127 253 CURVE SMOOTH",
"153 402 OFFCURVE",
"270 424 OFFCURVE",
"344 424 CURVE SMOOTH",
"702 424 LINE",
"685 329 LINE",
"787 329 LINE",
"821 520 LINE",
"327 520 LINE SMOOTH",
"191 520 OFFCURVE",
"41 452 OFFCURVE",
"8 269 CURVE SMOOTH",
"-25 78 OFFCURVE",
"105 0 OFFCURVE",
"241 0 CURVE SMOOTH"
);
},
{
closed = 1;
nodes = (
"430 53 LINE",
"501 458 LINE",
"385 458 LINE",
"314 53 LINE"
);
},
{
closed = 1;
nodes = (
"576 206 LINE",
"593 302 LINE",
"400 302 LINE",
"383 206 LINE"
);
},
{
closed = 1;
nodes = (
"605 151 LINE",
"641 357 LINE",
"550 357 LINE",
"514 151 LINE"
);
}
);
width = 844;
}
);
leftKerningGroup = O;
leftMetricsKey = "=O";
rightKerningGroup = E;
rightMetricsKey = "=E";
unicode = 0152;
},
{
glyphname = P;
lastChange = "2015-11-11 18:41:44 +0000";
layers = (
{
anchors = (
{
name = bottom;
position = "{376, 0}";
},
{
name = top;
position = "{468, 520}";
}
);
background = {
paths = (
{
closed = 1;
nodes = (
"263 13 LINE",
"263 477 LINE",
"238 477 LINE",
"238 13 LINE"
);
},
{
closed = 1;
nodes = (
"455 0 LINE",
"455 23 LINE",
"56 23 LINE",
"56 0 LINE"
);
},
{
closed = 1;
nodes = (
"694 193 LINE SMOOTH",
"806 193 OFFCURVE",
"874 258 OFFCURVE",
"874 340 CURVE SMOOTH",
"874 431 OFFCURVE",
"804 490 OFFCURVE",
"694 490 CURVE SMOOTH",
"56 490 LINE",
"56 467 LINE",
"701 467 LINE SMOOTH",
"790 467 OFFCURVE",
"849 415 OFFCURVE",
"849 340 CURVE SMOOTH",
"849 267 OFFCURVE",
"787 216 OFFCURVE",
"701 216 CURVE SMOOTH",
"251 216 LINE",
"251 193 LINE"
);
}
);
};
layerId = "B29C398E-974A-40D0-A0A0-00935056D4B4";
name = "Light Extended";
paths = (
{
closed = 1;
nodes = (
"635 213 LINE SMOOTH",
"741 213 OFFCURVE",
"816 277 OFFCURVE",
"831 363 CURVE SMOOTH",
"848 460 OFFCURVE",
"792 520 OFFCURVE",
"687 520 CURVE SMOOTH",
"82 520 LINE",
"78 497 LINE",
"692 497 LINE SMOOTH",
"776 497 OFFCURVE",
"822 446 OFFCURVE",
"808 367 CURVE SMOOTH",
"794 288 OFFCURVE",
"725 236 OFFCURVE",
"644 236 CURVE SMOOTH",
"217 236 LINE",
"213 213 LINE"
);
},
{
closed = 1;
nodes = (
"369 0 LINE",
"373 23 LINE",
"-6 23 LINE",
"-10 0 LINE"
);
},
{
closed = 1;
nodes = (
"189 13 LINE",
"276 507 LINE",
"253 507 LINE",
"165 13 LINE"
);
}
);
width = 887;
},
{
anchors = (
{
name = bottom;
position = "{196, 0}";
},
{
name = top;
position = "{283, 490}";
}
);
layerId = "543F9737-16F7-428D-9F96-2EBD9FC8D3B6";
name = Light;
paths = (
{
closed = 1;
nodes = (
"286 214 LINE SMOOTH",
"398 214 OFFCURVE",
"484 258 OFFCURVE",
"503 364 CURVE SMOOTH",
"522 474 OFFCURVE",
"461 520 OFFCURVE",
"350 520 CURVE SMOOTH",
"57 520 LINE",
"53 497 LINE",
"342 497 LINE SMOOTH",
"439 497 OFFCURVE",
"497 466 OFFCURVE",
"480 367 CURVE SMOOTH",
"463 274 OFFCURVE",
"378 240 OFFCURVE",
"284 238 CURVE SMOOTH",
"130 235 LINE",
"126 212 LINE"
);
},
{
closed = 1;
nodes = (
"209 0 LINE",
"213 23 LINE",
"-30 23 LINE",
"-34 0 LINE"
);
},
{
closed = 1;
nodes = (
"99 13 LINE",
"186 507 LINE",
"162 507 LINE",
"75 13 LINE"
);
}
);
width = 525;
},
{
anchors = (
{
name = bottom;
position = "{209, 0}";
},
{
name = top;
position = "{302, 527}";
}
);
layerId = "EB38A4D2-CD30-49BA-8E45-1F04A566FFE8";
name = Bold;
paths = (
{
closed = 1;
nodes = (
"305 176 LINE SMOOTH",
"425 176 OFFCURVE",
"511 243 OFFCURVE",
"529 344 CURVE SMOOTH",
"547 449 OFFCURVE",
"477 520 OFFCURVE",
"358 520 CURVE SMOOTH",
"52 520 LINE",
"36 424 LINE",
"340 424 LINE SMOOTH",
"382 424 OFFCURVE",
"426 414 OFFCURVE",
"417 361 CURVE SMOOTH",
"404 287 OFFCURVE",
"349 272 OFFCURVE",
"310 272 CURVE SMOOTH",
"166 273 LINE",
"149 176 LINE"
);
},
{
closed = 1;
nodes = (
"244 0 LINE",
"261 96 LINE",
"-22 96 LINE",
"-39 0 LINE"
);
},
{
closed = 1;
nodes = (
"168 53 LINE",
"241 468 LINE",
"124 468 LINE",
"51 53 LINE"
);
}
);
width = 541;
}
);
leftKerningGroup = H;
leftMetricsKey = "=H";
rightKerningGroup = P;
unicode = 0050;
},
{
glyphname = Thorn;
lastChange = "2015-11-11 18:41:44 +0000";
layers = (
{
background = {
paths = (
{
closed = 1;
nodes = (
"455 0 LINE SMOOTH",
"455 23 LINE SMOOTH",
"56 23 LINE SMOOTH",
"56 0 LINE SMOOTH"
);
}
);
};
layerId = "B29C398E-974A-40D0-A0A0-00935056D4B4";
name = "Light Extended";
paths = (
{
closed = 1;
nodes = (
"602 143 LINE SMOOTH",
"689 143 OFFCURVE",
"751 187 OFFCURVE",
"763 258 CURVE SMOOTH",
"776 331 OFFCURVE",
"728 377 OFFCURVE",
"641 377 CURVE SMOOTH",
"240 377 LINE",
"236 354 LINE",
"645 354 LINE SMOOTH",
"708 354 OFFCURVE",
"751 324 OFFCURVE",
"740 262 CURVE SMOOTH",
"729 198 OFFCURVE",
"673 166 OFFCURVE",
"610 166 CURVE SMOOTH",
"203 166 LINE",
"199 143 LINE"
);
},
{
closed = 1;
nodes = (
"360 0 LINE",
"364 23 LINE",
"-6 23 LINE",
"-10 0 LINE"
);
},
{
closed = 1;
nodes = (
"189 13 LINE SMOOTH",
"276 507 LINE SMOOTH",
"253 507 LINE SMOOTH",
"165 13 LINE SMOOTH"
);
},
{
closed = 1;
nodes = (
"447 497 LINE SMOOTH",
"451 520 LINE SMOOTH",
"82 520 LINE SMOOTH",
"78 497 LINE SMOOTH"
);
}
);
width = 838;
},
{
layerId = "543F9737-16F7-428D-9F96-2EBD9FC8D3B6";
name = Light;
paths = (
{
closed = 1;
nodes = (
"293 142 LINE SMOOTH",
"385 142 OFFCURVE",
"452 181 OFFCURVE",
"465 256 CURVE SMOOTH",
"478 333 OFFCURVE",
"424 376 OFFCURVE",
"332 376 CURVE SMOOTH",
"147 376 LINE",
"143 353 LINE",
"330 353 LINE SMOOTH",
"408 353 OFFCURVE",
"453 321 OFFCURVE",
"442 261 CURVE SMOOTH",
"431 199 OFFCURVE",
"373 165 OFFCURVE",
"295 165 CURVE SMOOTH",
"110 165 LINE",
"106 142 LINE"
);
},
{
closed = 1;
nodes = (
"209 0 LINE",
"213 23 LINE",
"-30 23 LINE",
"-34 0 LINE"
);
},
{
closed = 1;
nodes = (
"99 13 LINE",
"186 508 LINE",
"162 508 LINE",
"75 13 LINE"
);
},
{
closed = 1;
nodes = (
"296 497 LINE",
"300 520 LINE",
"57 520 LINE",
"53 497 LINE"
);
}
);
width = 511;
},
{
layerId = "EB38A4D2-CD30-49BA-8E45-1F04A566FFE8";
name = Bold;
paths = (
{
closed = 1;
nodes = (
"311 133 LINE SMOOTH",
"405 134 OFFCURVE",
"479 170 OFFCURVE",
"493 251 CURVE SMOOTH",
"509 342 OFFCURVE",
"444 384 OFFCURVE",
"350 384 CURVE SMOOTH",
"188 384 LINE",
"173 297 LINE",
"322 297 LINE SMOOTH",
"355 297 OFFCURVE",
"385 296 OFFCURVE",
"380 267 CURVE SMOOTH",
"373 225 OFFCURVE",
"332 218 OFFCURVE",
"302 218 CURVE SMOOTH",
"158 218 LINE",
"143 132 LINE"
);
},
{
closed = 1;
nodes = (
"237 0 LINE",
"254 96 LINE",
"-22 96 LINE",
"-39 0 LINE"
);
},
{
closed = 1;
nodes = (
"169 53 LINE",
"242 468 LINE",
"124 468 LINE",
"51 53 LINE"
);
},
{
closed = 1;
nodes = (
"312 424 LINE",
"329 520 LINE",
"52 520 LINE",
"36 424 LINE"
);
}
);
width = 517;
}
);
leftKerningGroup = H;
leftMetricsKey = "=I";
rightKerningGroup = Thorn;
unicode = 00DE;
},
{
glyphname = Q;
lastChange = "2015-11-11 18:41:44 +0000";
layers = (
{
anchors = (
{
name = bottom;
position = "{364, -10}";
},
{
name = top;
position = "{459, 530}";
}
);
background = {
paths = (
{
closed = 1;
nodes = (
"669 -20 OFFCURVE",
"836 78 OFFCURVE",
"836 248 CURVE",
"836 417 OFFCURVE",
"669 516 OFFCURVE",
"453 516 CURVE",
"237 516 OFFCURVE",
"70 417 OFFCURVE",
"70 248 CURVE",
"70 78 OFFCURVE",
"237 -20 OFFCURVE",
"453 -20 CURVE"
);
},
{
closed = 1;
nodes = (
"247 3 OFFCURVE",
"95 96 OFFCURVE",
"95 248 CURVE",
"95 400 OFFCURVE",
"247 493 OFFCURVE",
"453 493 CURVE",
"658 493 OFFCURVE",
"811 400 OFFCURVE",
"811 248 CURVE",
"811 96 OFFCURVE",
"658 3 OFFCURVE",
"453 3 CURVE"
);
}
);
};
layerId = "B29C398E-974A-40D0-A0A0-00935056D4B4";
name = "Light Extended";
paths = (
{
closed = 1;
nodes = (
"572 -10 OFFCURVE",
"747 87 OFFCURVE",
"777 258 CURVE",
"807 430 OFFCURVE",
"665 530 OFFCURVE",
"459 530 CURVE",
"255 530 OFFCURVE",
"80 432 OFFCURVE",
"50 262 CURVE",
"19 89 OFFCURVE",
"161 -10 OFFCURVE",
"368 -10 CURVE"
);
},
{
closed = 1;
nodes = (
"692 -158 OFFCURVE",
"761 -100 OFFCURVE",
"787 -14 CURVE",
"766 -8 LINE",
"743 -86 OFFCURVE",
"680 -135 OFFCURVE",
"606 -135 CURVE SMOOTH",
"533 -135 OFFCURVE",
"489 -81 OFFCURVE",
"438 1 CURVE SMOOTH",
"424 22 LINE SMOOTH",
"356 133 OFFCURVE",
"308 223 OFFCURVE",
"141 223 CURVE SMOOTH",
"65 223 LINE",
"61 200 LINE",
"139 200 LINE SMOOTH",
"292 200 OFFCURVE",
"342 114 OFFCURVE",
"402 18 CURVE SMOOTH",
"411 2 LINE SMOOTH",
"473 -98 OFFCURVE",
"517 -158 OFFCURVE",
"606 -158 CURVE SMOOTH"
);
},
{
closed = 1;
nodes = (
"173 13 OFFCURVE",
"46 105 OFFCURVE",
"73 258 CURVE",
"100 413 OFFCURVE",
"262 507 OFFCURVE",
"459 507 CURVE",
"652 507 OFFCURVE",
"781 415 OFFCURVE",
"754 262 CURVE",
"726 107 OFFCURVE",
"563 13 OFFCURVE",
"368 13 CURVE"
);
}
);
width = 866;
},
{
anchors = (
{
name = bottom;
position = "{221, -10}";
},
{
name = top;
position = "{316, 530}";
}
);
layerId = "543F9737-16F7-428D-9F96-2EBD9FC8D3B6";
name = Light;
paths = (
{
closed = 1;
nodes = (
"355 -10 OFFCURVE",
"481 88 OFFCURVE",
"511 258 CURVE",
"541 430 OFFCURVE",
"449 530 OFFCURVE",
"316 530 CURVE",
"185 530 OFFCURVE",
"61 432 OFFCURVE",
"31 262 CURVE",
"0 90 OFFCURVE",
"92 -10 OFFCURVE",
"225 -10 CURVE"
);
},
{
closed = 1;
nodes = (
"473 -158 OFFCURVE",
"516 -97 OFFCURVE",
"537 -32 CURVE",
"518 -25 LINE",
"500 -83 OFFCURVE",
"463 -135 OFFCURVE",
"405 -135 CURVE SMOOTH",
"348 -135 OFFCURVE",
"330 -74 OFFCURVE",
"299 41 CURVE",
"290 72 LINE",
"255 207 OFFCURVE",
"205 253 OFFCURVE",
"95 253 CURVE SMOOTH",
"42 253 LINE",
"38 230 LINE",
"93 230 LINE SMOOTH",
"198 230 OFFCURVE",
"236 184 OFFCURVE",
"266 68 CURVE",
"276 35 LINE",
"310 -95 OFFCURVE",
"338 -158 OFFCURVE",
"405 -158 CURVE SMOOTH"
);
},
{
closed = 1;
nodes = (
"104 14 OFFCURVE",
"26 106 OFFCURVE",
"53 258 CURVE",
"80 412 OFFCURVE",
"193 506 OFFCURVE",
"316 506 CURVE",
"437 506 OFFCURVE",
"515 414 OFFCURVE",
"489 262 CURVE",
"461 108 OFFCURVE",
"348 14 OFFCURVE",
"225 14 CURVE"
);
}
);
width = 578;
},
{
anchors = (
{
name = bottom;
position = "{227, -10}";
},
{
name = top;
position = "{322, 530}";
}
);
layerId = "EB38A4D2-CD30-49BA-8E45-1F04A566FFE8";
name = Bold;
paths = (
{
closed = 1;
nodes = (
"387 -10 OFFCURVE",
"518 106 OFFCURVE",
"544 252 CURVE",
"571 406 OFFCURVE",
"476 530 OFFCURVE",
"317 530 CURVE",
"165 530 OFFCURVE",
"34 414 OFFCURVE",
"8 268 CURVE",
"-19 114 OFFCURVE",
"76 -10 OFFCURVE",
"235 -10 CURVE"
);
},
{
closed = 1;
nodes = (
"489 -152 OFFCURVE",
"534 -100 OFFCURVE",
"559 -42 CURVE",
"483 -5 LINE",
"469 -38 OFFCURVE",
"452 -56 OFFCURVE",
"423 -56 CURVE SMOOTH",
"399 -56 OFFCURVE",
"386 -40 OFFCURVE",
"362 50 CURVE",
"333 153 LINE",
"305 261 OFFCURVE",
"242 285 OFFCURVE",
"153 285 CURVE SMOOTH",
"130 285 LINE",
"114 198 LINE",
"143 198 LINE SMOOTH",
"204 198 OFFCURVE",
"218 177 OFFCURVE",
"234 119 CURVE",
"264 21 LINE",
"296 -102 OFFCURVE",
"338 -152 OFFCURVE",
"419 -152 CURVE SMOOTH"
);
},
{
closed = 1;
nodes = (
"145 81 OFFCURVE",
"107 158 OFFCURVE",
"124 252 CURVE",
"142 353 OFFCURVE",
"214 439 OFFCURVE",
"314 439 CURVE",
"406 439 OFFCURVE",
"444 362 OFFCURVE",
"427 268 CURVE",
"409 167 OFFCURVE",
"337 81 OFFCURVE",
"237 81 CURVE"
);
}
);
width = 597;
}
);
leftKerningGroup = O;
leftMetricsKey = "=O";
rightKerningGroup = O;
unicode = 0051;
},
{
glyphname = Q.alt;
lastChange = "2015-11-11 18:41:44 +0000";
layers = (
{
anchors = (
{
name = bottom;
position = "{364, -10}";
},
{
name = top;
position = "{459, 530}";
}
);
background = {
paths = (
{
closed = 1;
nodes = (
"538 196 OFFCURVE",
"428 265 OFFCURVE",
"130 265 CURVE SMOOTH",
"83 265 LINE",
"83 242 LINE",
"130 242 LINE SMOOTH",
"395 242 OFFCURVE",
"507 191 OFFCURVE",
"661 -1 CURVE SMOOTH",
"830 -214 OFFCURVE",
"952 -351 OFFCURVE",
"1156 -351 CURVE SMOOTH",
"1296 -351 OFFCURVE",
"1387 -305 OFFCURVE",
"1465 -234 CURVE",
"1449 -216 LINE",
"1378 -281 OFFCURVE",
"1292 -328 OFFCURVE",
"1156 -328 CURVE SMOOTH",
"973 -328 OFFCURVE",
"853 -205 OFFCURVE",
"692 0 CURVE SMOOTH"
);
},
{
closed = 1;
nodes = (
"669 -20 OFFCURVE",
"836 78 OFFCURVE",
"836 248 CURVE",
"836 417 OFFCURVE",
"669 516 OFFCURVE",
"453 516 CURVE",
"237 516 OFFCURVE",
"70 417 OFFCURVE",
"70 248 CURVE",
"70 78 OFFCURVE",
"237 -20 OFFCURVE",
"453 -20 CURVE"
);
},
{
closed = 1;
nodes = (
"247 3 OFFCURVE",
"95 96 OFFCURVE",
"95 248 CURVE",
"95 400 OFFCURVE",
"247 493 OFFCURVE",
"453 493 CURVE",
"658 493 OFFCURVE",
"811 400 OFFCURVE",
"811 248 CURVE",
"811 96 OFFCURVE",
"658 3 OFFCURVE",
"453 3 CURVE"
);
}
);
};
guideLines = (
{
position = "{603, 27}";
}
);
layerId = "B29C398E-974A-40D0-A0A0-00935056D4B4";
name = "Light Extended";
paths = (
{
closed = 1;
nodes = (
"1177 -280 OFFCURVE",
"1281 -227 OFFCURVE",
"1351 -184 CURVE",
"1341 -165 LINE",
"1275 -206 OFFCURVE",
"1175 -257 OFFCURVE",
"1041 -257 CURVE SMOOTH",
"882 -257 OFFCURVE",
"771 -178 OFFCURVE",
"620 19 CURVE SMOOTH",
"493 184 OFFCURVE",
"389 265 OFFCURVE",
"154 265 CURVE SMOOTH",
"63 265 LINE",
"59 242 LINE",
"152 242 LINE SMOOTH",
"367 242 OFFCURVE",
"470 175 OFFCURVE",
"588 20 CURVE SMOOTH",
"744 -184 OFFCURVE",
"860 -280 OFFCURVE",
"1041 -280 CURVE SMOOTH"
);
},
{
closed = 1;
nodes = (
"572 -10 OFFCURVE",
"747 87 OFFCURVE",
"776 256 CURVE",
"806 426 OFFCURVE",
"664 526 OFFCURVE",
"458 526 CURVE",
"254 526 OFFCURVE",
"79 428 OFFCURVE",
"49 260 CURVE",
"19 89 OFFCURVE",
"161 -10 OFFCURVE",
"368 -10 CURVE"
);
},
{
closed = 1;
nodes = (
"173 13 OFFCURVE",
"46 105 OFFCURVE",
"72 256 CURVE",
"99 409 OFFCURVE",
"261 503 OFFCURVE",
"458 503 CURVE",
"652 503 OFFCURVE",
"780 411 OFFCURVE",
"753 260 CURVE",
"726 107 OFFCURVE",
"563 13 OFFCURVE",
"368 13 CURVE"
);
}
);
width = 860;
},
{
anchors = (
{
name = bottom;
position = "{221, -10}";
},
{
name = top;
position = "{316, 530}";
}
);
layerId = "543F9737-16F7-428D-9F96-2EBD9FC8D3B6";
name = Light;
paths = (
{
closed = 1;
nodes = (
"753 -188 OFFCURVE",
"811 -165 OFFCURVE",
"857 -136 CURVE",
"847 -117 LINE",
"805 -144 OFFCURVE",
"748 -165 OFFCURVE",
"685 -165 CURVE SMOOTH",
"579 -165 OFFCURVE",
"497 -105 OFFCURVE",
"398 60 CURVE SMOOTH",
"292 236 OFFCURVE",
"210 253 OFFCURVE",
"66 253 CURVE SMOOTH",
"42 253 LINE",
"38 230 LINE",
"64 230 LINE SMOOTH",
"208 230 OFFCURVE",
"279 214 OFFCURVE",
"373 56 CURVE SMOOTH",
"481 -122 OFFCURVE",
"567 -188 OFFCURVE",
"685 -188 CURVE SMOOTH"
);
},
{
closed = 1;
nodes = (
"355 -10 OFFCURVE",
"481 88 OFFCURVE",
"511 258 CURVE",
"541 430 OFFCURVE",
"449 530 OFFCURVE",
"316 530 CURVE",
"185 530 OFFCURVE",
"61 432 OFFCURVE",
"31 262 CURVE",
"0 90 OFFCURVE",
"92 -10 OFFCURVE",
"225 -10 CURVE"
);
},
{
closed = 1;
nodes = (
"104 14 OFFCURVE",
"26 106 OFFCURVE",
"53 258 CURVE",
"80 412 OFFCURVE",
"193 506 OFFCURVE",
"316 506 CURVE",
"437 506 OFFCURVE",
"515 414 OFFCURVE",
"489 262 CURVE",
"461 108 OFFCURVE",
"348 14 OFFCURVE",
"225 14 CURVE"
);
}
);
width = 586;
},
{
anchors = (
{
name = bottom;
position = "{227, -10}";
},
{
name = top;
position = "{322, 530}";
}
);
layerId = "EB38A4D2-CD30-49BA-8E45-1F04A566FFE8";
name = Bold;
paths = (
{
closed = 1;
nodes = (
"738 -228 OFFCURVE",
"808 -200 OFFCURVE",
"859 -166 CURVE",
"825 -77 LINE",
"778 -108 OFFCURVE",
"731 -128 OFFCURVE",
"671 -128 CURVE SMOOTH",
"589 -128 OFFCURVE",
"536 -75 OFFCURVE",
"464 53 CURVE SMOOTH",
"374 230 OFFCURVE",
"310 284 OFFCURVE",
"118 284 CURVE SMOOTH",
"80 284 LINE",
"65 197 LINE",
"111 197 LINE SMOOTH",
"248 197 OFFCURVE",
"298 159 OFFCURVE",
"374 18 CURVE SMOOTH",
"468 -176 OFFCURVE",
"543 -228 OFFCURVE",
"666 -228 CURVE SMOOTH"
);
},
{
closed = 1;
nodes = (
"387 -10 OFFCURVE",
"518 106 OFFCURVE",
"544 252 CURVE",
"571 406 OFFCURVE",
"476 530 OFFCURVE",
"317 530 CURVE",
"165 530 OFFCURVE",
"34 414 OFFCURVE",
"8 268 CURVE",
"-19 114 OFFCURVE",
"76 -10 OFFCURVE",
"235 -10 CURVE"
);
},
{
closed = 1;
nodes = (
"145 81 OFFCURVE",
"107 158 OFFCURVE",
"124 252 CURVE",
"142 353 OFFCURVE",
"214 439 OFFCURVE",
"314 439 CURVE",
"406 439 OFFCURVE",
"444 362 OFFCURVE",
"427 268 CURVE",
"409 167 OFFCURVE",
"337 81 OFFCURVE",
"237 81 CURVE"
);
}
);
width = 594;
}
);
leftKerningGroup = Q.alt;
leftMetricsKey = "=O";
rightKerningGroup = Q.alt;
},
{
glyphname = R;
lastChange = "2015-11-11 18:41:44 +0000";
layers = (
{
anchors = (
{
name = bottom;
position = "{473, 0}";
},
{
name = top;
position = "{527, 520}";
}
);
background = {
paths = (
{
closed = 1;
nodes = (
"452 239 LINE SMOOTH",
"536 239 OFFCURVE",
"581 169 OFFCURVE",
"630 110 CURVE SMOOTH",
"685 44 OFFCURVE",
"747 -37 OFFCURVE",
"839 -37 CURVE SMOOTH",
"949 -37 OFFCURVE",
"1012 37 OFFCURVE",
"1012 148 CURVE SMOOTH",
"1012 169 LINE",
"987 169 LINE",
"987 148 LINE SMOOTH",
"987 48 OFFCURVE",
"931 -14 OFFCURVE",
"839 -14 CURVE SMOOTH",
"756 -14 OFFCURVE",
"705 60 OFFCURVE",
"651 123 CURVE SMOOTH",
"588 197 OFFCURVE",
"548 253 OFFCURVE",
"440 253 CURVE SMOOTH",
"258 253 LINE",
"258 239 LINE"
);
},
{
closed = 1;
nodes = (
"263 13 LINE",
"263 507 LINE",
"238 507 LINE",
"238 13 LINE"
);
},
{
closed = 1;
nodes = (
"454 0 LINE",
"454 23 LINE",
"56 22 LINE",
"56 -1 LINE"
);
},
{
closed = 1;
nodes = (
"717 241 LINE SMOOTH",
"841 241 OFFCURVE",
"900 309 OFFCURVE",
"900 378 CURVE SMOOTH",
"900 457 OFFCURVE",
"840 520 OFFCURVE",
"717 520 CURVE SMOOTH",
"56 520 LINE",
"56 497 LINE",
"717 497 LINE SMOOTH",
"826 497 OFFCURVE",
"875 441 OFFCURVE",
"875 378 CURVE SMOOTH",
"875 317 OFFCURVE",
"823 262 OFFCURVE",
"717 262 CURVE SMOOTH",
"258 262 LINE",
"258 241 LINE"
);
}
);
};
layerId = "B29C398E-974A-40D0-A0A0-00935056D4B4";
name = "Light Extended";
paths = (
{
closed = 1;
nodes = (
"662 241 LINE SMOOTH",
"779 241 OFFCURVE",
"846 308 OFFCURVE",
"858 376 CURVE SMOOTH",
"872 456 OFFCURVE",
"826 520 OFFCURVE",
"709 520 CURVE SMOOTH",
"82 520 LINE",
"78 497 LINE",
"707 497 LINE SMOOTH",
"810 497 OFFCURVE",
"846 442 OFFCURVE",
"835 380 CURVE SMOOTH",
"824 318 OFFCURVE",
"764 262 OFFCURVE",
"663 262 CURVE SMOOTH",
"228 262 LINE",
"225 241 LINE"
);
},
{
closed = 1;
nodes = (
"360 0 LINE",
"364 23 LINE",
"-6 22 LINE",
"-10 -1 LINE"
);
},
{
closed = 1;
nodes = (
"189 13 LINE",
"276 507 LINE",
"253 507 LINE",
"165 13 LINE"
);
},
{
closed = 1;
nodes = (
"838 -10 OFFCURVE",
"910 63 OFFCURVE",
"926 154 CURVE SMOOTH",
"929 176 LINE",
"906 176 LINE",
"902 156 LINE SMOOTH",
"888 76 OFFCURVE",
"823 13 OFFCURVE",
"749 13 CURVE SMOOTH",
"674 13 OFFCURVE",
"645 66 OFFCURVE",
"602 137 CURVE SMOOTH",
"547 226 OFFCURVE",
"520 253 OFFCURVE",
"418 253 CURVE SMOOTH",
"227 253 LINE",
"224 239 LINE",
"429 239 LINE SMOOTH",
"508 239 OFFCURVE",
"538 202 OFFCURVE",
"582 126 CURVE SMOOTH",
"623 50 OFFCURVE",
"663 -10 OFFCURVE",
"748 -10 CURVE SMOOTH"
);
}
);
width = 995;
},
{
anchors = (
{
name = bottom;
position = "{255, 0}";
},
{
name = top;
position = "{309, 520}";
}
);
layerId = "543F9737-16F7-428D-9F96-2EBD9FC8D3B6";
name = Light;
paths = (
{
closed = 1;
nodes = (
"315 241 LINE SMOOTH",
"423 241 OFFCURVE",
"490 308 OFFCURVE",
"502 376 CURVE SMOOTH",
"516 456 OFFCURVE",
"470 520 OFFCURVE",
"362 520 CURVE SMOOTH",
"57 520 LINE",
"53 497 LINE",
"360 497 LINE SMOOTH",
"454 497 OFFCURVE",
"490 442 OFFCURVE",
"479 380 CURVE SMOOTH",
"468 318 OFFCURVE",
"408 262 OFFCURVE",
"317 262 CURVE SMOOTH",
"138 262 LINE",
"134 241 LINE"
);
},
{
closed = 1;
nodes = (
"204 0 LINE",
"208 23 LINE",
"-31 22 LINE",
"-35 -1 LINE"
);
},
{
closed = 1;
nodes = (
"99 13 LINE",
"186 507 LINE",
"162 507 LINE",
"75 13 LINE"
);
},
{
closed = 1;
nodes = (
"476 -10 OFFCURVE",
"512 43 OFFCURVE",
"521 94 CURVE SMOOTH",
"525 116 LINE",
"501 116 LINE",
"497 96 LINE SMOOTH",
"490 56 OFFCURVE",
"465 13 OFFCURVE",
"421 13 CURVE SMOOTH",
"376 13 OFFCURVE",
"367 51 OFFCURVE",
"342 148 CURVE SMOOTH",
"320 245 OFFCURVE",
"259 253 OFFCURVE",
"175 253 CURVE SMOOTH",
"137 253 LINE",
"134 239 LINE",
"205 239 LINE SMOOTH",
"266 239 OFFCURVE",
"306 215 OFFCURVE",
"323 139 CURVE SMOOTH",
"342 36 OFFCURVE",
"368 -10 OFFCURVE",
"421 -10 CURVE SMOOTH"
);
}
);
width = 577;
},
{
anchors = (
{
name = bottom;
position = "{279, 0}";
},
{
name = top;
position = "{333, 520}";
}
);
background = {
paths = (
{
closed = 1;
nodes = (
"357 217 LINE SMOOTH",
"489 217 OFFCURVE",
"554 297 OFFCURVE",
"554 369 CURVE SMOOTH",
"554 457 OFFCURVE",
"488 520 OFFCURVE",
"357 520 CURVE SMOOTH",
"25 520 LINE",
"25 424 LINE",
"350 424 LINE SMOOTH",
"387 424 OFFCURVE",
"432 415 OFFCURVE",
"432 369 CURVE SMOOTH",
"432 319 OFFCURVE",
"384 307 OFFCURVE",
"350 307 CURVE SMOOTH",
"190 307 LINE",
"190 217 LINE"
);
},
{
closed = 1;
nodes = (
"318 0 LINE",
"318 96 LINE",
"25 97 LINE",
"25 0 LINE"
);
},
{
closed = 1;
nodes = (
"233 53 LINE",
"233 464 LINE",
"110 464 LINE",
"110 53 LINE"
);
},
{
closed = 1;
nodes = (
"587 -11 OFFCURVE",
"639 57 OFFCURVE",
"639 138 CURVE SMOOTH",
"639 161 LINE",
"534 161 LINE",
"534 136 LINE SMOOTH",
"534 111 OFFCURVE",
"522 91 OFFCURVE",
"497 91 CURVE SMOOTH",
"475 91 OFFCURVE",
"463 105 OFFCURVE",
"450 133 CURVE SMOOTH",
"429 177 OFFCURVE",
"409 235 OFFCURVE",
"340 235 CURVE SMOOTH",
"247 235 LINE",
"247 217 LINE",
"266 217 LINE SMOOTH",
"297 217 OFFCURVE",
"313 173 OFFCURVE",
"337 119 CURVE SMOOTH",
"359 68 OFFCURVE",
"401 -11 OFFCURVE",
"497 -11 CURVE SMOOTH"
);
}
);
};
layerId = "EB38A4D2-CD30-49BA-8E45-1F04A566FFE8";
name = Bold;
paths = (
{
closed = 1;
nodes = (
"317 217 LINE SMOOTH",
"432 217 OFFCURVE",
"511 268 OFFCURVE",
"527 361 CURVE SMOOTH",
"545 462 OFFCURVE",
"470 520 OFFCURVE",
"356 520 CURVE SMOOTH",
"52 520 LINE",
"36 424 LINE",
"347 424 LINE SMOOTH",
"382 424 OFFCURVE",
"421 419 OFFCURVE",
"414 377 CURVE SMOOTH",
"404 323 OFFCURVE",
"353 307 OFFCURVE",
"321 307 CURVE SMOOTH",
"172 307 LINE",
"156 217 LINE"
);
},
{
closed = 1;
nodes = (
"234 0 LINE",
"251 96 LINE",
"-22 97 LINE",
"-39 0 LINE"
);
},
{
closed = 1;
nodes = (
"168 53 LINE",
"240 464 LINE",
"123 464 LINE",
"51 53 LINE"
);
},
{
closed = 1;
nodes = (
"481 -11 OFFCURVE",
"538 49 OFFCURVE",
"553 130 CURVE SMOOTH",
"558 161 LINE",
"458 161 LINE",
"454 136 LINE SMOOTH",
"450 111 OFFCURVE",
"433 91 OFFCURVE",
"413 91 CURVE SMOOTH",
"401 91 OFFCURVE",
"395 95 OFFCURVE",
"384 126 CURVE SMOOTH",
"369 202 OFFCURVE",
"339 235 OFFCURVE",
"294 235 CURVE SMOOTH",
"194 235 LINE",
"191 217 LINE",
"221 217 LINE SMOOTH",
"251 217 OFFCURVE",
"262 177 OFFCURVE",
"278 126 CURVE SMOOTH",
"287 72 OFFCURVE",
"305 -11 OFFCURVE",
"408 -11 CURVE SMOOTH"
);
}
);
width = 607;
}
);
leftKerningGroup = H;
leftMetricsKey = "=H";
rightKerningGroup = R;
unicode = 0052;
},
{
glyphname = R.alt;
lastChange = "2015-11-11 18:41:44 +0000";
layers = (
{
anchors = (
{
name = bottom;
position = "{362, 0}";
},
{
name = top;
position = "{453, 520}";
}
);
background = {
paths = (
{
closed = 1;
nodes = (
"263 18 LINE",
"263 475 LINE",
"238 475 LINE",
"238 18 LINE"
);
},
{
closed = 1;
nodes = (
"456 0 LINE",
"456 23 LINE",
"56 23 LINE",
"56 0 LINE"
);
},
{
closed = 1;
nodes = (
"613 213 LINE SMOOTH",
"729 213 OFFCURVE",
"815 264 OFFCURVE",
"815 350 CURVE SMOOTH",
"815 433 OFFCURVE",
"754 490 OFFCURVE",
"638 490 CURVE SMOOTH",
"56 490 LINE",
"56 467 LINE",
"638 467 LINE SMOOTH",
"741 467 OFFCURVE",
"790 417 OFFCURVE",
"790 350 CURVE SMOOTH",
"790 276 OFFCURVE",
"711 236 OFFCURVE",
"613 236 CURVE SMOOTH",
"251 236 LINE",
"251 213 LINE"
);
},
{
closed = 1;
nodes = (
"302 225 LINE",
"281 213 LINE",
"403 213 LINE SMOOTH",
"566 213 OFFCURVE",
"642 173 OFFCURVE",
"762 -8 CURVE SMOOTH",
"904 -223 OFFCURVE",
"1051 -353 OFFCURVE",
"1266 -353 CURVE SMOOTH",
"1433 -353 OFFCURVE",
"1537 -286 OFFCURVE",
"1595 -248 CURVE",
"1584 -229 LINE",
"1531 -265 OFFCURVE",
"1429 -330 OFFCURVE",
"1266 -330 CURVE SMOOTH",
"1072 -330 OFFCURVE",
"928 -214 OFFCURVE",
"790 -7 CURVE SMOOTH",
"672 170 OFFCURVE",
"610 225 OFFCURVE",
"405 225 CURVE SMOOTH"
);
}
);
};
guideLines = (
{
position = "{475, -263}";
}
);
layerId = "B29C398E-974A-40D0-A0A0-00935056D4B4";
name = "Light Extended";
paths = (
{
closed = 1;
nodes = (
"1231 -280 OFFCURVE",
"1333 -214 OFFCURVE",
"1395 -176 CURVE",
"1385 -156 LINE",
"1328 -192 OFFCURVE",
"1229 -257 OFFCURVE",
"1074 -257 CURVE SMOOTH",
"890 -257 OFFCURVE",
"780 -144 OFFCURVE",
"693 12 CURVE SMOOTH",
"597 188 OFFCURVE",
"543 247 OFFCURVE",
"364 247 CURVE SMOOTH",
"219 247 LINE",
"218 233 LINE",
"362 233 LINE SMOOTH",
"517 233 OFFCURVE",
"566 188 OFFCURVE",
"664 13 CURVE SMOOTH",
"752 -146 OFFCURVE",
"868 -280 OFFCURVE",
"1073 -280 CURVE SMOOTH"
);
},
{
closed = 1;
nodes = (
"360 0 LINE",
"364 23 LINE",
"-6 23 LINE",
"-10 0 LINE"
);
},
{
closed = 1;
nodes = (
"190 18 LINE",
"276 505 LINE",
"252 505 LINE",
"166 18 LINE"
);
},
{
closed = 1;
nodes = (
"579 234 LINE SMOOTH",
"697 234 OFFCURVE",
"764 302 OFFCURVE",
"777 376 CURVE SMOOTH",
"792 461 OFFCURVE",
"744 520 OFFCURVE",
"627 520 CURVE SMOOTH",
"82 520 LINE",
"78 497 LINE",
"625 497 LINE SMOOTH",
"729 497 OFFCURVE",
"765 447 OFFCURVE",
"754 380 CURVE SMOOTH",
"742 312 OFFCURVE",
"681 255 OFFCURVE",
"581 255 CURVE SMOOTH",
"227 255 LINE",
"223 234 LINE"
);
}
);
width = 880;
},
{
anchors = (
{
name = bottom;
position = "{246, 0}";
},
{
name = top;
position = "{299, 520}";
}
);
layerId = "543F9737-16F7-428D-9F96-2EBD9FC8D3B6";
name = Light;
paths = (
{
closed = 1;
nodes = (
"729 -188 OFFCURVE",
"787 -164 OFFCURVE",
"828 -137 CURVE",
"818 -116 LINE",
"780 -141 OFFCURVE",
"723 -165 OFFCURVE",
"663 -165 CURVE SMOOTH",
"563 -165 OFFCURVE",
"497 -119 OFFCURVE",
"425 68 CURVE SMOOTH",
"365 229 OFFCURVE",
"327 253 OFFCURVE",
"244 253 CURVE SMOOTH",
"175 253 LINE",
"172 241 LINE",
"244 241 LINE SMOOTH",
"304 241 OFFCURVE",
"342 225 OFFCURVE",
"405 62 CURVE SMOOTH",
"477 -137 OFFCURVE",
"549 -188 OFFCURVE",
"663 -188 CURVE SMOOTH"
);
},
{
closed = 1;
nodes = (
"204 0 LINE",
"208 23 LINE",
"-31 22 LINE",
"-35 -1 LINE"
);
},
{
closed = 1;
nodes = (
"99 13 LINE",
"186 507 LINE",
"162 507 LINE",
"75 13 LINE"
);
},
{
closed = 1;
nodes = (
"315 241 LINE SMOOTH",
"423 241 OFFCURVE",
"490 308 OFFCURVE",
"502 376 CURVE SMOOTH",
"516 456 OFFCURVE",
"470 520 OFFCURVE",
"362 520 CURVE SMOOTH",
"57 520 LINE",
"53 497 LINE",
"360 497 LINE SMOOTH",
"454 497 OFFCURVE",
"490 442 OFFCURVE",
"479 380 CURVE SMOOTH",
"468 318 OFFCURVE",
"408 262 OFFCURVE",
"317 262 CURVE SMOOTH",
"138 262 LINE",
"134 241 LINE"
);
}
);
width = 567;
},
{
anchors = (
{
name = bottom;
position = "{276, 0}";
},
{
name = top;
position = "{330, 520}";
}
);
layerId = "EB38A4D2-CD30-49BA-8E45-1F04A566FFE8";
name = Bold;
paths = (
{
closed = 1;
nodes = (
"792 -193 OFFCURVE",
"879 -156 OFFCURVE",
"946 -109 CURVE",
"907 -20 LINE",
"850 -61 OFFCURVE",
"787 -89 OFFCURVE",
"708 -89 CURVE SMOOTH",
"621 -89 OFFCURVE",
"533 -55 OFFCURVE",
"454 66 CURVE SMOOTH",
"392 177 OFFCURVE",
"359 229 OFFCURVE",
"295 229 CURVE SMOOTH",
"169 229 LINE",
"166 210 LINE",
"213 210 LINE SMOOTH",
"267 210 OFFCURVE",
"265 159 OFFCURVE",
"351 28 CURVE SMOOTH",
"428 -95 OFFCURVE",
"530 -193 OFFCURVE",
"686 -193 CURVE SMOOTH"
);
},
{
closed = 1;
nodes = (
"239 0 LINE",
"256 96 LINE",
"-22 97 LINE",
"-39 0 LINE"
);
},
{
closed = 1;
nodes = (
"168 53 LINE",
"240 464 LINE",
"123 464 LINE",
"51 53 LINE"
);
},
{
closed = 1;
nodes = (
"316 210 LINE SMOOTH",
"441 210 OFFCURVE",
"513 281 OFFCURVE",
"526 358 CURVE SMOOTH",
"543 453 OFFCURVE",
"489 520 OFFCURVE",
"365 520 CURVE SMOOTH",
"52 520 LINE",
"36 424 LINE",
"347 424 LINE SMOOTH",
"382 424 OFFCURVE",
"421 419 OFFCURVE",
"413 374 CURVE SMOOTH",
"402 311 OFFCURVE",
"352 301 OFFCURVE",
"320 301 CURVE SMOOTH",
"171 301 LINE",
"155 210 LINE"
);
}
);
width = 558;
}
);
leftKerningGroup = R.alt;
leftMetricsKey = "=H";
rightKerningGroup = R.alt;
},
{
glyphname = S;
lastChange = "2015-11-11 18:41:44 +0000";
layers = (
{
anchors = (
{
name = bottom;
position = "{376, -10}";
},
{
name = top;
position = "{452, 530}";
}
);
background = {
paths = (
{
closed = 1;
nodes = (
"237 494 OFFCURVE",
"136 450 OFFCURVE",
"136 375 CURVE SMOOTH",
"136 305 OFFCURVE",
"221 281 OFFCURVE",
"424 258 CURVE SMOOTH",
"658 232 OFFCURVE",
"771 218 OFFCURVE",
"771 119 CURVE SMOOTH",
"771 20 OFFCURVE",
"652 -20 OFFCURVE",
"491 -20 CURVE",
"319 -20 OFFCURVE",
"165 55 OFFCURVE",
"112 120 CURVE",
"134 120 LINE",
"134 0 LINE",
"109 0 LINE",
"109 158 LINE",
"185 64 OFFCURVE",
"343 3 OFFCURVE",
"492 3 CURVE",
"636 3 OFFCURVE",
"747 43 OFFCURVE",
"747 119 CURVE SMOOTH",
"747 196 OFFCURVE",
"652 209 OFFCURVE",
"423 234 CURVE SMOOTH",
"206 257 OFFCURVE",
"111 281 OFFCURVE",
"111 375 CURVE SMOOTH",
"111 466 OFFCURVE",
"211 517 OFFCURVE",
"368 517 CURVE",
"567 517 OFFCURVE",
"680 440 OFFCURVE",
"732 375 CURVE",
"711 375 LINE",
"711 490 LINE",
"736 490 LINE",
"736 338 LINE",
"659 431 OFFCURVE",
"543 494 OFFCURVE",
"366 494 CURVE"
);
}
);
};
layerId = "B29C398E-974A-40D0-A0A0-00935056D4B4";
name = "Light Extended";
paths = (
{
closed = 1;
nodes = (
"570 -10 OFFCURVE",
"675 33 OFFCURVE",
"691 122 CURVE SMOOTH",
"708 217 OFFCURVE",
"619 249 OFFCURVE",
"395 268 CURVE SMOOTH",
"187 286 OFFCURVE",
"122 315 OFFCURVE",
"134 384 CURVE SMOOTH",
"149 467 OFFCURVE",
"243 507 OFFCURVE",
"376 507 CURVE SMOOTH",
"534 507 OFFCURVE",
"628 445 OFFCURVE",
"692 345 CURVE",
"697 346 LINE",
"728 520 LINE",
"706 520 LINE",
"681 378 LINE",
"693 377 LINE",
"643 452 OFFCURVE",
"554 530 OFFCURVE",
"378 530 CURVE SMOOTH",
"225 530 OFFCURVE",
"127 480 OFFCURVE",
"111 388 CURVE SMOOTH",
"96 306 OFFCURVE",
"163 261 OFFCURVE",
"393 244 CURVE SMOOTH",
"604 228 OFFCURVE",
"682 202 OFFCURVE",
"669 126 CURVE SMOOTH",
"655 48 OFFCURVE",
"557 13 OFFCURVE",
"438 13 CURVE SMOOTH",
"297 13 OFFCURVE",
"144 72 OFFCURVE",
"76 176 CURVE",
"71 175 LINE",
"41 0 LINE",
"62 0 LINE",
"87 140 LINE",
"74 141 LINE",
"130 66 OFFCURVE",
"273 -10 OFFCURVE",
"437 -10 CURVE SMOOTH"
);
}
);
width = 806;
},
{
anchors = (
{
name = bottom;
position = "{215, -10}";
},
{
name = top;
position = "{291, 530}";
}
);
background = {
paths = (
{
closed = 0;
nodes = (
"337 13 LINE",
"253 13 OFFCURVE",
"145 64 OFFCURVE",
"59 178 CURVE",
"59 0 LINE",
"82 0 LINE",
"82 140 LINE",
"67 140 LINE",
"130 55 OFFCURVE",
"229 -10 OFFCURVE",
"337 -10 CURVE"
);
}
);
};
layerId = "543F9737-16F7-428D-9F96-2EBD9FC8D3B6";
name = Light;
paths = (
{
closed = 1;
nodes = (
"347 -10 OFFCURVE",
"421 43 OFFCURVE",
"434 117 CURVE SMOOTH",
"448 197 OFFCURVE",
"382 230 OFFCURVE",
"252 269 CURVE SMOOTH",
"138 304 OFFCURVE",
"78 337 OFFCURVE",
"90 404 CURVE SMOOTH",
"101 467 OFFCURVE",
"158 507 OFFCURVE",
"243 507 CURVE SMOOTH",
"330 507 OFFCURVE",
"401 463 OFFCURVE",
"447 362 CURVE",
"453 362 LINE",
"481 520 LINE",
"459 520 LINE",
"436 389 LINE",
"452 387 LINE",
"413 479 OFFCURVE",
"335 530 OFFCURVE",
"243 530 CURVE SMOOTH",
"145 530 OFFCURVE",
"80 480 OFFCURVE",
"67 406 CURVE SMOOTH",
"53 329 OFFCURVE",
"114 283 OFFCURVE",
"251 244 CURVE SMOOTH",
"368 210 OFFCURVE",
"422 182 OFFCURVE",
"412 121 CURVE SMOOTH",
"400 56 OFFCURVE",
"334 13 OFFCURVE",
"248 13 CURVE SMOOTH",
"152 13 OFFCURVE",
"71 62 OFFCURVE",
"28 158 CURVE",
"22 158 LINE",
"-6 0 LINE",
"16 0 LINE",
"39 131 LINE",
"23 133 LINE",
"58 46 OFFCURVE",
"148 -10 OFFCURVE",
"248 -10 CURVE SMOOTH"
);
}
);
width = 519;
},
{
anchors = (
{
name = bottom;
position = "{232, -10}";
},
{
name = top;
position = "{308, 530}";
}
);
layerId = "EB38A4D2-CD30-49BA-8E45-1F04A566FFE8";
name = Bold;
paths = (
{
closed = 1;
nodes = (
"382 -10 OFFCURVE",
"461 41 OFFCURVE",
"477 130 CURVE SMOOTH",
"495 235 OFFCURVE",
"414 283 OFFCURVE",
"308 313 CURVE SMOOTH",
"215 343 OFFCURVE",
"184 354 OFFCURVE",
"188 379 CURVE SMOOTH",
"194 413 OFFCURVE",
"226 434 OFFCURVE",
"271 434 CURVE SMOOTH",
"337 434 OFFCURVE",
"399 388 OFFCURVE",
"421 335 CURVE",
"487 336 LINE",
"520 520 LINE",
"416 520 LINE",
"396 405 LINE",
"449 397 LINE",
"411 471 OFFCURVE",
"354 530 OFFCURVE",
"256 530 CURVE SMOOTH",
"164 530 OFFCURVE",
"83 472 OFFCURVE",
"67 384 CURVE SMOOTH",
"53 300 OFFCURVE",
"92 238 OFFCURVE",
"205 208 CURVE SMOOTH",
"321 173 OFFCURVE",
"360 159 OFFCURVE",
"355 131 CURVE SMOOTH",
"350 101 OFFCURVE",
"321 84 OFFCURVE",
"283 84 CURVE SMOOTH",
"221 84 OFFCURVE",
"143 125 OFFCURVE",
"103 191 CURVE",
"32 190 LINE",
"-1 1 LINE",
"103 1 LINE",
"123 114 LINE",
"63 124 LINE",
"118 53 OFFCURVE",
"182 -10 OFFCURVE",
"288 -10 CURVE SMOOTH"
);
}
);
width = 553;
}
);
leftKerningGroup = S;
rightKerningGroup = S;
unicode = 0053;
},
{
glyphname = Germandbls;
lastChange = "2015-11-11 18:41:44 +0000";
layers = (
{
layerId = "B29C398E-974A-40D0-A0A0-00935056D4B4";
name = "Light Extended";
paths = (
{
closed = 1;
nodes = (
"309 0 LINE",
"331 130 LINE",
"318 131 LINE",
"374 56 OFFCURVE",
"474 -20 OFFCURVE",
"605 -20 CURVE SMOOTH",
"700 -20 OFFCURVE",
"782 23 OFFCURVE",
"795 96 CURVE SMOOTH",
"810 181 OFFCURVE",
"727 234 OFFCURVE",
"489 253 CURVE",
"835 499 LINE",
"825 518 LINE",
"438 238 LINE",
"733 215 OFFCURVE",
"783 161 OFFCURVE",
"773 100 CURVE SMOOTH",
"762 38 OFFCURVE",
"687 3 OFFCURVE",
"606 3 CURVE SMOOTH",
"499 3 OFFCURVE",
"393 60 OFFCURVE",
"320 164 CURVE",
"315 163 LINE",
"287 0 LINE"
);
},
{
closed = 1;
nodes = (
"284 532 OFFCURVE",
"188 444 OFFCURVE",
"163 301 CURVE SMOOTH",
"114 23 LINE",
"-59 23 LINE",
"-63 0 LINE",
"134 0 LINE",
"187 301 LINE SMOOTH",
"209 428 OFFCURVE",
"298 509 OFFCURVE",
"428 509 CURVE SMOOTH",
"542 509 OFFCURVE",
"613 442 OFFCURVE",
"664 386 CURVE",
"684 399 LINE",
"631 457 OFFCURVE",
"548 532 OFFCURVE",
"430 532 CURVE SMOOTH"
);
}
);
width = 888;
},
{
background = {
paths = (
{
closed = 1;
nodes = (
"495 238 LINE",
"810 215 OFFCURVE",
"874 160 OFFCURVE",
"874 98 CURVE SMOOTH",
"874 37 OFFCURVE",
"803 3 OFFCURVE",
"719 3 CURVE SMOOTH",
"605 3 OFFCURVE",
"477 64 OFFCURVE",
"381 168 CURVE",
"381 0 LINE",
"404 0 LINE",
"404 130 LINE",
"389 130 LINE",
"462 55 OFFCURVE",
"581 -20 OFFCURVE",
"718 -20 CURVE SMOOTH",
"819 -20 OFFCURVE",
"898 24 OFFCURVE",
"898 98 CURVE SMOOTH",
"898 182 OFFCURVE",
"802 234 OFFCURVE",
"548 253 CURVE",
"866 499 LINE",
"853 518 LINE"
);
},
{
closed = 1;
nodes = (
"212 0 LINE",
"212 23 LINE",
"13 23 LINE",
"13 0 LINE"
);
},
{
closed = 1;
nodes = (
"725 400 LINE",
"660 458 OFFCURVE",
"568 518 OFFCURVE",
"445 518 CURVE SMOOTH",
"290 518 OFFCURVE",
"195 424 OFFCURVE",
"195 286 CURVE SMOOTH",
"195 0 LINE",
"220 0 LINE",
"220 288 LINE SMOOTH",
"220 410 OFFCURVE",
"307 495 OFFCURVE",
"443 495 CURVE SMOOTH",
"564 495 OFFCURVE",
"641 441 OFFCURVE",
"706 385 CURVE"
);
}
);
};
layerId = "543F9737-16F7-428D-9F96-2EBD9FC8D3B6";
name = Light;
paths = (
{
closed = 1;
nodes = (
"175 0 LINE",
"194 111 LINE",
"180 123 LINE",
"206 39 OFFCURVE",
"273 -10 OFFCURVE",
"349 -10 CURVE SMOOTH",
"425 -10 OFFCURVE",
"493 38 OFFCURVE",
"505 107 CURVE SMOOTH",
"518 182 OFFCURVE",
"466 232 OFFCURVE",
"323 262 CURVE",
"549 513 LINE",
"534 525 LINE",
"288 248 LINE",
"455 215 OFFCURVE",
"493 167 OFFCURVE",
"483 111 CURVE SMOOTH",
"473 53 OFFCURVE",
"411 13 OFFCURVE",
"350 13 CURVE SMOOTH",
"278 13 OFFCURVE",
"220 60 OFFCURVE",
"184 148 CURVE",
"179 148 LINE",
"153 0 LINE"
);
},
{
closed = 1;
nodes = (
"198 532 OFFCURVE",
"127 467 OFFCURVE",
"107 354 CURVE SMOOTH",
"48 23 LINE",
"-59 23 LINE",
"-63 0 LINE",
"68 0 LINE",
"131 354 LINE SMOOTH",
"149 456 OFFCURVE",
"214 509 OFFCURVE",
"288 509 CURVE SMOOTH",
"347 509 OFFCURVE",
"403 479 OFFCURVE",
"456 415 CURVE",
"473 431 LINE",
"418 497 OFFCURVE",
"359 532 OFFCURVE",
"288 532 CURVE SMOOTH"
);
}
);
width = 578;
},
{
layerId = "EB38A4D2-CD30-49BA-8E45-1F04A566FFE8";
name = Bold;
paths = (
{
closed = 1;
nodes = (
"290 0 LINE",
"310 118 LINE",
"261 126 LINE",
"304 30 OFFCURVE",
"340 -10 OFFCURVE",
"420 -10 CURVE SMOOTH",
"500 -10 OFFCURVE",
"585 46 OFFCURVE",
"602 138 CURVE SMOOTH",
"618 233 OFFCURVE",
"561 294 OFFCURVE",
"511 343 CURVE",
"650 492 LINE",
"584 557 LINE",
"354 299 LINE",
"482 230 OFFCURVE",
"488 182 OFFCURVE",
"483 154 CURVE SMOOTH",
"476 115 OFFCURVE",
"441 84 OFFCURVE",
"400 84 CURVE SMOOTH",
"363 84 OFFCURVE",
"317 113 OFFCURVE",
"289 193 CURVE",
"219 192 LINE",
"185 0 LINE"
);
},
{
closed = 1;
nodes = (
"190 536 OFFCURVE",
"98 471 OFFCURVE",
"72 322 CURVE SMOOTH",
"32 96 LINE",
"-40 96 LINE",
"-57 0 LINE",
"130 0 LINE",
"186 316 LINE SMOOTH",
"200 398 OFFCURVE",
"251 434 OFFCURVE",
"315 434 CURVE SMOOTH",
"378 434 OFFCURVE",
"426 398 OFFCURVE",
"474 344 CURVE",
"544 411 LINE",
"469 493 OFFCURVE",
"401 536 OFFCURVE",
"316 536 CURVE SMOOTH"
);
}
);
width = 663;
}
);
leftKerningGroup = Germandbls;
rightKerningGroup = Germandbls;
unicode = 1E9E;
},
{
glyphname = T;
lastChange = "2015-11-11 18:41:44 +0000";
layers = (
{
anchors = (
{
name = bottom;
position = "{347, 0}";
},
{
name = center;
position = "{390, 245}";
},
{
name = top;
position = "{438, 520}";
}
);
layerId = "B29C398E-974A-40D0-A0A0-00935056D4B4";
name = "Light Extended";
paths = (
{
closed = 1;
nodes = (
"77 337 LINE",
"105 497 LINE",
"762 497 LINE",
"734 337 LINE",
"757 337 LINE",
"790 520 LINE",
"86 520 LINE",
"53 337 LINE"
);
},
{
closed = 1;
nodes = (
"540 0 LINE",
"544 23 LINE",
"156 23 LINE",
"152 0 LINE"
);
},
{
closed = 1;
nodes = (
"360 13 LINE",
"447 507 LINE",
"424 507 LINE",
"336 13 LINE"
);
}
);
width = 818;
},
{
anchors = (
{
name = bottom;
position = "{194, 0}";
},
{
name = center;
position = "{237, 245}";
},
{
name = top;
position = "{280, 490}";
}
);
layerId = "543F9737-16F7-428D-9F96-2EBD9FC8D3B6";
name = Light;
paths = (
{
closed = 1;
nodes = (
"52 384 LINE",
"72 497 LINE",
"499 497 LINE",
"479 384 LINE",
"503 384 LINE",
"527 520 LINE",
"52 520 LINE",
"29 384 LINE"
);
},
{
closed = 1;
nodes = (
"322 0 LINE",
"326 23 LINE",
"78 23 LINE",
"74 0 LINE"
);
},
{
closed = 1;
nodes = (
"212 13 LINE",
"299 507 LINE",
"275 507 LINE",
"188 13 LINE"
);
}
);
width = 522;
},
{
anchors = (
{
name = bottom;
position = "{214, 0}";
},
{
name = center;
position = "{257, 245}";
},
{
name = top;
position = "{306, 527}";
}
);
layerId = "EB38A4D2-CD30-49BA-8E45-1F04A566FFE8";
name = Bold;
paths = (
{
closed = 1;
nodes = (
"108 320 LINE",
"127 424 LINE",
"452 424 LINE",
"433 320 LINE",
"536 320 LINE",
"571 520 LINE",
"41 520 LINE",
"6 320 LINE"
);
},
{
closed = 1;
nodes = (
"351 0 LINE",
"368 96 LINE",
"94 96 LINE",
"77 0 LINE"
);
},
{
closed = 1;
nodes = (
"283 62 LINE",
"355 467 LINE",
"239 467 LINE",
"167 62 LINE"
);
}
);
width = 555;
}
);
leftKerningGroup = T;
rightKerningGroup = T;
unicode = 0054;
},
{
glyphname = U;
lastChange = "2015-11-11 18:41:44 +0000";
layers = (
{
anchors = (
{
name = bottom;
position = "{425, -10}";
},
{
name = ogonek;
position = "{434, -9}";
},
{
name = top;
position = "{514, 490}";
},
{
name = topright;
position = "{980, 490}";
}
);
background = {
paths = (
{
closed = 1;
nodes = (
"850 160 LINE SMOOTH",
"850 133 OFFCURVE",
"842 108 OFFCURVE",
"825 85 CURVE SMOOTH",
"801 51 OFFCURVE",
"760 22 OFFCURVE",
"708 1 CURVE SMOOTH",
"657 -19 OFFCURVE",
"596 -31 OFFCURVE",
"533 -31 CURVE SMOOTH",
"455 -31 OFFCURVE",
"377 -10 OFFCURVE",
"320 25 CURVE SMOOTH",
"291 41 OFFCURVE",
"267 62 OFFCURVE",
"251 85 CURVE SMOOTH",
"235 108 OFFCURVE",
"227 133 OFFCURVE",
"226 160 CURVE",
"226 477 LINE",
"201 477 LINE",
"201 160 LINE SMOOTH",
"201 127 OFFCURVE",
"211 97 OFFCURVE",
"230 70 CURVE SMOOTH",
"258 31 OFFCURVE",
"303 -1 OFFCURVE",
"356 -22 CURVE SMOOTH",
"410 -44 OFFCURVE",
"471 -57 OFFCURVE",
"533 -57 CURVE SMOOTH",
"621 -57 OFFCURVE",
"705 -35 OFFCURVE",
"769 2 CURVE SMOOTH",
"801 21 OFFCURVE",
"828 43 OFFCURVE",
"846 70 CURVE SMOOTH",
"866 97 OFFCURVE",
"876 127 OFFCURVE",
"876 160 CURVE SMOOTH",
"876 477 LINE",
"850 477 LINE"
);
},
{
closed = 1;
nodes = (
"424 464 LINE",
"424 490 LINE",
"-11 490 LINE",
"-11 464 LINE"
);
},
{
closed = 1;
nodes = (
"1086 464 LINE",
"1086 490 LINE",
"651 490 LINE",
"651 464 LINE"
);
}
);
};
layerId = "B29C398E-974A-40D0-A0A0-00935056D4B4";
name = "Light Extended";
paths = (
{
closed = 1;
nodes = (
"610 -10 OFFCURVE",
"743 78 OFFCURVE",
"774 253 CURVE SMOOTH",
"819 507 LINE",
"798 507 LINE",
"748 243 LINE SMOOTH",
"720 90 OFFCURVE",
"594 13 OFFCURVE",
"428 13 CURVE",
"262 13 OFFCURVE",
"165 88 OFFCURVE",
"191 242 CURVE SMOOTH",
"234 507 LINE",
"214 507 LINE",
"169 255 LINE SMOOTH",
"138 80 OFFCURVE",
"243 -10 OFFCURVE",
"427 -10 CURVE"
);
},
{
closed = 1;
nodes = (
"406 497 LINE",
"410 520 LINE",
"43 520 LINE",
"39 497 LINE"
);
},
{
closed = 1;
nodes = (
"990 497 LINE",
"994 520 LINE",
"627 520 LINE",
"623 497 LINE"
);
}
);
width = 979;
},
{
anchors = (
{
name = bottom;
position = "{255, -10}";
},
{
name = ogonek;
position = "{264, -9}";
},
{
name = top;
position = "{348, 490}";
},
{
name = topright;
position = "{649, 490}";
}
);
background = {
paths = (
{
closed = 1;
nodes = (
"533 242 LINE",
"533 265 LINE",
"137 265 LINE",
"137 242 LINE"
);
},
{
closed = 1;
nodes = (
"246 0 LINE",
"246 23 LINE",
"5 23 LINE",
"5 0 LINE"
);
},
{
closed = 1;
nodes = (
"142 13 LINE",
"142 509 LINE",
"118 509 LINE",
"118 13 LINE"
);
},
{
closed = 1;
nodes = (
"246 497 LINE",
"246 520 LINE",
"5 520 LINE",
"5 497 LINE"
);
},
{
closed = 1;
nodes = (
"664 0 LINE",
"664 23 LINE",
"423 23 LINE",
"423 0 LINE"
);
},
{
closed = 1;
nodes = (
"552 13 LINE",
"552 509 LINE",
"527 509 LINE",
"527 13 LINE"
);
},
{
closed = 1;
nodes = (
"664 497 LINE",
"664 520 LINE",
"423 520 LINE",
"423 497 LINE"
);
}
);
};
layerId = "543F9737-16F7-428D-9F96-2EBD9FC8D3B6";
name = Light;
paths = (
{
closed = 1;
nodes = (
"387 -10 OFFCURVE",
"478 78 OFFCURVE",
"498 193 CURVE SMOOTH",
"554 507 LINE",
"529 507 LINE",
"473 190 LINE SMOOTH",
"455 90 OFFCURVE",
"369 13 OFFCURVE",
"258 13 CURVE SMOOTH",
"147 13 OFFCURVE",
"89 88 OFFCURVE",
"107 189 CURVE SMOOTH",
"163 507 LINE",
"139 507 LINE",
"84 195 LINE SMOOTH",
"63 80 OFFCURVE",
"125 -10 OFFCURVE",
"257 -10 CURVE SMOOTH"
);
},
{
closed = 1;
nodes = (
"269 497 LINE",
"273 520 LINE",
"33 520 LINE",
"29 497 LINE"
);
},
{
closed = 1;
nodes = (
"659 497 LINE",
"663 520 LINE",
"424 520 LINE",
"420 497 LINE"
);
}
);
width = 639;
},
{
anchors = (
{
name = bottom;
position = "{256, -10}";
},
{
name = ogonek;
position = "{265, -9}";
},
{
name = top;
position = "{349, 520}";
},
{
name = topright;
position = "{648, 490}";
}
);
layerId = "EB38A4D2-CD30-49BA-8E45-1F04A566FFE8";
name = Bold;
paths = (
{
closed = 1;
nodes = (
"389 -10 OFFCURVE",
"503 75 OFFCURVE",
"526 202 CURVE SMOOTH",
"572 468 LINE",
"457 468 LINE",
"415 219 LINE SMOOTH",
"401 144 OFFCURVE",
"336 91 OFFCURVE",
"266 91 CURVE SMOOTH",
"202 91 OFFCURVE",
"163 135 OFFCURVE",
"176 209 CURVE SMOOTH",
"223 468 LINE",
"105 468 LINE",
"60 210 LINE SMOOTH",
"37 83 OFFCURVE",
"120 -10 OFFCURVE",
"261 -10 CURVE SMOOTH"
);
},
{
closed = 1;
nodes = (
"291 424 LINE",
"308 520 LINE",
"33 520 LINE",
"17 424 LINE"
);
},
{
closed = 1;
nodes = (
"645 424 LINE",
"661 520 LINE",
"390 520 LINE",
"373 424 LINE"
);
}
);
width = 637;
}
);
leftKerningGroup = U;
rightKerningGroup = U;
unicode = 0055;
},
{
color = 0;
glyphname = V;
lastChange = "2015-11-11 18:41:44 +0000";
layers = (
{
anchors = (
{
name = bottom;
position = "{386, -10}";
},
{
name = top;
position = "{474, 490}";
}
);
layerId = "B29C398E-974A-40D0-A0A0-00935056D4B4";
name = "Light Extended";
paths = (
{
closed = 1;
nodes = (
"29 520 LINE",
"25 497 LINE",
"345 497 LINE",
"349 520 LINE"
);
},
{
closed = 1;
nodes = (
"607 520 LINE",
"603 497 LINE",
"923 497 LINE",
"927 520 LINE"
);
},
{
closed = 1;
nodes = (
"387 -10 LINE",
"779 507 LINE",
"751 507 LINE",
"391 28 LINE",
"203 507 LINE",
"174 507 LINE",
"382 -10 LINE"
);
}
);
width = 899;
},
{
anchors = (
{
name = bottom;
position = "{244, 0}";
},
{
name = top;
position = "{330, 490}";
}
);
layerId = "543F9737-16F7-428D-9F96-2EBD9FC8D3B6";
name = Light;
paths = (
{
closed = 1;
nodes = (
"29 520 LINE",
"25 497 LINE",
"240 497 LINE",
"244 520 LINE"
);
},
{
closed = 1;
nodes = (
"417 520 LINE",
"413 497 LINE",
"638 497 LINE",
"642 520 LINE"
);
},
{
closed = 1;
nodes = (
"246 -10 LINE",
"551 507 LINE",
"523 507 LINE",
"251 40 LINE",
"144 507 LINE",
"117 507 LINE",
"238 -10 LINE"
);
}
);
width = 614;
},
{
anchors = (
{
name = bottom;
position = "{259, 0}";
},
{
name = top;
position = "{346, 490}";
}
);
layerId = "EB38A4D2-CD30-49BA-8E45-1F04A566FFE8";
name = Bold;
paths = (
{
closed = 1;
nodes = (
"29 520 LINE",
"12 424 LINE",
"274 424 LINE",
"291 520 LINE"
);
},
{
closed = 1;
nodes = (
"413 520 LINE",
"397 424 LINE",
"657 424 LINE",
"674 520 LINE"
);
},
{
closed = 1;
nodes = (
"289 -10 LINE",
"635 507 LINE",
"518 507 LINE",
"286 144 LINE",
"184 507 LINE",
"64 507 LINE",
"228 -10 LINE"
);
}
);
width = 645;
}
);
leftKerningGroup = V;
rightKerningGroup = V;
unicode = 0056;
},
{
color = 0;
glyphname = W;
lastChange = "2015-11-11 18:41:44 +0000";
layers = (
{
anchors = (
{
name = bottom;
position = "{538, 0}";
},
{
name = top;
position = "{630, 520}";
}
);
background = {
paths = (
{
closed = 1;
nodes = (
"762 477 LINE",
"454 13 LINE",
"186 477 LINE",
"157 477 LINE",
"451 -31 LINE",
"789 477 LINE"
);
},
{
closed = 1;
nodes = (
"0 490 LINE",
"0 468 LINE",
"323 468 LINE",
"323 490 LINE"
);
},
{
closed = 1;
nodes = (
"397 490 LINE",
"397 468 LINE",
"867 468 LINE",
"867 490 LINE"
);
},
{
closed = 1;
nodes = (
"1084 477 LINE",
"815 13 LINE",
"507 477 LINE",
"479 477 LINE",
"815 -31 LINE",
"1109 477 LINE"
);
},
{
closed = 1;
nodes = (
"943 490 LINE",
"943 468 LINE",
"1266 468 LINE",
"1266 490 LINE"
);
}
);
};
layerId = "B29C398E-974A-40D0-A0A0-00935056D4B4";
name = "Light Extended";
paths = (
{
closed = 1;
nodes = (
"368 -10 LINE",
"776 507 LINE",
"750 507 LINE",
"372 28 LINE",
"203 507 LINE",
"176 507 LINE",
"361 -10 LINE"
);
},
{
closed = 1;
nodes = (
"332 498 LINE",
"336 520 LINE",
"29 520 LINE",
"25 498 LINE"
);
},
{
closed = 1;
nodes = (
"712 -10 LINE",
"1080 507 LINE",
"1056 507 LINE",
"715 28 LINE",
"508 507 LINE",
"481 507 LINE",
"706 -10 LINE"
);
},
{
closed = 1;
nodes = (
"849 498 LINE",
"852 520 LINE",
"406 520 LINE",
"402 498 LINE"
);
},
{
closed = 1;
nodes = (
"1228 498 LINE",
"1231 520 LINE",
"925 520 LINE",
"921 498 LINE"
);
}
);
width = 1203;
},
{
anchors = (
{
name = bottom;
position = "{373, 0}";
},
{
name = top;
position = "{465, 520}";
}
);
background = {
anchors = (
{
name = top;
position = "{462, 520}";
}
);
};
layerId = "543F9737-16F7-428D-9F96-2EBD9FC8D3B6";
name = Light;
paths = (
{
closed = 1;
nodes = (
"227 -10 LINE",
"570 507 LINE",
"545 507 LINE",
"235 40 LINE",
"163 507 LINE",
"136 507 LINE",
"219 -10 LINE"
);
},
{
closed = 1;
nodes = (
"259 497 LINE",
"263 520 LINE",
"48 520 LINE",
"44 497 LINE"
);
},
{
closed = 1;
nodes = (
"517 -10 LINE",
"784 507 LINE",
"758 507 LINE",
"520 40 LINE",
"377 507 LINE",
"349 507 LINE",
"509 -10 LINE"
);
},
{
closed = 1;
nodes = (
"624 497 LINE",
"628 520 LINE",
"290 520 LINE",
"286 497 LINE"
);
},
{
closed = 1;
nodes = (
"871 497 LINE",
"875 520 LINE",
"650 520 LINE",
"646 497 LINE"
);
}
);
width = 865;
},
{
anchors = (
{
name = bottom;
position = "{350, 0}";
},
{
name = top;
position = "{442, 520}";
}
);
layerId = "EB38A4D2-CD30-49BA-8E45-1F04A566FFE8";
name = Bold;
paths = (
{
closed = 1;
nodes = (
"237 -10 LINE",
"556 507 LINE",
"445 507 LINE",
"242 149 LINE",
"172 507 LINE",
"48 507 LINE",
"176 -10 LINE"
);
},
{
closed = 1;
nodes = (
"252 424 LINE",
"269 520 LINE",
"31 520 LINE",
"14 424 LINE"
);
},
{
closed = 1;
nodes = (
"524 -10 LINE",
"859 507 LINE",
"748 507 LINE",
"529 149 LINE",
"466 432 LINE",
"391 294 LINE",
"463 -10 LINE"
);
},
{
closed = 1;
nodes = (
"554 424 LINE",
"571 520 LINE",
"337 520 LINE",
"320 424 LINE"
);
},
{
closed = 1;
nodes = (
"862 424 LINE",
"879 520 LINE",
"619 520 LINE",
"602 424 LINE"
);
}
);
width = 851;
}
);
leftKerningGroup = W;
rightKerningGroup = W;
unicode = 0057;
},
{
color = 0;
glyphname = X;
lastChange = "2015-11-11 18:41:44 +0000";
layers = (
{
anchors = (
{
name = bottom;
position = "{374, 0}";
},
{
name = top;
position = "{460, 490}";
}
);
layerId = "B29C398E-974A-40D0-A0A0-00935056D4B4";
name = "Light Extended";
paths = (
{
closed = 1;
nodes = (
"783 0 LINE",
"787 23 LINE",
"467 23 LINE",
"463 0 LINE"
);
},
{
closed = 1;
nodes = (
"285 0 LINE",
"289 23 LINE",
"-30 23 LINE",
"-34 0 LINE"
);
},
{
closed = 1;
nodes = (
"646 12 LINE",
"431 261 LINE",
"428 261 LINE",
"215 507 LINE",
"180 507 LINE",
"407 246 LINE",
"410 246 LINE",
"611 12 LINE"
);
},
{
closed = 1;
nodes = (
"142 12 LINE",
"425 246 LINE",
"428 246 LINE",
"747 507 LINE",
"713 507 LINE",
"414 261 LINE",
"412 261 LINE",
"108 12 LINE"
);
},
{
closed = 1;
nodes = (
"373 497 LINE",
"377 520 LINE SMOOTH",
"57 520 LINE",
"53 497 LINE"
);
},
{
closed = 1;
nodes = (
"870 497 LINE",
"874 520 LINE",
"554 520 LINE SMOOTH",
"550 497 LINE"
);
}
);
width = 874;
},
{
anchors = (
{
name = bottom;
position = "{227, 0}";
},
{
name = top;
position = "{313, 490}";
}
);
background = {
anchors = (
{
name = bottom;
position = "{310, 0}";
},
{
name = top;
position = "{310, 490}";
}
);
paths = (
{
closed = 1;
nodes = (
"509 12 LINE",
"119 507 LINE",
"82 507 LINE",
"472 12 LINE"
);
},
{
closed = 1;
nodes = (
"236 0 LINE",
"236 23 LINE",
"0 23 LINE",
"0 0 LINE"
);
},
{
closed = 1;
nodes = (
"605 0 LINE",
"605 23 LINE",
"369 23 LINE",
"369 0 LINE"
);
},
{
closed = 1;
nodes = (
"133 12 LINE",
"310 240 LINE",
"314 240 LINE",
"523 507 LINE",
"488 507 LINE",
"299 263 LINE",
"295 263 LINE",
"98 12 LINE"
);
},
{
closed = 1;
nodes = (
"237 497 LINE",
"237 520 LINE SMOOTH",
"0 520 LINE",
"0 497 LINE"
);
},
{
closed = 1;
nodes = (
"605 497 LINE",
"605 520 LINE",
"368 520 LINE SMOOTH",
"368 497 LINE"
);
}
);
};
layerId = "543F9737-16F7-428D-9F96-2EBD9FC8D3B6";
name = Light;
paths = (
{
closed = 1;
nodes = (
"512 0 LINE",
"516 23 LINE",
"292 23 LINE",
"288 0 LINE"
);
},
{
closed = 1;
nodes = (
"161 0 LINE",
"165 23 LINE",
"-59 23 LINE",
"-63 0 LINE"
);
},
{
closed = 1;
nodes = (
"423 12 LINE",
"282 263 LINE",
"278 263 LINE",
"139 507 LINE",
"104 507 LINE",
"256 240 LINE",
"260 240 LINE",
"388 12 LINE"
);
},
{
closed = 1;
nodes = (
"66 12 LINE",
"277 239 LINE",
"281 245 LINE",
"523 507 LINE",
"490 507 LINE",
"264 264 LINE",
"259 258 LINE",
"32 12 LINE"
);
},
{
closed = 1;
nodes = (
"250 497 LINE",
"254 520 LINE SMOOTH",
"29 520 LINE",
"25 497 LINE"
);
},
{
closed = 1;
nodes = (
"599 497 LINE",
"603 520 LINE",
"378 520 LINE SMOOTH",
"374 497 LINE"
);
}
);
width = 575;
},
{
anchors = (
{
name = bottom;
position = "{238, 0}";
},
{
name = top;
position = "{325, 490}";
}
);
layerId = "EB38A4D2-CD30-49BA-8E45-1F04A566FFE8";
name = Bold;
paths = (
{
closed = 1;
nodes = (
"530 0 LINE",
"547 96 LINE",
"291 96 LINE",
"274 0 LINE"
);
},
{
closed = 1;
nodes = (
"204 0 LINE",
"221 96 LINE",
"-35 96 LINE",
"-52 0 LINE"
);
},
{
closed = 1;
nodes = (
"515 79 LINE",
"342 292 LINE",
"330 292 LINE",
"214 442 LINE",
"58 442 LINE",
"234 225 LINE",
"247 225 LINE",
"359 79 LINE"
);
},
{
closed = 1;
nodes = (
"131 79 LINE",
"303 233 LINE",
"320 232 LINE",
"564 442 LINE",
"429 442 LINE",
"270 299 LINE",
"252 301 LINE",
"-4 79 LINE"
);
},
{
closed = 1;
nodes = (
"280 424 LINE",
"297 520 LINE SMOOTH",
"40 520 LINE",
"23 424 LINE"
);
},
{
closed = 1;
nodes = (
"605 424 LINE",
"622 520 LINE",
"365 520 LINE SMOOTH",
"348 424 LINE"
);
}
);
width = 604;
}
);
leftKerningGroup = X;
rightKerningGroup = X;
unicode = 0058;
},
{
color = 0;
glyphname = Y;
lastChange = "2015-11-11 18:41:44 +0000";
layers = (
{
anchors = (
{
name = bottom;
position = "{373, 0}";
},
{
name = top;
position = "{460, 490}";
}
);
background = {
paths = (
{
closed = 1;
nodes = (
"320 18 LINE",
"115 18 LINE",
"115 0 LINE",
"338 0 LINE",
"338 106 LINE",
"320 106 LINE"
);
},
{
closed = 1;
nodes = (
"546 0 LINE",
"546 18 LINE",
"328 18 LINE",
"328 0 LINE"
);
},
{
closed = 1;
nodes = (
"515 350 LINE",
"322 112 LINE",
"336 100 LINE",
"523 332 LINE",
"694 332 LINE",
"694 350 LINE"
);
},
{
closed = 1;
nodes = (
"144 350 LINE",
"-36 350 LINE",
"-36 332 LINE",
"135 332 LINE",
"323 100 LINE",
"337 112 LINE"
);
}
);
};
layerId = "B29C398E-974A-40D0-A0A0-00935056D4B4";
name = "Light Extended";
paths = (
{
closed = 1;
nodes = (
"413 178 LINE",
"751 508 LINE",
"720 508 LINE",
"409 206 LINE",
"209 505 LINE",
"175 505 LINE",
"396 178 LINE"
);
},
{
closed = 1;
nodes = (
"558 0 LINE",
"562 23 LINE",
"193 23 LINE",
"189 0 LINE"
);
},
{
closed = 1;
nodes = (
"385 0 LINE",
"421 204 LINE",
"398 204 LINE",
"362 0 LINE"
);
},
{
closed = 1;
nodes = (
"349 497 LINE",
"353 520 LINE",
"33 520 LINE",
"28 497 LINE"
);
},
{
closed = 1;
nodes = (
"893 497 LINE",
"897 520 LINE",
"578 520 LINE",
"574 497 LINE"
);
}
);
width = 872;
},
{
anchors = (
{
name = bottom;
position = "{231, 0}";
},
{
name = top;
position = "{317, 490}";
}
);
layerId = "543F9737-16F7-428D-9F96-2EBD9FC8D3B6";
name = Light;
paths = (
{
closed = 1;
nodes = (
"271 178 LINE",
"530 510 LINE",
"504 510 LINE",
"268 207 LINE",
"138 511 LINE",
"111 511 LINE",
"254 178 LINE"
);
},
{
closed = 1;
nodes = (
"356 0 LINE",
"360 23 LINE",
"112 23 LINE",
"108 0 LINE"
);
},
{
closed = 1;
nodes = (
"244 0 LINE",
"280 204 LINE",
"256 204 LINE",
"220 0 LINE"
);
},
{
closed = 1;
nodes = (
"245 497 LINE",
"249 520 LINE",
"33 520 LINE",
"29 497 LINE"
);
},
{
closed = 1;
nodes = (
"609 497 LINE",
"613 520 LINE",
"398 520 LINE",
"394 497 LINE"
);
}
);
width = 589;
},
{
anchors = (
{
name = bottom;
position = "{234, 0}";
},
{
name = top;
position = "{326, 520}";
}
);
layerId = "EB38A4D2-CD30-49BA-8E45-1F04A566FFE8";
name = Bold;
paths = (
{
closed = 1;
nodes = (
"294 174 LINE",
"559 449 LINE",
"429 449 LINE",
"288 290 LINE",
"198 450 LINE",
"62 450 LINE",
"235 174 LINE"
);
},
{
closed = 1;
nodes = (
"374 0 LINE",
"391 96 LINE",
"110 96 LINE",
"93 0 LINE"
);
},
{
closed = 1;
nodes = (
"301 50 LINE",
"336 250 LINE",
"219 250 LINE",
"183 50 LINE"
);
},
{
closed = 1;
nodes = (
"248 424 LINE",
"265 520 LINE",
"38 520 LINE",
"21 424 LINE"
);
},
{
closed = 1;
nodes = (
"594 424 LINE",
"611 520 LINE",
"384 520 LINE",
"367 424 LINE"
);
}
);
width = 592;
}
);
leftKerningGroup = Y;
rightKerningGroup = Y;
unicode = 0059;
},
{
glyphname = Z;
lastChange = "2015-11-11 18:41:44 +0000";
layers = (
{
anchors = (
{
name = bottom;
position = "{340, 0}";
},
{
name = top;
position = "{432, 520}";
}
);
layerId = "B29C398E-974A-40D0-A0A0-00935056D4B4";
name = "Light Extended";
paths = (
{
closed = 1;
nodes = (
"652 0 LINE",
"685 183 LINE",
"661 183 LINE",
"633 23 LINE",
"100 23 LINE",
"71 20 LINE",
"71 21 LINE",
"101 32 LINE",
"738 507 LINE",
"740 520 LINE",
"119 520 LINE",
"87 337 LINE",
"110 337 LINE",
"139 497 LINE",
"671 497 LINE",
"700 500 LINE",
"700 499 LINE",
"669 488 LINE",
"32 13 LINE",
"30 0 LINE"
);
}
);
width = 801;
},
{
anchors = (
{
name = bottom;
position = "{195, 0}";
},
{
name = top;
position = "{287, 520}";
}
);
layerId = "543F9737-16F7-428D-9F96-2EBD9FC8D3B6";
name = Light;
paths = (
{
closed = 1;
nodes = (
"401 0 LINE",
"425 136 LINE",
"401 136 LINE",
"381 23 LINE",
"29 23 LINE",
"9 20 LINE",
"9 21 LINE",
"30 32 LINE",
"486 507 LINE",
"489 520 LINE",
"67 520 LINE",
"43 384 LINE",
"67 384 LINE",
"86 497 LINE",
"438 497 LINE",
"457 500 LINE",
"457 499 LINE",
"436 488 LINE",
"-20 13 LINE",
"-22 0 LINE"
);
}
);
width = 492;
},
{
anchors = (
{
name = bottom;
position = "{237, 0}";
},
{
name = top;
position = "{329, 520}";
}
);
layerId = "EB38A4D2-CD30-49BA-8E45-1F04A566FFE8";
name = Bold;
paths = (
{
closed = 1;
nodes = (
"456 0 LINE",
"491 200 LINE",
"388 200 LINE",
"370 96 LINE",
"75 96 LINE",
"28 31 LINE",
"33 21 LINE",
"89 32 LINE",
"529 434 LINE",
"544 520 LINE",
"78 520 LINE",
"43 320 LINE",
"145 320 LINE",
"164 424 LINE",
"458 424 LINE",
"505 493 LINE",
"500 499 LINE",
"444 488 LINE",
"4 86 LINE",
"-11 0 LINE"
);
}
);
width = 565;
}
);
leftKerningGroup = Z;
rightKerningGroup = Z;
unicode = 005A;
},
{
glyphname = a;
lastChange = "2015-11-11 18:41:44 +0000";
layers = (
{
anchors = (
{
name = bottom;
position = "{198, -10}";
},
{
name = ogonek;
position = "{683, 19}";
},
{
name = top;
position = "{357, 367}";
}
);
background = {
paths = (
{
closed = 1;
nodes = (
"637 98 LINE",
"637 32 OFFCURVE",
"684 -16 OFFCURVE",
"747 -16 CURVE SMOOTH",
"837 -16 OFFCURVE",
"865 63 OFFCURVE",
"865 116 CURVE",
"840 116 LINE",
"840 60 OFFCURVE",
"813 8 OFFCURVE",
"749 8 CURVE SMOOTH",
"703 8 OFFCURVE",
"661 43 OFFCURVE",
"661 98 CURVE",
"661 207 LINE",
"661 307 OFFCURVE",
"604 377 OFFCURVE",
"460 377 CURVE",
"347 377 OFFCURVE",
"234 364 OFFCURVE",
"109 336 CURVE",
"109 310 LINE",
"235 339 OFFCURVE",
"347 353 OFFCURVE",
"460 353 CURVE",
"591 353 OFFCURVE",
"637 291 OFFCURVE",
"637 207 CURVE"
);
},
{
closed = 1;
nodes = (
"80 15 OFFCURVE",
"154 -20 OFFCURVE",
"254 -20 CURVE",
"383 -20 OFFCURVE",
"525 22 OFFCURVE",
"647 77 CURVE",
"647 100 LINE",
"520 46 OFFCURVE",
"381 4 OFFCURVE",
"254 4 CURVE",
"169 4 OFFCURVE",
"105 32 OFFCURVE",
"105 99 CURVE",
"105 167 OFFCURVE",
"196 205 OFFCURVE",
"312 205 CURVE",
"417 205 OFFCURVE",
"538 185 OFFCURVE",
"647 157 CURVE",
"647 181 LINE",
"538 207 OFFCURVE",
"432 229 OFFCURVE",
"312 229 CURVE",
"182 229 OFFCURVE",
"80 185 OFFCURVE",
"80 99 CURVE"
);
}
);
};
layerId = "B29C398E-974A-40D0-A0A0-00935056D4B4";
name = "Light Extended";
paths = (
{
closed = 1;
nodes = (
"86 287 LINE",
"188 319 OFFCURVE",
"285 344 OFFCURVE",
"383 344 CURVE SMOOTH",
"520 344 OFFCURVE",
"568 282 OFFCURVE",
"553 198 CURVE SMOOTH",
"535 94 LINE SMOOTH",
"524 29 OFFCURVE",
"553 -10 OFFCURVE",
"602 -10 CURVE SMOOTH",
"631 -10 OFFCURVE",
"658 1 OFFCURVE",
"684 18 CURVE",
"677 40 LINE",
"652 23 OFFCURVE",
"630 13 OFFCURVE",
"603 13 CURVE SMOOTH",
"573 13 OFFCURVE",
"549 37 OFFCURVE",
"558 92 CURVE SMOOTH",
"577 196 LINE SMOOTH",
"594 296 OFFCURVE",
"535 367 OFFCURVE",
"384 367 CURVE SMOOTH",
"291 367 OFFCURVE",
"190 346 OFFCURVE",
"80 310 CURVE"
);
},
{
closed = 1;
nodes = (
"304 -10 OFFCURVE",
"430 20 OFFCURVE",
"543 76 CURVE",
"545 98 LINE",
"427 44 OFFCURVE",
"304 13 OFFCURVE",
"201 13 CURVE SMOOTH",
"113 13 OFFCURVE",
"42 32 OFFCURVE",
"53 94 CURVE",
"65 161 OFFCURVE",
"157 183 OFFCURVE",
"276 183 CURVE SMOOTH",
"373 183 OFFCURVE",
"477 168 OFFCURVE",
"557 153 CURVE",
"559 176 LINE",
"479 191 OFFCURVE",
"377 206 OFFCURVE",
"261 206 CURVE SMOOTH",
"146 206 OFFCURVE",
"45 179 OFFCURVE",
"30 98 CURVE",
"16 17 OFFCURVE",
"84 -10 OFFCURVE",
"200 -10 CURVE SMOOTH"
);
}
);
width = 757;
},
{
anchors = (
{
name = bottom;
position = "{102, -10}";
},
{
name = ogonek;
position = "{344, 7}";
},
{
name = top;
position = "{216, 377}";
}
);
background = {
paths = (
{
closed = 1;
nodes = (
"205 -11 OFFCURVE",
"268 18 OFFCURVE",
"313 61 CURVE",
"315 126 LINE",
"265 87 OFFCURVE",
"207 70 OFFCURVE",
"175 70 CURVE SMOOTH",
"145 70 OFFCURVE",
"126 79 OFFCURVE",
"126 105 CURVE SMOOTH",
"126 140 OFFCURVE",
"167 147 OFFCURVE",
"204 147 CURVE SMOOTH",
"235 147 OFFCURVE",
"268 143 OFFCURVE",
"315 131 CURVE",
"315 193 LINE",
"271 209 OFFCURVE",
"228 218 OFFCURVE",
"177 218 CURVE SMOOTH",
"98 218 OFFCURVE",
"17 180 OFFCURVE",
"17 101 CURVE SMOOTH",
"17 23 OFFCURVE",
"82 -11 OFFCURVE",
"146 -11 CURVE SMOOTH"
);
},
{
closed = 1;
nodes = (
"59 248 LINE",
"111 270 OFFCURVE",
"161 283 OFFCURVE",
"206 283 CURVE SMOOTH",
"253 283 OFFCURVE",
"294 266 OFFCURVE",
"294 225 CURVE SMOOTH",
"294 90 LINE SMOOTH",
"294 27 OFFCURVE",
"334 -6 OFFCURVE",
"386 -6 CURVE SMOOTH",
"404 -6 OFFCURVE",
"420 -3 OFFCURVE",
"435 1 CURVE",
"435 82 LINE",
"428 79 OFFCURVE",
"423 78 OFFCURVE",
"416 78 CURVE SMOOTH",
"404 78 OFFCURVE",
"392 84 OFFCURVE",
"392 110 CURVE SMOOTH",
"392 221 LINE SMOOTH",
"392 310 OFFCURVE",
"334 366 OFFCURVE",
"225 366 CURVE SMOOTH",
"158 366 OFFCURVE",
"101 351 OFFCURVE",
"37 323 CURVE"
);
}
);
};
layerId = "543F9737-16F7-428D-9F96-2EBD9FC8D3B6";
name = Light;
paths = (
{
closed = 1;
nodes = (
"60 306 LINE",
"108 327 OFFCURVE",
"156 343 OFFCURVE",
"212 343 CURVE SMOOTH",
"265 343 OFFCURVE",
"308 318 OFFCURVE",
"293 234 CURVE SMOOTH",
"265 74 LINE SMOOTH",
"256 24 OFFCURVE",
"270 -5 OFFCURVE",
"306 -5 CURVE SMOOTH",
"321 -5 OFFCURVE",
"335 1 OFFCURVE",
"345 7 CURVE",
"339 28 LINE",
"331 23 OFFCURVE",
"320 18 OFFCURVE",
"308 18 CURVE SMOOTH",
"287 18 OFFCURVE",
"281 36 OFFCURVE",
"287 72 CURVE SMOOTH",
"315 232 LINE SMOOTH",
"333 332 OFFCURVE",
"280 367 OFFCURVE",
"213 367 CURVE SMOOTH",
"159 367 OFFCURVE",
"104 350 OFFCURVE",
"56 329 CURVE"
);
},
{
closed = 1;
nodes = (
"154 -10 OFFCURVE",
"219 24 OFFCURVE",
"278 66 CURVE",
"281 91 LINE",
"221 47 OFFCURVE",
"159 13 OFFCURVE",
"104 13 CURVE SMOOTH",
"52 13 OFFCURVE",
"11 42 OFFCURVE",
"21 98 CURVE SMOOTH",
"32 160 OFFCURVE",
"95 191 OFFCURVE",
"157 190 CURVE SMOOTH",
"204 189 OFFCURVE",
"246 180 OFFCURVE",
"295 160 CURVE",
"297 183 LINE",
"252 201 OFFCURVE",
"211 213 OFFCURVE",
"157 213 CURVE SMOOTH",
"75 213 OFFCURVE",
"10 169 OFFCURVE",
"-2 102 CURVE SMOOTH",
"-15 30 OFFCURVE",
"37 -10 OFFCURVE",
"103 -10 CURVE SMOOTH"
);
}
);
width = 429;
},
{
anchors = (
{
name = bottom;
position = "{90, -10}";
},
{
name = ogonek;
position = "{381, 10}";
},
{
name = top;
position = "{225, 365}";
}
);
layerId = "EB38A4D2-CD30-49BA-8E45-1F04A566FFE8";
name = Bold;
paths = (
{
closed = 1;
nodes = (
"56 233 LINE",
"110 255 OFFCURVE",
"155 270 OFFCURVE",
"198 270 CURVE SMOOTH",
"237 270 OFFCURVE",
"269 259 OFFCURVE",
"263 227 CURVE SMOOTH",
"241 104 LINE SMOOTH",
"229 35 OFFCURVE",
"267 -6 OFFCURVE",
"319 -6 CURVE SMOOTH",
"346 -6 OFFCURVE",
"373 1 OFFCURVE",
"388 9 CURVE",
"374 94 LINE",
"371 92 OFFCURVE",
"365 88 OFFCURVE",
"353 88 CURVE SMOOTH",
"348 88 OFFCURVE",
"342 90 OFFCURVE",
"345 107 CURVE SMOOTH",
"364 214 LINE SMOOTH",
"380 301 OFFCURVE",
"334 366 OFFCURVE",
"218 366 CURVE SMOOTH",
"159 366 OFFCURVE",
"111 353 OFFCURVE",
"42 324 CURVE"
);
},
{
closed = 1;
nodes = (
"146 -11 OFFCURVE",
"201 13 OFFCURVE",
"249 57 CURVE",
"260 136 LINE",
"211 101 OFFCURVE",
"167 83 OFFCURVE",
"132 83 CURVE SMOOTH",
"113 83 OFFCURVE",
"106 89 OFFCURVE",
"107 98 CURVE SMOOTH",
"112 124 OFFCURVE",
"140 137 OFFCURVE",
"167 137 CURVE SMOOTH",
"195 138 OFFCURVE",
"225 136 OFFCURVE",
"264 126 CURVE",
"271 194 LINE",
"233 207 OFFCURVE",
"190 219 OFFCURVE",
"140 219 CURVE SMOOTH",
"75 219 OFFCURVE",
"1 183 OFFCURVE",
"-12 109 CURVE SMOOTH",
"-26 29 OFFCURVE",
"29 -11 OFFCURVE",
"96 -11 CURVE SMOOTH"
);
}
);
width = 459;
}
);
leftKerningGroup = a;
rightKerningGroup = n;
unicode = 0061;
},
{
glyphname = a.alt;
lastChange = "2015-11-11 18:41:44 +0000";
layers = (
{
anchors = (
{
name = bottom;
position = "{357, -10}";
},
{
name = ogonek;
position = "{633, -13}";
},
{
name = top;
position = "{424, 367}";
}
);
layerId = "B29C398E-974A-40D0-A0A0-00935056D4B4";
name = "Light Extended";
paths = (
{
closed = 1;
nodes = (
"671 -5 OFFCURVE",
"703 53 OFFCURVE",
"711 102 CURVE SMOOTH",
"714 117 LINE",
"690 117 LINE",
"688 104 LINE SMOOTH",
"679 55 OFFCURVE",
"652 18 OFFCURVE",
"611 18 CURVE SMOOTH",
"568 18 OFFCURVE",
"556 53 OFFCURVE",
"567 112 CURVE",
"582 196 LINE SMOOTH",
"599 296 OFFCURVE",
"539 367 OFFCURVE",
"388 367 CURVE SMOOTH",
"295 367 OFFCURVE",
"195 346 OFFCURVE",
"85 310 CURVE",
"90 287 LINE",
"193 319 OFFCURVE",
"289 344 OFFCURVE",
"388 344 CURVE SMOOTH",
"525 344 OFFCURVE",
"573 282 OFFCURVE",
"558 198 CURVE SMOOTH",
"543 114 LINE",
"531 45 OFFCURVE",
"548 -5 OFFCURVE",
"609 -5 CURVE SMOOTH"
);
},
{
closed = 1;
nodes = (
"309 -10 OFFCURVE",
"435 20 OFFCURVE",
"548 76 CURVE",
"550 98 LINE",
"432 44 OFFCURVE",
"309 13 OFFCURVE",
"205 13 CURVE SMOOTH",
"118 13 OFFCURVE",
"47 32 OFFCURVE",
"58 94 CURVE",
"70 161 OFFCURVE",
"162 183 OFFCURVE",
"281 183 CURVE SMOOTH",
"378 183 OFFCURVE",
"482 168 OFFCURVE",
"562 153 CURVE",
"564 176 LINE",
"484 191 OFFCURVE",
"382 206 OFFCURVE",
"266 206 CURVE SMOOTH",
"151 206 OFFCURVE",
"49 179 OFFCURVE",
"35 98 CURVE",
"21 17 OFFCURVE",
"89 -10 OFFCURVE",
"205 -10 CURVE SMOOTH"
);
}
);
width = 770;
},
{
anchors = (
{
name = bottom;
position = "{97, -10}";
},
{
name = ogonek;
position = "{325, -13}";
},
{
name = top;
position = "{203, 377}";
}
);
background = {
paths = (
{
closed = 1;
nodes = (
"452 -5 OFFCURVE",
"481 28 OFFCURVE",
"481 70 CURVE SMOOTH",
"481 89 LINE",
"458 89 LINE",
"458 70 LINE SMOOTH",
"458 39 OFFCURVE",
"444 19 OFFCURVE",
"412 19 CURVE SMOOTH",
"383 19 OFFCURVE",
"364 37 OFFCURVE",
"364 70 CURVE SMOOTH",
"364 256 LINE",
"364 321 OFFCURVE",
"320 377 OFFCURVE",
"225 377 CURVE",
"182 377 OFFCURVE",
"128 369 OFFCURVE",
"59 350 CURVE",
"59 326 LINE",
"128 346 OFFCURVE",
"182 353 OFFCURVE",
"225 353 CURVE",
"307 353 OFFCURVE",
"340 305 OFFCURVE",
"340 256 CURVE",
"340 70 LINE SMOOTH",
"340 26 OFFCURVE",
"367 -5 OFFCURVE",
"411 -5 CURVE SMOOTH"
);
},
{
closed = 1;
nodes = (
"222 -10 OFFCURVE",
"283 9 OFFCURVE",
"350 77 CURVE",
"350 96 LINE",
"283 35 OFFCURVE",
"220 14 OFFCURVE",
"171 14 CURVE SMOOTH",
"131 14 OFFCURVE",
"69 39 OFFCURVE",
"69 107 CURVE SMOOTH",
"69 168 OFFCURVE",
"129 201 OFFCURVE",
"187 201 CURVE SMOOTH",
"229 201 OFFCURVE",
"283 197 OFFCURVE",
"350 175 CURVE",
"350 194 LINE",
"287 214 OFFCURVE",
"244 225 OFFCURVE",
"187 225 CURVE SMOOTH",
"122 225 OFFCURVE",
"45 185 OFFCURVE",
"45 107 CURVE SMOOTH",
"45 22 OFFCURVE",
"116 -10 OFFCURVE",
"171 -10 CURVE SMOOTH"
);
}
);
};
layerId = "543F9737-16F7-428D-9F96-2EBD9FC8D3B6";
name = Light;
paths = (
{
closed = 1;
nodes = (
"349 -5 OFFCURVE",
"378 25 OFFCURVE",
"385 67 CURVE SMOOTH",
"388 87 LINE",
"367 87 LINE",
"363 69 LINE SMOOTH",
"358 40 OFFCURVE",
"340 18 OFFCURVE",
"315 18 CURVE SMOOTH",
"292 18 OFFCURVE",
"281 36 OFFCURVE",
"286 69 CURVE SMOOTH",
"315 232 LINE SMOOTH",
"333 332 OFFCURVE",
"280 367 OFFCURVE",
"213 367 CURVE SMOOTH",
"159 367 OFFCURVE",
"104 350 OFFCURVE",
"56 329 CURVE",
"60 306 LINE",
"108 327 OFFCURVE",
"156 343 OFFCURVE",
"212 343 CURVE SMOOTH",
"265 343 OFFCURVE",
"308 318 OFFCURVE",
"293 234 CURVE SMOOTH",
"264 71 LINE SMOOTH",
"256 27 OFFCURVE",
"276 -5 OFFCURVE",
"314 -5 CURVE SMOOTH"
);
},
{
closed = 1;
nodes = (
"154 -10 OFFCURVE",
"219 24 OFFCURVE",
"278 66 CURVE",
"281 91 LINE",
"221 47 OFFCURVE",
"159 13 OFFCURVE",
"104 13 CURVE SMOOTH",
"52 13 OFFCURVE",
"11 42 OFFCURVE",
"21 98 CURVE SMOOTH",
"32 160 OFFCURVE",
"95 191 OFFCURVE",
"157 190 CURVE SMOOTH",
"204 189 OFFCURVE",
"246 180 OFFCURVE",
"295 160 CURVE",
"297 183 LINE",
"252 201 OFFCURVE",
"211 213 OFFCURVE",
"157 213 CURVE SMOOTH",
"75 213 OFFCURVE",
"10 169 OFFCURVE",
"-2 102 CURVE SMOOTH",
"-15 30 OFFCURVE",
"37 -10 OFFCURVE",
"103 -10 CURVE SMOOTH"
);
}
);
width = 441;
},
{
anchors = (
{
name = bottom;
position = "{89, -11}";
},
{
name = ogonek;
position = "{369, 9}";
},
{
name = top;
position = "{211, 365}";
}
);
layerId = "EB38A4D2-CD30-49BA-8E45-1F04A566FFE8";
name = Bold;
paths = (
{
closed = 1;
nodes = (
"369 -6 OFFCURVE",
"412 23 OFFCURVE",
"423 86 CURVE SMOOTH",
"433 143 LINE",
"379 143 LINE",
"370 93 LINE SMOOTH",
"369 82 OFFCURVE",
"360 68 OFFCURVE",
"345 68 CURVE SMOOTH",
"339 68 OFFCURVE",
"340 75 OFFCURVE",
"341 84 CURVE SMOOTH",
"364 214 LINE SMOOTH",
"380 301 OFFCURVE",
"334 366 OFFCURVE",
"218 366 CURVE SMOOTH",
"159 366 OFFCURVE",
"111 353 OFFCURVE",
"42 324 CURVE",
"56 233 LINE",
"110 255 OFFCURVE",
"155 270 OFFCURVE",
"198 270 CURVE SMOOTH",
"237 270 OFFCURVE",
"269 259 OFFCURVE",
"263 227 CURVE SMOOTH",
"240 94 LINE SMOOTH",
"229 36 OFFCURVE",
"260 -6 OFFCURVE",
"323 -6 CURVE SMOOTH"
);
},
{
closed = 1;
nodes = (
"146 -11 OFFCURVE",
"201 13 OFFCURVE",
"249 57 CURVE",
"260 136 LINE",
"211 101 OFFCURVE",
"167 83 OFFCURVE",
"132 83 CURVE SMOOTH",
"113 83 OFFCURVE",
"106 89 OFFCURVE",
"107 98 CURVE SMOOTH",
"112 124 OFFCURVE",
"140 137 OFFCURVE",
"167 137 CURVE SMOOTH",
"195 138 OFFCURVE",
"225 136 OFFCURVE",
"264 126 CURVE",
"271 194 LINE",
"233 207 OFFCURVE",
"190 219 OFFCURVE",
"140 219 CURVE SMOOTH",
"75 219 OFFCURVE",
"1 183 OFFCURVE",
"-12 109 CURVE SMOOTH",
"-26 29 OFFCURVE",
"29 -11 OFFCURVE",
"96 -11 CURVE SMOOTH"
);
}
);
width = 464;
}
);
leftKerningGroup = a.alt;
rightKerningGroup = a.alt;
},
{
glyphname = a.alt2;
lastChange = "2015-11-11 19:04:14 +0000";
layers = (
{
anchors = (
{
name = bottom;
position = "{336, -20}";
},
{
name = ogonek;
position = "{691, -2}";
},
{
name = top;
position = "{406, 377}";
}
);
background = {
paths = (
{
closed = 1;
nodes = (
"362 -11 OFFCURVE",
"489 52 OFFCURVE",
"614 136 CURVE",
"616 161 LINE",
"482 73 OFFCURVE",
"349 12 OFFCURVE",
"239 12 CURVE",
"114 12 OFFCURVE",
"49 72 OFFCURVE",
"65 159 CURVE",
"84 270 OFFCURVE",
"218 344 OFFCURVE",
"363 343 CURVE",
"476 344 OFFCURVE",
"575 301 OFFCURVE",
"639 261 CURVE",
"641 283 LINE",
"579 324 OFFCURVE",
"487 366 OFFCURVE",
"364 366 CURVE",
"210 366 OFFCURVE",
"64 290 OFFCURVE",
"42 163 CURVE",
"23 54 OFFCURVE",
"102 -11 OFFCURVE",
"239 -11 CURVE"
);
},
{
closed = 1;
nodes = (
"689 -10 OFFCURVE",
"716 1 OFFCURVE",
"742 18 CURVE",
"735 40 LINE",
"710 23 OFFCURVE",
"688 13 OFFCURVE",
"661 13 CURVE SMOOTH",
"631 13 OFFCURVE",
"607 37 OFFCURVE",
"617 93 CURVE SMOOTH",
"663 357 LINE",
"638 352 LINE",
"593 95 LINE SMOOTH",
"582 29 OFFCURVE",
"611 -10 OFFCURVE",
"660 -10 CURVE SMOOTH"
);
}
);
};
layerId = "B29C398E-974A-40D0-A0A0-00935056D4B4";
name = "Light Extended";
paths = (
{
closed = 1;
nodes = (
"382 -11 OFFCURVE",
"499 52 OFFCURVE",
"614 136 CURVE",
"616 161 LINE",
"492 73 OFFCURVE",
"369 12 OFFCURVE",
"249 12 CURVE SMOOTH",
"137 12 OFFCURVE",
"63 61 OFFCURVE",
"63 154 CURVE SMOOTH",
"63 268 OFFCURVE",
"205 343 OFFCURVE",
"363 343 CURVE SMOOTH",
"485 343 OFFCURVE",
"575 301 OFFCURVE",
"639 261 CURVE",
"641 283 LINE",
"579 324 OFFCURVE",
"487 366 OFFCURVE",
"364 366 CURVE SMOOTH",
"192 366 OFFCURVE",
"39 283 OFFCURVE",
"39 152 CURVE SMOOTH",
"39 45 OFFCURVE",
"126 -11 OFFCURVE",
"249 -11 CURVE SMOOTH"
);
},
{
closed = 1;
nodes = (
"693 -10 OFFCURVE",
"726 27 OFFCURVE",
"755 72 CURVE",
"737 85 LINE",
"711 43 OFFCURVE",
"683 13 OFFCURVE",
"653 13 CURVE SMOOTH",
"628 13 OFFCURVE",
"615 31 OFFCURVE",
"615 57 CURVE SMOOTH",
"615 78 OFFCURVE",
"618 97 OFFCURVE",
"621 117 CURVE SMOOTH",
"663 357 LINE",
"638 352 LINE",
"597 119 LINE SMOOTH",
"594 99 OFFCURVE",
"591 80 OFFCURVE",
"591 57 CURVE SMOOTH",
"591 20 OFFCURVE",
"612 -10 OFFCURVE",
"653 -10 CURVE SMOOTH"
);
}
);
width = 815;
},
{
anchors = (
{
name = bottom;
position = "{139, -10}";
},
{
name = ogonek;
position = "{362, -2}";
},
{
name = top;
position = "{205, 367}";
}
);
background = {
paths = (
{
closed = 1;
nodes = (
"202 -10 OFFCURVE",
"262 30 OFFCURVE",
"303 66 CURVE",
"306 95 LINE",
"258 52 OFFCURVE",
"204 13 OFFCURVE",
"136 13 CURVE SMOOTH",
"74 13 OFFCURVE",
"30 57 OFFCURVE",
"30 132 CURVE SMOOTH",
"30 238 OFFCURVE",
"112 345 OFFCURVE",
"212 345 CURVE SMOOTH",
"274 345 OFFCURVE",
"314 312 OFFCURVE",
"345 269 CURVE",
"347 290 LINE",
"316 332 OFFCURVE",
"276 367 OFFCURVE",
"212 367 CURVE SMOOTH",
"100 367 OFFCURVE",
"6 252 OFFCURVE",
"6 130 CURVE SMOOTH",
"6 43 OFFCURVE",
"61 -10 OFFCURVE",
"138 -10 CURVE SMOOTH"
);
},
{
closed = 1;
nodes = (
"346 -10 OFFCURVE",
"360 -6 OFFCURVE",
"370 1 CURVE",
"367 25 LINE",
"359 19 OFFCURVE",
"346 14 OFFCURVE",
"333 14 CURVE SMOOTH",
"319 14 OFFCURVE",
"311 22 OFFCURVE",
"311 44 CURVE SMOOTH",
"311 50 OFFCURVE",
"311 58 OFFCURVE",
"313 67 CURVE SMOOTH",
"364 357 LINE",
"340 352 LINE",
"290 69 LINE SMOOTH",
"288 59 OFFCURVE",
"287 50 OFFCURVE",
"287 42 CURVE SMOOTH",
"287 9 OFFCURVE",
"302 -10 OFFCURVE",
"331 -10 CURVE SMOOTH"
);
}
);
};
layerId = "543F9737-16F7-428D-9F96-2EBD9FC8D3B6";
name = Light;
paths = (
{
closed = 1;
nodes = (
"207 -10 OFFCURVE",
"262 30 OFFCURVE",
"303 66 CURVE",
"306 95 LINE",
"258 52 OFFCURVE",
"209 13 OFFCURVE",
"141 13 CURVE SMOOTH",
"79 13 OFFCURVE",
"30 57 OFFCURVE",
"30 147 CURVE SMOOTH",
"30 248 OFFCURVE",
"107 345 OFFCURVE",
"212 345 CURVE SMOOTH",
"274 345 OFFCURVE",
"314 312 OFFCURVE",
"345 269 CURVE",
"347 290 LINE",
"316 332 OFFCURVE",
"276 367 OFFCURVE",
"212 367 CURVE SMOOTH",
"95 367 OFFCURVE",
"6 262 OFFCURVE",
"6 145 CURVE SMOOTH",
"6 43 OFFCURVE",
"66 -10 OFFCURVE",
"143 -10 CURVE SMOOTH"
);
},
{
closed = 1;
nodes = (
"361 -10 OFFCURVE",
"385 7 OFFCURVE",
"412 45 CURVE",
"396 59 LINE",
"373 27 OFFCURVE",
"355 14 OFFCURVE",
"338 14 CURVE SMOOTH",
"320 14 OFFCURVE",
"313 32 OFFCURVE",
"313 46 CURVE SMOOTH",
"313 62 OFFCURVE",
"315 78 OFFCURVE",
"318 97 CURVE SMOOTH",
"364 357 LINE",
"340 352 LINE",
"295 99 LINE SMOOTH",
"292 79 OFFCURVE",
"289 62 OFFCURVE",
"289 44 CURVE SMOOTH",
"289 19 OFFCURVE",
"303 -10 OFFCURVE",
"336 -10 CURVE SMOOTH"
);
}
);
width = 461;
},
{
anchors = (
{
name = bottom;
position = "{132, -12}";
},
{
name = ogonek;
position = "{414, 12}";
},
{
name = top;
position = "{195, 367}";
}
);
background = {
paths = (
{
closed = 1;
nodes = (
"224 -11 OFFCURVE",
"285 55 OFFCURVE",
"328 95 CURVE",
"340 184 LINE",
"293 142 OFFCURVE",
"230 87 OFFCURVE",
"175 86 CURVE SMOOTH",
"122 85 OFFCURVE",
"100 121 OFFCURVE",
"108 169 CURVE SMOOTH",
"119 228 OFFCURVE",
"166 272 OFFCURVE",
"229 272 CURVE SMOOTH",
"276 272 OFFCURVE",
"319 228 OFFCURVE",
"342 185 CURVE",
"351 256 LINE",
"329 298 OFFCURVE",
"294 367 OFFCURVE",
"204 367 CURVE SMOOTH",
"95 367 OFFCURVE",
"8 289 OFFCURVE",
"-10 185 CURVE SMOOTH",
"-30 73 OFFCURVE",
"38 -11 OFFCURVE",
"138 -11 CURVE SMOOTH"
);
},
{
closed = 1;
nodes = (
"375 -5 OFFCURVE",
"397 2 OFFCURVE",
"417 10 CURVE",
"403 93 LINE",
"399 92 OFFCURVE",
"397 90 OFFCURVE",
"386 90 CURVE SMOOTH",
"379 90 OFFCURVE",
"372 90 OFFCURVE",
"375 109 CURVE SMOOTH",
"421 369 LINE",
"307 347 LINE",
"264 105 LINE SMOOTH",
"253 39 OFFCURVE",
"291 -5 OFFCURVE",
"348 -5 CURVE SMOOTH"
);
}
);
};
layerId = "EB38A4D2-CD30-49BA-8E45-1F04A566FFE8";
name = Bold;
paths = (
{
closed = 1;
nodes = (
"234 -11 OFFCURVE",
"285 55 OFFCURVE",
"328 95 CURVE",
"340 184 LINE",
"292 141 OFFCURVE",
"236 86 OFFCURVE",
"181 86 CURVE SMOOTH",
"136 86 OFFCURVE",
"106 115 OFFCURVE",
"106 164 CURVE SMOOTH",
"106 225 OFFCURVE",
"149 272 OFFCURVE",
"210 272 CURVE SMOOTH",
"272 272 OFFCURVE",
"319 228 OFFCURVE",
"342 185 CURVE",
"351 256 LINE",
"329 298 OFFCURVE",
"290 367 OFFCURVE",
"191 367 CURVE SMOOTH",
"76 367 OFFCURVE",
"-13 279 OFFCURVE",
"-13 158 CURVE SMOOTH",
"-13 54 OFFCURVE",
"60 -11 OFFCURVE",
"148 -11 CURVE SMOOTH"
);
},
{
closed = 1;
nodes = (
"407 -5 OFFCURVE",
"444 21 OFFCURVE",
"472 51 CURVE",
"426 113 LINE",
"411 97 OFFCURVE",
"397 90 OFFCURVE",
"389 90 CURVE SMOOTH",
"381 90 OFFCURVE",
"375 95 OFFCURVE",
"375 104 CURVE SMOOTH",
"375 113 OFFCURVE",
"378 129 OFFCURVE",
"380 139 CURVE SMOOTH",
"421 369 LINE",
"307 347 LINE",
"270 141 LINE SMOOTH",
"267 127 OFFCURVE",
"266 112 OFFCURVE",
"266 87 CURVE SMOOTH",
"266 33 OFFCURVE",
"304 -5 OFFCURVE",
"359 -5 CURVE SMOOTH"
);
}
);
width = 467;
}
);
leftKerningGroup = a.alt2;
leftMetricsKey = "=d";
rightKerningGroup = a.alt2;
rightMetricsKey = d.alt;
},
{
glyphname = ae;
lastChange = "2015-11-11 18:41:44 +0000";
layers = (
{
anchors = (
{
name = bottom;
position = "{495, -10}";
},
{
name = ogonek;
position = "{1011, 55}";
},
{
name = top;
position = "{557, 367}";
}
);
layerId = "B29C398E-974A-40D0-A0A0-00935056D4B4";
name = "Light Extended";
paths = (
{
closed = 1;
nodes = (
"833 -20 OFFCURVE",
"930 9 OFFCURVE",
"1012 55 CURVE",
"1003 74 LINE",
"923 30 OFFCURVE",
"831 2 OFFCURVE",
"738 3 CURVE",
"635 2 OFFCURVE",
"513 61 OFFCURVE",
"531 165 CURVE SMOOTH",
"553 289 OFFCURVE",
"718 353 OFFCURVE",
"839 353 CURVE SMOOTH",
"943 353 OFFCURVE",
"1034 325 OFFCURVE",
"1022 260 CURVE SMOOTH",
"1009 185 OFFCURVE",
"901 165 OFFCURVE",
"810 165 CURVE SMOOTH",
"718 165 OFFCURVE",
"625 176 OFFCURVE",
"529 188 CURVE",
"526 165 LINE",
"623 152 OFFCURVE",
"716 142 OFFCURVE",
"809 142 CURVE SMOOTH",
"913 142 OFFCURVE",
"1030 170 OFFCURVE",
"1046 258 CURVE SMOOTH",
"1060 339 OFFCURVE",
"957 376 OFFCURVE",
"843 376 CURVE SMOOTH",
"702 376 OFFCURVE",
"558 307 OFFCURVE",
"524 198 CURVE",
"533 196 LINE",
"551 296 OFFCURVE",
"502 377 OFFCURVE",
"366 377 CURVE SMOOTH",
"275 377 OFFCURVE",
"185 356 OFFCURVE",
"90 322 CURVE",
"94 300 LINE",
"184 331 OFFCURVE",
"269 354 OFFCURVE",
"366 354 CURVE SMOOTH",
"493 354 OFFCURVE",
"529 277 OFFCURVE",
"515 198 CURVE SMOOTH",
"510 168 LINE",
"488 42 OFFCURVE",
"624 -20 OFFCURVE",
"738 -20 CURVE"
);
},
{
closed = 1;
nodes = (
"278 -20 OFFCURVE",
"417 20 OFFCURVE",
"524 91 CURVE",
"526 114 LINE",
"415 45 OFFCURVE",
"279 3 OFFCURVE",
"180 3 CURVE",
"111 3 OFFCURVE",
"42 27 OFFCURVE",
"52 87 CURVE",
"64 157 OFFCURVE",
"154 188 OFFCURVE",
"253 188 CURVE SMOOTH",
"350 188 OFFCURVE",
"435 176 OFFCURVE",
"521 165 CURVE",
"523 188 LINE",
"437 199 OFFCURVE",
"354 211 OFFCURVE",
"254 211 CURVE SMOOTH",
"142 211 OFFCURVE",
"44 175 OFFCURVE",
"29 91 CURVE",
"15 12 OFFCURVE",
"83 -20 OFFCURVE",
"180 -20 CURVE"
);
}
);
width = 1134;
},
{
anchors = (
{
name = bottom;
position = "{276, -10}";
},
{
name = ogonek;
position = "{571, 49}";
},
{
name = top;
position = "{338, 367}";
}
);
layerId = "543F9737-16F7-428D-9F96-2EBD9FC8D3B6";
name = Light;
paths = (
{
closed = 1;
nodes = (
"484 -10 OFFCURVE",
"530 15 OFFCURVE",
"572 48 CURVE",
"560 68 LINE",
"522 37 OFFCURVE",
"483 14 OFFCURVE",
"426 13 CURVE SMOOTH",
"350 12 OFFCURVE",
"287 71 OFFCURVE",
"303 165 CURVE SMOOTH",
"324 281 OFFCURVE",
"417 343 OFFCURVE",
"492 343 CURVE SMOOTH",
"550 343 OFFCURVE",
"593 316 OFFCURVE",
"584 262 CURVE SMOOTH",
"574 206 OFFCURVE",
"511 176 OFFCURVE",
"452 176 CURVE SMOOTH",
"398 176 OFFCURVE",
"350 184 OFFCURVE",
"303 194 CURVE",
"302 173 LINE",
"349 163 OFFCURVE",
"396 153 OFFCURVE",
"451 153 CURVE SMOOTH",
"523 153 OFFCURVE",
"595 191 OFFCURVE",
"607 258 CURVE SMOOTH",
"619 325 OFFCURVE",
"565 366 OFFCURVE",
"492 366 CURVE SMOOTH",
"423 366 OFFCURVE",
"339 321 OFFCURVE",
"302 218 CURVE",
"309 216 LINE",
"329 332 OFFCURVE",
"281 367 OFFCURVE",
"208 367 CURVE SMOOTH",
"156 367 OFFCURVE",
"104 350 OFFCURVE",
"56 329 CURVE",
"60 306 LINE",
"108 327 OFFCURVE",
"153 343 OFFCURVE",
"207 343 CURVE SMOOTH",
"269 343 OFFCURVE",
"309 318 OFFCURVE",
"289 208 CURVE SMOOTH",
"284 178 LINE",
"262 52 OFFCURVE",
"338 -10 OFFCURVE",
"425 -10 CURVE SMOOTH"
);
},
{
closed = 1;
nodes = (
"173 -10 OFFCURVE",
"228 24 OFFCURVE",
"301 79 CURVE",
"294 99 LINE",
"231 50 OFFCURVE",
"170 13 OFFCURVE",
"104 13 CURVE SMOOTH",
"52 13 OFFCURVE",
"11 42 OFFCURVE",
"21 98 CURVE SMOOTH",
"32 160 OFFCURVE",
"95 191 OFFCURVE",
"157 190 CURVE SMOOTH",
"204 189 OFFCURVE",
"250 182 OFFCURVE",
"297 173 CURVE",
"299 194 LINE",
"252 203 OFFCURVE",
"211 213 OFFCURVE",
"157 213 CURVE SMOOTH",
"75 213 OFFCURVE",
"10 169 OFFCURVE",
"-2 102 CURVE SMOOTH",
"-15 30 OFFCURVE",
"37 -10 OFFCURVE",
"103 -10 CURVE SMOOTH"
);
}
);
width = 673;
},
{
anchors = (
{
name = bottom;
position = "{270, -10}";
},
{
name = ogonek;
position = "{613, 56}";
},
{
name = top;
position = "{331, 367}";
}
);
layerId = "EB38A4D2-CD30-49BA-8E45-1F04A566FFE8";
name = Bold;
paths = (
{
closed = 1;
nodes = (
"501 -11 OFFCURVE",
"567 17 OFFCURVE",
"615 53 CURVE",
"584 142 LINE",
"544 110 OFFCURVE",
"496 85 OFFCURVE",
"445 85 CURVE SMOOTH",
"401 85 OFFCURVE",
"346 113 OFFCURVE",
"358 179 CURVE SMOOTH",
"369 243 OFFCURVE",
"433 281 OFFCURVE",
"476 281 CURVE SMOOTH",
"503 281 OFFCURVE",
"519 269 OFFCURVE",
"516 252 CURVE SMOOTH",
"512 227 OFFCURVE",
"487 204 OFFCURVE",
"439 204 CURVE SMOOTH",
"404 204 OFFCURVE",
"354 210 OFFCURVE",
"296 228 CURVE",
"290 170 LINE",
"347 147 OFFCURVE",
"396 126 OFFCURVE",
"468 126 CURVE SMOOTH",
"527 126 OFFCURVE",
"617 153 OFFCURVE",
"631 232 CURVE SMOOTH",
"644 307 OFFCURVE",
"595 367 OFFCURVE",
"498 367 CURVE SMOOTH",
"409 367 OFFCURVE",
"324 315 OFFCURVE",
"289 222 CURVE",
"348 218 LINE",
"363 301 OFFCURVE",
"328 366 OFFCURVE",
"219 366 CURVE SMOOTH",
"159 366 OFFCURVE",
"111 353 OFFCURVE",
"42 324 CURVE",
"56 233 LINE",
"110 255 OFFCURVE",
"156 270 OFFCURVE",
"199 270 CURVE SMOOTH",
"236 270 OFFCURVE",
"274 259 OFFCURVE",
"270 233 CURVE SMOOTH",
"260 179 LINE",
"240 64 OFFCURVE",
"322 -11 OFFCURVE",
"433 -11 CURVE SMOOTH"
);
},
{
closed = 1;
nodes = (
"154 -11 OFFCURVE",
"216 13 OFFCURVE",
"275 75 CURVE",
"256 134 LINE",
"209 100 OFFCURVE",
"164 83 OFFCURVE",
"132 83 CURVE SMOOTH",
"113 83 OFFCURVE",
"106 89 OFFCURVE",
"107 98 CURVE SMOOTH",
"112 124 OFFCURVE",
"140 137 OFFCURVE",
"167 137 CURVE SMOOTH",
"195 138 OFFCURVE",
"224 135 OFFCURVE",
"264 123 CURVE",
"270 192 LINE",
"233 207 OFFCURVE",
"190 219 OFFCURVE",
"140 219 CURVE SMOOTH",
"75 219 OFFCURVE",
"1 183 OFFCURVE",
"-12 109 CURVE SMOOTH",
"-26 29 OFFCURVE",
"29 -11 OFFCURVE",
"96 -11 CURVE SMOOTH"
);
}
);
width = 673;
}
);
leftKerningGroup = a;
leftMetricsKey = "=a";
rightKerningGroup = e;
rightMetricsKey = "=e";
unicode = 00E6;
},
{
glyphname = b;
lastChange = "2015-11-11 18:41:44 +0000";
layers = (
{
anchors = (
{
name = bottom;
position = "{346, -10}";
},
{
name = top;
position = "{412, 367}";
}
);
layerId = "B29C398E-974A-40D0-A0A0-00935056D4B4";
name = "Light Extended";
paths = (
{
closed = 1;
nodes = (
"184 497 LINE",
"188 520 LINE",
"0 520 LINE",
"-4 497 LINE"
);
},
{
closed = 1;
nodes = (
"382 367 OFFCURVE",
"255 304 OFFCURVE",
"130 220 CURVE",
"127 195 LINE",
"262 283 OFFCURVE",
"395 344 OFFCURVE",
"504 344 CURVE",
"629 344 OFFCURVE",
"694 284 OFFCURVE",
"679 197 CURVE",
"659 86 OFFCURVE",
"525 12 OFFCURVE",
"380 13 CURVE",
"268 12 OFFCURVE",
"168 55 OFFCURVE",
"105 95 CURVE",
"103 73 LINE",
"164 32 OFFCURVE",
"256 -10 OFFCURVE",
"380 -10 CURVE",
"534 -10 OFFCURVE",
"679 66 OFFCURVE",
"702 193 CURVE",
"721 302 OFFCURVE",
"641 367 OFFCURVE",
"504 367 CURVE"
);
},
{
closed = 1;
nodes = (
"103 -11 LINE",
"197 520 LINE",
"173 520 LINE",
"80 -11 LINE"
);
}
);
width = 807;
},
{
anchors = (
{
name = bottom;
position = "{195, 0}";
},
{
name = top;
position = "{262, 377}";
}
);
background = {
paths = (
{
closed = 1;
nodes = (
"200 367 OFFCURVE",
"145 326 OFFCURVE",
"108 290 CURVE",
"108 263 LINE",
"150 305 OFFCURVE",
"200 343 OFFCURVE",
"269 344 CURVE SMOOTH",
"347 345 OFFCURVE",
"410 285 OFFCURVE",
"410 186 CURVE SMOOTH",
"410 85 OFFCURVE",
"340 12 OFFCURVE",
"257 12 CURVE SMOOTH",
"190 12 OFFCURVE",
"142 46 OFFCURVE",
"101 89 CURVE",
"101 66 LINE",
"142 24 OFFCURVE",
"190 -10 OFFCURVE",
"257 -10 CURVE SMOOTH",
"351 -10 OFFCURVE",
"435 67 OFFCURVE",
"435 187 CURVE SMOOTH",
"435 298 OFFCURVE",
"360 367 OFFCURVE",
"269 367 CURVE SMOOTH"
);
}
);
};
layerId = "543F9737-16F7-428D-9F96-2EBD9FC8D3B6";
name = Light;
paths = (
{
closed = 1;
nodes = (
"140 497 LINE",
"144 520 LINE",
"33 520 LINE",
"29 497 LINE"
);
},
{
closed = 1;
nodes = (
"191 367 OFFCURVE",
"132 327 OFFCURVE",
"90 291 CURVE",
"87 262 LINE",
"134 304 OFFCURVE",
"188 343 OFFCURVE",
"255 344 CURVE SMOOTH",
"328 345 OFFCURVE",
"377 286 OFFCURVE",
"360 188 CURVE SMOOTH",
"342 86 OFFCURVE",
"261 12 OFFCURVE",
"181 12 CURVE SMOOTH",
"119 12 OFFCURVE",
"79 45 OFFCURVE",
"48 88 CURVE",
"46 67 LINE",
"77 25 OFFCURVE",
"117 -10 OFFCURVE",
"181 -10 CURVE SMOOTH",
"270 -10 OFFCURVE",
"362 66 OFFCURVE",
"383 185 CURVE SMOOTH",
"403 297 OFFCURVE",
"343 367 OFFCURVE",
"255 367 CURVE SMOOTH"
);
},
{
closed = 1;
nodes = (
"52 0 LINE",
"144 519 LINE",
"121 519 LINE",
"29 0 LINE"
);
}
);
width = 456;
},
{
anchors = (
{
name = bottom;
position = "{216, -12}";
},
{
name = top;
position = "{283, 365}";
}
);
layerId = "EB38A4D2-CD30-49BA-8E45-1F04A566FFE8";
name = Bold;
paths = (
{
closed = 1;
nodes = (
"163 430 LINE",
"179 520 LINE",
"10 520 LINE",
"-6 430 LINE"
);
},
{
closed = 1;
nodes = (
"214 367 OFFCURVE",
"122 296 OFFCURVE",
"68 177 CURVE",
"54 85 LINE",
"104 193 OFFCURVE",
"187 268 OFFCURVE",
"241 269 CURVE SMOOTH",
"288 270 OFFCURVE",
"310 235 OFFCURVE",
"302 187 CURVE SMOOTH",
"291 128 OFFCURVE",
"244 84 OFFCURVE",
"181 84 CURVE SMOOTH",
"134 84 OFFCURVE",
"91 127 OFFCURVE",
"68 170 CURVE",
"59 100 LINE",
"81 58 OFFCURVE",
"116 -11 OFFCURVE",
"206 -11 CURVE SMOOTH",
"315 -11 OFFCURVE",
"402 67 OFFCURVE",
"420 170 CURVE SMOOTH",
"440 283 OFFCURVE",
"379 367 OFFCURVE",
"284 367 CURVE SMOOTH"
);
},
{
closed = 1;
nodes = (
"94 -13 LINE",
"188 520 LINE",
"78 520 LINE",
"-16 -13 LINE"
);
}
);
width = 472;
}
);
leftKerningGroup = h;
rightKerningGroup = o;
rightMetricsKey = "=o";
unicode = 0062;
},
{
glyphname = c;
lastChange = "2015-11-11 18:41:44 +0000";
layers = (
{
anchors = (
{
name = bottom;
position = "{283, -10}";
},
{
name = top;
position = "{360, 367}";
}
);
layerId = "B29C398E-974A-40D0-A0A0-00935056D4B4";
name = "Light Extended";
paths = (
{
closed = 1;
nodes = (
"411 -9 OFFCURVE",
"513 32 OFFCURVE",
"599 95 CURVE",
"586 115 LINE",
"506 57 OFFCURVE",
"403 13 OFFCURVE",
"284 14 CURVE SMOOTH",
"146 15 OFFCURVE",
"50 77 OFFCURVE",
"67 170 CURVE SMOOTH",
"87 285 OFFCURVE",
"229 345 OFFCURVE",
"356 344 CURVE SMOOTH",
"458 344 OFFCURVE",
"560 307 OFFCURVE",
"609 221 CURVE",
"614 221 LINE",
"638 357 LINE",
"617 357 LINE",
"599 257 LINE",
"609 251 LINE",
"571 314 OFFCURVE",
"477 367 OFFCURVE",
"358 367 CURVE SMOOTH",
"221 368 OFFCURVE",
"67 304 OFFCURVE",
"44 174 CURVE SMOOTH",
"23 59 OFFCURVE",
"134 -9 OFFCURVE",
"284 -9 CURVE SMOOTH"
);
}
);
width = 730;
},
{
anchors = (
{
name = bottom;
position = "{140, -10}";
},
{
name = top;
position = "{217, 367}";
}
);
background = {
paths = (
{
closed = 1;
nodes = (
"358 67 LINE",
"324 36 OFFCURVE",
"287 14 OFFCURVE",
"228 13 CURVE SMOOTH",
"147 12 OFFCURVE",
"70 72 OFFCURVE",
"70 167 CURVE SMOOTH",
"70 282 OFFCURVE",
"155 343 OFFCURVE",
"232 343 CURVE SMOOTH",
"300 343 OFFCURVE",
"346 311 OFFCURVE",
"346 257 CURVE SMOOTH",
"346 204 OFFCURVE",
"285 180 OFFCURVE",
"229 180 CURVE SMOOTH",
"169 180 OFFCURVE",
"115 197 OFFCURVE",
"64 215 CURVE",
"65 192 LINE",
"115 174 OFFCURVE",
"169 157 OFFCURVE",
"229 157 CURVE SMOOTH",
"300 157 OFFCURVE",
"371 191 OFFCURVE",
"371 257 CURVE SMOOTH",
"371 322 OFFCURVE",
"313 366 OFFCURVE",
"232 366 CURVE SMOOTH",
"144 366 OFFCURVE",
"45 299 OFFCURVE",
"45 167 CURVE SMOOTH",
"45 51 OFFCURVE",
"137 -10 OFFCURVE",
"228 -10 CURVE SMOOTH",
"291 -10 OFFCURVE",
"335 14 OFFCURVE",
"373 47 CURVE"
);
}
);
};
layerId = "543F9737-16F7-428D-9F96-2EBD9FC8D3B6";
name = Light;
paths = (
{
closed = 1;
nodes = (
"223 -10 OFFCURVE",
"272 22 OFFCURVE",
"312 59 CURVE",
"299 78 LINE",
"261 43 OFFCURVE",
"216 12 OFFCURVE",
"152 13 CURVE SMOOTH",
"82 14 OFFCURVE",
"16 73 OFFCURVE",
"34 172 CURVE SMOOTH",
"52 272 OFFCURVE",
"129 344 OFFCURVE",
"214 344 CURVE SMOOTH",
"282 344 OFFCURVE",
"320 310 OFFCURVE",
"333 238 CURVE",
"345 238 LINE",
"366 357 LINE",
"344 357 LINE",
"329 271 LINE",
"339 263 LINE",
"329 324 OFFCURVE",
"286 366 OFFCURVE",
"215 367 CURVE SMOOTH",
"120 368 OFFCURVE",
"30 286 OFFCURVE",
"11 176 CURVE SMOOTH",
"-11 55 OFFCURVE",
"70 -10 OFFCURVE",
"152 -10 CURVE SMOOTH"
);
}
);
width = 409;
},
{
anchors = (
{
name = bottom;
position = "{142, -10}";
},
{
name = top;
position = "{208, 367}";
}
);
layerId = "EB38A4D2-CD30-49BA-8E45-1F04A566FFE8";
name = Bold;
paths = (
{
closed = 1;
nodes = (
"214 -10 OFFCURVE",
"274 11 OFFCURVE",
"325 57 CURVE",
"283 141 LINE",
"244 111 OFFCURVE",
"213 90 OFFCURVE",
"168 90 CURVE SMOOTH",
"128 90 OFFCURVE",
"100 121 OFFCURVE",
"109 171 CURVE SMOOTH",
"120 234 OFFCURVE",
"170 271 OFFCURVE",
"217 271 CURVE SMOOTH",
"253 271 OFFCURVE",
"270 253 OFFCURVE",
"289 227 CURVE",
"340 227 LINE",
"363 357 LINE",
"288 357 LINE",
"276 288 LINE",
"311 281 LINE",
"289 326 OFFCURVE",
"265 367 OFFCURVE",
"192 367 CURVE SMOOTH",
"110 367 OFFCURVE",
"9 296 OFFCURVE",
"-10 187 CURVE SMOOTH",
"-30 73 OFFCURVE",
"44 -14 OFFCURVE",
"163 -11 CURVE SMOOTH"
);
}
);
width = 394;
}
);
leftKerningGroup = o;
leftMetricsKey = "=o";
rightKerningGroup = c;
unicode = 0063;
},
{
glyphname = d;
lastChange = "2015-11-11 18:41:44 +0000";
layers = (
{
anchors = (
{
name = bottom;
position = "{339, -10}";
},
{
name = center;
position = "{372, 179}";
},
{
name = top;
position = "{406, 367}";
},
{
name = topright;
position = "{777, 357}";
}
);
layerId = "B29C398E-974A-40D0-A0A0-00935056D4B4";
name = "Light Extended";
paths = (
{
closed = 1;
nodes = (
"362 -11 OFFCURVE",
"489 52 OFFCURVE",
"614 136 CURVE",
"616 161 LINE",
"482 73 OFFCURVE",
"349 12 OFFCURVE",
"239 12 CURVE",
"114 12 OFFCURVE",
"49 72 OFFCURVE",
"65 159 CURVE",
"84 270 OFFCURVE",
"218 344 OFFCURVE",
"363 343 CURVE",
"476 344 OFFCURVE",
"575 301 OFFCURVE",
"639 261 CURVE",
"641 283 LINE",
"579 324 OFFCURVE",
"487 366 OFFCURVE",
"364 366 CURVE",
"210 366 OFFCURVE",
"64 290 OFFCURVE",
"42 163 CURVE",
"23 54 OFFCURVE",
"102 -11 OFFCURVE",
"239 -11 CURVE"
);
},
{
closed = 1;
nodes = (
"689 -10 OFFCURVE",
"716 1 OFFCURVE",
"742 18 CURVE",
"735 40 LINE",
"710 23 OFFCURVE",
"688 13 OFFCURVE",
"661 13 CURVE SMOOTH",
"631 13 OFFCURVE",
"607 37 OFFCURVE",
"617 93 CURVE SMOOTH",
"692 520 LINE",
"668 520 LINE",
"593 95 LINE SMOOTH",
"582 29 OFFCURVE",
"611 -10 OFFCURVE",
"660 -10 CURVE SMOOTH"
);
},
{
closed = 1;
nodes = (
"679 497 LINE",
"683 520 LINE",
"495 520 LINE",
"491 497 LINE"
);
}
);
width = 815;
},
{
anchors = (
{
name = bottom;
position = "{132, -20}";
},
{
name = center;
position = "{167, 179}";
},
{
name = top;
position = "{202, 377}";
},
{
name = topright;
position = "{354, 357}";
}
);
background = {
paths = (
{
closed = 1;
nodes = (
"328 330 OFFCURVE",
"284 365 OFFCURVE",
"211 365 CURVE",
"135 365 OFFCURVE",
"45 305 OFFCURVE",
"45 174 CURVE",
"45 46 OFFCURVE",
"115 -20 OFFCURVE",
"203 -20 CURVE SMOOTH",
"272 -20 OFFCURVE",
"326 22 OFFCURVE",
"372 74 CURVE",
"372 94 LINE",
"322 42 OFFCURVE",
"261 4 OFFCURVE",
"203 4 CURVE SMOOTH",
"129 4 OFFCURVE",
"70 69 OFFCURVE",
"70 174 CURVE",
"70 285 OFFCURVE",
"146 342 OFFCURVE",
"211 342 CURVE",
"274 342 OFFCURVE",
"326 307 OFFCURVE",
"375 270 CURVE",
"375 290 LINE"
);
}
);
};
layerId = "543F9737-16F7-428D-9F96-2EBD9FC8D3B6";
name = Light;
paths = (
{
closed = 1;
nodes = (
"202 -10 OFFCURVE",
"262 30 OFFCURVE",
"303 66 CURVE",
"306 95 LINE",
"259 53 OFFCURVE",
"205 14 OFFCURVE",
"138 13 CURVE SMOOTH",
"65 12 OFFCURVE",
"16 71 OFFCURVE",
"33 169 CURVE SMOOTH",
"51 271 OFFCURVE",
"132 345 OFFCURVE",
"212 345 CURVE SMOOTH",
"274 345 OFFCURVE",
"314 312 OFFCURVE",
"345 269 CURVE",
"347 290 LINE",
"316 332 OFFCURVE",
"276 367 OFFCURVE",
"212 367 CURVE SMOOTH",
"123 367 OFFCURVE",
"31 291 OFFCURVE",
"10 172 CURVE SMOOTH",
"-10 60 OFFCURVE",
"50 -10 OFFCURVE",
"138 -10 CURVE SMOOTH"
);
},
{
closed = 1;
nodes = (
"346 -10 OFFCURVE",
"360 -6 OFFCURVE",
"370 1 CURVE",
"367 25 LINE",
"359 19 OFFCURVE",
"346 14 OFFCURVE",
"333 14 CURVE SMOOTH",
"315 14 OFFCURVE",
"306 28 OFFCURVE",
"313 67 CURVE SMOOTH",
"393 520 LINE",
"370 520 LINE",
"290 69 LINE SMOOTH",
"281 19 OFFCURVE",
"295 -10 OFFCURVE",
"331 -10 CURVE SMOOTH"
);
},
{
closed = 1;
nodes = (
"389 497 LINE",
"393 520 LINE",
"282 520 LINE",
"278 497 LINE"
);
}
);
width = 461;
},
{
anchors = (
{
name = bottom;
position = "{132, -8}";
},
{
name = center;
position = "{165, 179}";
},
{
name = top;
position = "{198, 365}";
},
{
name = topright;
position = "{490, 357}";
}
);
layerId = "EB38A4D2-CD30-49BA-8E45-1F04A566FFE8";
name = Bold;
paths = (
{
closed = 1;
nodes = (
"224 -11 OFFCURVE",
"285 55 OFFCURVE",
"328 95 CURVE",
"340 184 LINE",
"293 142 OFFCURVE",
"230 87 OFFCURVE",
"175 86 CURVE SMOOTH",
"122 85 OFFCURVE",
"100 121 OFFCURVE",
"108 169 CURVE SMOOTH",
"119 228 OFFCURVE",
"166 272 OFFCURVE",
"229 272 CURVE SMOOTH",
"276 272 OFFCURVE",
"319 228 OFFCURVE",
"342 185 CURVE",
"351 256 LINE",
"329 298 OFFCURVE",
"294 367 OFFCURVE",
"204 367 CURVE SMOOTH",
"95 367 OFFCURVE",
"8 289 OFFCURVE",
"-10 185 CURVE SMOOTH",
"-30 73 OFFCURVE",
"38 -11 OFFCURVE",
"138 -11 CURVE SMOOTH"
);
},
{
closed = 1;
nodes = (
"377 -6 OFFCURVE",
"404 1 OFFCURVE",
"418 9 CURVE",
"405 94 LINE",
"402 92 OFFCURVE",
"395 88 OFFCURVE",
"384 88 CURVE SMOOTH",
"378 88 OFFCURVE",
"373 90 OFFCURVE",
"376 107 CURVE SMOOTH",
"449 520 LINE",
"338 520 LINE",
"265 104 LINE SMOOTH",
"253 35 OFFCURVE",
"290 -6 OFFCURVE",
"352 -6 CURVE SMOOTH"
);
},
{
closed = 1;
nodes = (
"421 430 LINE",
"437 520 LINE",
"271 520 LINE",
"255 430 LINE"
);
}
);
width = 482;
}
);
leftKerningGroup = o;
leftMetricsKey = "=o";
rightKerningGroup = l;
unicode = 0064;
},
{
glyphname = d.alt;
lastChange = "2015-11-11 18:41:44 +0000";
layers = (
{
anchors = (
{
name = bottom;
position = "{354, -10}";
},
{
name = center;
position = "{388, 179}";
},
{
name = top;
position = "{421, 367}";
},
{
name = topright;
position = "{808, 357}";
}
);
layerId = "B29C398E-974A-40D0-A0A0-00935056D4B4";
name = "Light Extended";
paths = (
{
closed = 1;
nodes = (
"362 -11 OFFCURVE",
"489 52 OFFCURVE",
"614 136 CURVE",
"616 161 LINE",
"482 73 OFFCURVE",
"349 12 OFFCURVE",
"239 12 CURVE",
"114 12 OFFCURVE",
"49 72 OFFCURVE",
"65 159 CURVE",
"84 270 OFFCURVE",
"218 344 OFFCURVE",
"363 343 CURVE",
"476 344 OFFCURVE",
"575 301 OFFCURVE",
"639 261 CURVE",
"641 283 LINE",
"579 324 OFFCURVE",
"487 366 OFFCURVE",
"364 366 CURVE",
"210 366 OFFCURVE",
"64 290 OFFCURVE",
"42 163 CURVE",
"23 54 OFFCURVE",
"102 -11 OFFCURVE",
"239 -11 CURVE"
);
},
{
closed = 1;
nodes = (
"725 -10 OFFCURVE",
"755 48 OFFCURVE",
"764 97 CURVE SMOOTH",
"766 112 LINE",
"743 112 LINE",
"741 99 LINE SMOOTH",
"732 49 OFFCURVE",
"704 13 OFFCURVE",
"663 13 CURVE SMOOTH",
"621 13 OFFCURVE",
"608 47 OFFCURVE",
"619 107 CURVE SMOOTH",
"692 520 LINE",
"668 520 LINE",
"596 109 LINE SMOOTH",
"583 40 OFFCURVE",
"601 -10 OFFCURVE",
"662 -10 CURVE SMOOTH"
);
},
{
closed = 1;
nodes = (
"679 497 LINE",
"683 520 LINE",
"495 520 LINE",
"491 497 LINE"
);
}
);
width = 824;
},
{
anchors = (
{
name = bottom;
position = "{127, -20}";
},
{
name = center;
position = "{143, 179}";
},
{
name = top;
position = "{207, 377}";
},
{
name = topright;
position = "{473, 357}";
}
);
background = {
paths = (
{
closed = 1;
nodes = (
"272 -20 OFFCURVE",
"326 22 OFFCURVE",
"372 74 CURVE",
"372 94 LINE",
"322 42 OFFCURVE",
"261 4 OFFCURVE",
"203 4 CURVE SMOOTH",
"129 4 OFFCURVE",
"70 69 OFFCURVE",
"70 174 CURVE",
"70 285 OFFCURVE",
"146 342 OFFCURVE",
"211 342 CURVE",
"274 342 OFFCURVE",
"326 307 OFFCURVE",
"375 270 CURVE",
"375 290 LINE",
"328 330 OFFCURVE",
"284 365 OFFCURVE",
"211 365 CURVE",
"135 365 OFFCURVE",
"45 305 OFFCURVE",
"45 174 CURVE",
"45 46 OFFCURVE",
"115 -20 OFFCURVE",
"203 -20 CURVE SMOOTH"
);
},
{
closed = 1;
nodes = (
"470 -20 OFFCURVE",
"499 13 OFFCURVE",
"499 55 CURVE SMOOTH",
"499 74 LINE",
"477 74 LINE",
"477 55 LINE SMOOTH",
"477 24 OFFCURVE",
"462 4 OFFCURVE",
"430 4 CURVE SMOOTH",
"401 4 OFFCURVE",
"383 21 OFFCURVE",
"383 55 CURVE SMOOTH",
"383 520 LINE",
"359 520 LINE",
"359 55 LINE SMOOTH",
"359 11 OFFCURVE",
"385 -20 OFFCURVE",
"429 -20 CURVE SMOOTH"
);
},
{
closed = 1;
nodes = (
"383 495 LINE",
"383 520 LINE",
"267 520 LINE",
"267 495 LINE"
);
},
{
closed = 0;
nodes = (
"551 70 LINE SMOOTH",
"551 26 OFFCURVE",
"577 -5 OFFCURVE",
"616 -5 CURVE SMOOTH",
"654 -5 OFFCURVE",
"679 26 OFFCURVE",
"679 68 CURVE SMOOTH",
"679 87 LINE",
"656 87 LINE",
"656 68 LINE SMOOTH",
"656 39 OFFCURVE",
"642 18 OFFCURVE",
"616 18 CURVE SMOOTH",
"591 18 OFFCURVE",
"575 37 OFFCURVE",
"575 70 CURVE SMOOTH"
);
}
);
};
layerId = "543F9737-16F7-428D-9F96-2EBD9FC8D3B6";
name = Light;
paths = (
{
closed = 1;
nodes = (
"202 -10 OFFCURVE",
"262 30 OFFCURVE",
"303 66 CURVE",
"306 95 LINE",
"259 53 OFFCURVE",
"205 14 OFFCURVE",
"138 13 CURVE SMOOTH",
"65 12 OFFCURVE",
"16 71 OFFCURVE",
"33 169 CURVE SMOOTH",
"51 271 OFFCURVE",
"132 345 OFFCURVE",
"212 345 CURVE SMOOTH",
"274 345 OFFCURVE",
"314 312 OFFCURVE",
"345 269 CURVE",
"347 290 LINE",
"316 332 OFFCURVE",
"276 367 OFFCURVE",
"212 367 CURVE SMOOTH",
"123 367 OFFCURVE",
"31 291 OFFCURVE",
"10 172 CURVE SMOOTH",
"-10 60 OFFCURVE",
"50 -10 OFFCURVE",
"138 -10 CURVE SMOOTH"
);
},
{
closed = 1;
nodes = (
"376 -5 OFFCURVE",
"404 25 OFFCURVE",
"412 67 CURVE SMOOTH",
"415 87 LINE",
"393 87 LINE",
"390 69 LINE SMOOTH",
"385 40 OFFCURVE",
"367 18 OFFCURVE",
"341 18 CURVE SMOOTH",
"318 18 OFFCURVE",
"307 36 OFFCURVE",
"313 69 CURVE SMOOTH",
"393 520 LINE",
"370 520 LINE",
"291 71 LINE SMOOTH",
"283 27 OFFCURVE",
"303 -5 OFFCURVE",
"341 -5 CURVE SMOOTH"
);
},
{
closed = 1;
nodes = (
"389 497 LINE",
"393 520 LINE",
"282 520 LINE",
"278 497 LINE"
);
}
);
width = 467;
},
{
anchors = (
{
name = bottom;
position = "{134, -8}";
},
{
name = center;
position = "{171, 179}";
},
{
name = top;
position = "{209, 365}";
},
{
name = topright;
position = "{501, 357}";
}
);
layerId = "EB38A4D2-CD30-49BA-8E45-1F04A566FFE8";
name = Bold;
paths = (
{
closed = 1;
nodes = (
"224 -11 OFFCURVE",
"285 55 OFFCURVE",
"328 95 CURVE",
"340 184 LINE",
"293 142 OFFCURVE",
"230 87 OFFCURVE",
"175 86 CURVE SMOOTH",
"122 85 OFFCURVE",
"100 121 OFFCURVE",
"108 169 CURVE SMOOTH",
"119 228 OFFCURVE",
"166 272 OFFCURVE",
"229 272 CURVE SMOOTH",
"276 272 OFFCURVE",
"319 228 OFFCURVE",
"342 185 CURVE",
"351 256 LINE",
"329 298 OFFCURVE",
"294 367 OFFCURVE",
"204 367 CURVE SMOOTH",
"95 367 OFFCURVE",
"8 289 OFFCURVE",
"-10 185 CURVE SMOOTH",
"-30 73 OFFCURVE",
"38 -11 OFFCURVE",
"138 -11 CURVE SMOOTH"
);
},
{
closed = 1;
nodes = (
"403 -11 OFFCURVE",
"440 18 OFFCURVE",
"451 81 CURVE SMOOTH",
"461 138 LINE",
"407 138 LINE",
"398 88 LINE SMOOTH",
"396 77 OFFCURVE",
"388 63 OFFCURVE",
"374 63 CURVE SMOOTH",
"366 63 OFFCURVE",
"369 70 OFFCURVE",
"371 79 CURVE SMOOTH",
"449 520 LINE",
"338 520 LINE",
"262 89 LINE SMOOTH",
"252 31 OFFCURVE",
"289 -11 OFFCURVE",
"350 -11 CURVE SMOOTH"
);
},
{
closed = 1;
nodes = (
"421 430 LINE",
"437 520 LINE",
"271 520 LINE",
"255 430 LINE"
);
}
);
width = 492;
}
);
leftKerningGroup = d.alt;
leftMetricsKey = "=d";
rightKerningGroup = d.alt;
rightMetricsKey = a.alt;
},
{
glyphname = eth;
lastChange = "2015-11-11 18:41:44 +0000";
layers = (
{
layerId = "B29C398E-974A-40D0-A0A0-00935056D4B4";
name = "Light Extended";
paths = (
{
closed = 1;
nodes = (
"430 -20 OFFCURVE",
"574 61 OFFCURVE",
"602 222 CURVE SMOOTH",
"636 416 OFFCURVE",
"475 541 OFFCURVE",
"241 572 CURVE",
"233 549 LINE",
"471 517 OFFCURVE",
"611 401 OFFCURVE",
"580 226 CURVE SMOOTH",
"554 75 OFFCURVE",
"417 4 OFFCURVE",
"269 4 CURVE SMOOTH",
"133 4 OFFCURVE",
"48 63 OFFCURVE",
"63 146 CURVE SMOOTH",
"78 233 OFFCURVE",
"175 292 OFFCURVE",
"310 292 CURVE SMOOTH",
"422 292 OFFCURVE",
"519 254 OFFCURVE",
"584 199 CURVE",
"586 224 LINE",
"522 276 OFFCURVE",
"418 315 OFFCURVE",
"313 315 CURVE SMOOTH",
"178 315 OFFCURVE",
"58 256 OFFCURVE",
"39 149 CURVE SMOOTH",
"21 44 OFFCURVE",
"128 -20 OFFCURVE",
"269 -20 CURVE SMOOTH"
);
},
{
closed = 1;
nodes = (
"532 605 LINE",
"516 617 LINE",
"315 378 LINE",
"330 367 LINE"
);
}
);
width = 712;
},
{
layerId = "543F9737-16F7-428D-9F96-2EBD9FC8D3B6";
name = Light;
paths = (
{
closed = 1;
nodes = (
"239 -20 OFFCURVE",
"338 71 OFFCURVE",
"363 212 CURVE SMOOTH",
"395 396 OFFCURVE",
"300 531 OFFCURVE",
"127 572 CURVE",
"118 548 LINE",
"290 508 OFFCURVE",
"370 381 OFFCURVE",
"341 216 CURVE SMOOTH",
"318 85 OFFCURVE",
"226 4 OFFCURVE",
"131 4 CURVE SMOOTH",
"45 4 OFFCURVE",
"-4 65 OFFCURVE",
"10 144 CURVE SMOOTH",
"25 227 OFFCURVE",
"96 292 OFFCURVE",
"182 292 CURVE SMOOTH",
"258 292 OFFCURVE",
"314 253 OFFCURVE",
"345 195 CURVE",
"349 218 LINE",
"319 273 OFFCURVE",
"260 315 OFFCURVE",
"183 315 CURVE SMOOTH",
"93 315 OFFCURVE",
"5 250 OFFCURVE",
"-13 147 CURVE SMOOTH",
"-31 46 OFFCURVE",
"37 -20 OFFCURVE",
"130 -20 CURVE SMOOTH"
);
},
{
closed = 1;
nodes = (
"341 582 LINE",
"327 595 LINE",
"150 378 LINE",
"165 366 LINE"
);
}
);
width = 422;
},
{
layerId = "EB38A4D2-CD30-49BA-8E45-1F04A566FFE8";
name = Bold;
paths = (
{
closed = 1;
nodes = (
"258 -18 OFFCURVE",
"371 56 OFFCURVE",
"395 196 CURVE SMOOTH",
"426 369 OFFCURVE",
"327 515 OFFCURVE",
"154 594 CURVE",
"103 500 LINE",
"245 432 OFFCURVE",
"304 336 OFFCURVE",
"281 206 CURVE SMOOTH",
"264 106 OFFCURVE",
"202 70 OFFCURVE",
"151 70 CURVE SMOOTH",
"117 70 OFFCURVE",
"94 96 OFFCURVE",
"101 137 CURVE SMOOTH",
"109 184 OFFCURVE",
"157 221 OFFCURVE",
"207 221 CURVE SMOOTH",
"243 221 OFFCURVE",
"298 202 OFFCURVE",
"321 162 CURVE",
"334 236 LINE",
"296 287 OFFCURVE",
"248 310 OFFCURVE",
"181 310 CURVE SMOOTH",
"84 310 OFFCURVE",
"-3 240 OFFCURVE",
"-18 153 CURVE SMOOTH",
"-36 53 OFFCURVE",
"32 -20 OFFCURVE",
"147 -19 CURVE SMOOTH"
);
},
{
closed = 1;
nodes = (
"356 567 LINE",
"298 619 LINE",
"108 399 LINE",
"168 348 LINE"
);
}
);
width = 445;
}
);
leftKerningGroup = eth;
rightKerningGroup = eth;
unicode = 00F0;
},
{
glyphname = e;
lastChange = "2015-11-11 18:41:44 +0000";
layers = (
{
anchors = (
{
name = bottom;
position = "{292, -10}";
},
{
name = ogonek;
position = "{583, 65}";
},
{
name = top;
position = "{359, 367}";
}
);
background = {
paths = (
{
closed = 1;
nodes = (
"657 74 LINE",
"581 30 OFFCURVE",
"490 2 OFFCURVE",
"373 3 CURVE",
"244 2 OFFCURVE",
"105 62 OFFCURVE",
"105 167 CURVE",
"105 290 OFFCURVE",
"265 353 OFFCURVE",
"410 353 CURVE SMOOTH",
"540 353 OFFCURVE",
"642 324 OFFCURVE",
"642 258 CURVE SMOOTH",
"642 192 OFFCURVE",
"533 165 OFFCURVE",
"418 165 CURVE SMOOTH",
"320 165 OFFCURVE",
"189 188 OFFCURVE",
"99 217 CURVE",
"100 194 LINE",
"189 165 OFFCURVE",
"320 142 OFFCURVE",
"418 142 CURVE SMOOTH",
"548 142 OFFCURVE",
"667 179 OFFCURVE",
"667 260 CURVE SMOOTH",
"667 340 OFFCURVE",
"553 376 OFFCURVE",
"414 376 CURVE SMOOTH",
"254 376 OFFCURVE",
"80 307 OFFCURVE",
"80 167 CURVE",
"80 41 OFFCURVE",
"234 -20 OFFCURVE",
"373 -20 CURVE",
"494 -20 OFFCURVE",
"591 9 OFFCURVE",
"668 55 CURVE"
);
}
);
};
layerId = "B29C398E-974A-40D0-A0A0-00935056D4B4";
name = "Light Extended";
paths = (
{
closed = 1;
nodes = (
"575 84 LINE",
"495 40 OFFCURVE",
"413 12 OFFCURVE",
"301 13 CURVE",
"170 12 OFFCURVE",
"48 66 OFFCURVE",
"66 165 CURVE",
"88 290 OFFCURVE",
"250 344 OFFCURVE",
"389 344 CURVE SMOOTH",
"512 344 OFFCURVE",
"603 316 OFFCURVE",
"593 260 CURVE SMOOTH",
"582 198 OFFCURVE",
"482 170 OFFCURVE",
"362 170 CURVE SMOOTH",
"270 170 OFFCURVE",
"150 193 OFFCURVE",
"69 222 CURVE",
"68 199 LINE",
"148 170 OFFCURVE",
"268 147 OFFCURVE",
"362 147 CURVE SMOOTH",
"494 147 OFFCURVE",
"603 183 OFFCURVE",
"616 258 CURVE SMOOTH",
"629 330 OFFCURVE",
"526 367 OFFCURVE",
"393 367 CURVE SMOOTH",
"242 367 OFFCURVE",
"68 309 OFFCURVE",
"43 169 CURVE",
"21 47 OFFCURVE",
"159 -10 OFFCURVE",
"301 -10 CURVE",
"415 -10 OFFCURVE",
"503 19 OFFCURVE",
"584 65 CURVE"
);
}
);
width = 720;
},
{
anchors = (
{
name = bottom;
position = "{148, -20}";
},
{
name = ogonek;
position = "{299, 49}";
},
{
name = top;
position = "{220, 387}";
}
);
background = {
paths = (
{
closed = 1;
nodes = (
"105 -10 OFFCURVE",
"22 63 OFFCURVE",
"22 178 CURVE",
"22 293 OFFCURVE",
"105 366 OFFCURVE",
"207 367 CURVE",
"309 366 OFFCURVE",
"392 293 OFFCURVE",
"392 178 CURVE",
"392 63 OFFCURVE",
"309 -10 OFFCURVE",
"207 -11 CURVE"
);
},
{
closed = 1;
nodes = (
"114 344 OFFCURVE",
"48 277 OFFCURVE",
"48 178 CURVE",
"48 79 OFFCURVE",
"114 12 OFFCURVE",
"207 12 CURVE",
"300 12 OFFCURVE",
"366 79 OFFCURVE",
"366 178 CURVE",
"366 277 OFFCURVE",
"300 344 OFFCURVE",
"207 344 CURVE"
);
}
);
};
layerId = "543F9737-16F7-428D-9F96-2EBD9FC8D3B6";
name = Light;
paths = (
{
closed = 1;
nodes = (
"288 68 LINE",
"250 37 OFFCURVE",
"211 14 OFFCURVE",
"154 13 CURVE SMOOTH",
"78 12 OFFCURVE",
"16 71 OFFCURVE",
"33 165 CURVE SMOOTH",
"53 281 OFFCURVE",
"146 343 OFFCURVE",
"220 343 CURVE SMOOTH",
"282 343 OFFCURVE",
"320 310 OFFCURVE",
"311 259 CURVE SMOOTH",
"302 205 OFFCURVE",
"239 180 OFFCURVE",
"184 180 CURVE SMOOTH",
"128 180 OFFCURVE",
"80 195 OFFCURVE",
"34 213 CURVE",
"34 192 LINE",
"78 174 OFFCURVE",
"126 157 OFFCURVE",
"184 157 CURVE SMOOTH",
"251 157 OFFCURVE",
"323 190 OFFCURVE",
"334 255 CURVE SMOOTH",
"346 319 OFFCURVE",
"296 366 OFFCURVE",
"220 366 CURVE SMOOTH",
"137 366 OFFCURVE",
"33 300 OFFCURVE",
"10 169 CURVE SMOOTH",
"-11 52 OFFCURVE",
"66 -10 OFFCURVE",
"154 -10 CURVE SMOOTH",
"213 -10 OFFCURVE",
"258 15 OFFCURVE",
"300 48 CURVE"
);
}
);
width = 401;
},
{
anchors = (
{
name = bottom;
position = "{166, -11}";
},
{
name = ogonek;
position = "{353, 56}";
},
{
name = top;
position = "{225, 367}";
}
);
layerId = "EB38A4D2-CD30-49BA-8E45-1F04A566FFE8";
name = Bold;
paths = (
{
closed = 1;
nodes = (
"324 142 LINE",
"284 110 OFFCURVE",
"236 85 OFFCURVE",
"186 85 CURVE SMOOTH",
"141 85 OFFCURVE",
"93 113 OFFCURVE",
"104 179 CURVE SMOOTH",
"116 243 OFFCURVE",
"173 281 OFFCURVE",
"216 281 CURVE SMOOTH",
"243 281 OFFCURVE",
"258 265 OFFCURVE",
"256 253 CURVE SMOOTH",
"252 231 OFFCURVE",
"227 203 OFFCURVE",
"177 203 CURVE SMOOTH",
"138 203 OFFCURVE",
"73 209 OFFCURVE",
"35 253 CURVE",
"29 199 LINE",
"65 160 OFFCURVE",
"130 125 OFFCURVE",
"207 125 CURVE SMOOTH",
"261 125 OFFCURVE",
"356 153 OFFCURVE",
"370 233 CURVE SMOOTH",
"384 309 OFFCURVE",
"320 367 OFFCURVE",
"218 367 CURVE SMOOTH",
"118 367 OFFCURVE",
"10 302 OFFCURVE",
"-10 185 CURVE SMOOTH",
"-32 64 OFFCURVE",
"56 -11 OFFCURVE",
"173 -11 CURVE SMOOTH",
"242 -11 OFFCURVE",
"307 17 OFFCURVE",
"355 53 CURVE"
);
}
);
width = 412;
}
);
leftKerningGroup = o;
leftMetricsKey = "=o";
rightKerningGroup = e;
unicode = 0065;
},
{
glyphname = f;
lastChange = "2015-11-11 18:41:44 +0000";
layers = (
{
anchors = (
{
name = bottom;
position = "{180, 0}";
},
{
name = top;
position = "{278, 557}";
}
);
background = {
paths = (
{
closed = 1;
nodes = (
"120 0 LINE",
"472 0 LINE",
"472 25 LINE",
"120 25 LINE"
);
},
{
closed = 1;
nodes = (
"252 0 LINE",
"277 0 LINE",
"277 428 LINE",
"277 515 OFFCURVE",
"326 560 OFFCURVE",
"422 560 CURVE SMOOTH",
"490 560 OFFCURVE",
"551 545 OFFCURVE",
"582 531 CURVE",
"582 449 LINE",
"607 449 LINE",
"607 548 LINE",
"561 568 OFFCURVE",
"498 585 OFFCURVE",
"424 585 CURVE SMOOTH",
"309 585 OFFCURVE",
"252 524 OFFCURVE",
"252 426 CURVE"
);
},
{
closed = 1;
nodes = (
"501 357 LINE",
"148 357 LINE",
"148 333 LINE",
"501 333 LINE"
);
}
);
};
layerId = "B29C398E-974A-40D0-A0A0-00935056D4B4";
name = "Light Extended";
paths = (
{
closed = 1;
nodes = (
"-15 0 LINE",
"343 0 LINE",
"347 23 LINE",
"-11 23 LINE"
);
},
{
closed = 1;
nodes = (
"137 0 LINE",
"160 0 LINE",
"229 387 LINE",
"246 484 OFFCURVE",
"295 532 OFFCURVE",
"387 532 CURVE SMOOTH",
"440 532 OFFCURVE",
"506 514 OFFCURVE",
"554 490 CURVE",
"563 513 LINE",
"514 535 OFFCURVE",
"451 555 OFFCURVE",
"389 555 CURVE SMOOTH",
"281 555 OFFCURVE",
"224 495 OFFCURVE",
"205 387 CURVE"
);
},
{
closed = 1;
nodes = (
"436 357 LINE",
"47 357 LINE",
"43 334 LINE",
"432 334 LINE"
);
}
);
width = 527;
},
{
anchors = (
{
name = bottom;
position = "{73, 0}";
},
{
name = top;
position = "{136, 357}";
}
);
background = {
paths = (
{
closed = 1;
nodes = (
"7 0 LINE",
"263 0 LINE",
"263 83 LINE",
"7 83 LINE"
);
},
{
closed = 1;
nodes = (
"81 0 LINE",
"178 0 LINE",
"178 406 LINE SMOOTH",
"178 441 OFFCURVE",
"205 468 OFFCURVE",
"251 468 CURVE SMOOTH",
"290 468 OFFCURVE",
"316 455 OFFCURVE",
"352 436 CURVE",
"387 515 LINE",
"341 536 OFFCURVE",
"300 555 OFFCURVE",
"239 555 CURVE SMOOTH",
"144 555 OFFCURVE",
"81 497 OFFCURVE",
"81 404 CURVE SMOOTH"
);
},
{
closed = 1;
nodes = (
"287 357 LINE",
"7 357 LINE",
"7 274 LINE",
"287 274 LINE"
);
}
);
};
layerId = "543F9737-16F7-428D-9F96-2EBD9FC8D3B6";
name = Light;
paths = (
{
closed = 1;
nodes = (
"-39 0 LINE",
"164 0 LINE",
"168 23 LINE",
"-35 23 LINE"
);
},
{
closed = 1;
nodes = (
"48 0 LINE",
"72 0 LINE",
"145 417 LINE",
"161 504 OFFCURVE",
"209 532 OFFCURVE",
"258 532 CURVE SMOOTH",
"293 532 OFFCURVE",
"329 518 OFFCURVE",
"352 504 CURVE",
"364 525 LINE",
"338 538 OFFCURVE",
"302 555 OFFCURVE",
"258 555 CURVE SMOOTH",
"193 555 OFFCURVE",
"139 515 OFFCURVE",
"122 417 CURVE"
);
},
{
closed = 1;
nodes = (
"250 357 LINE",
"24 357 LINE",
"20 334 LINE",
"246 334 LINE"
);
}
);
width = 287;
},
{
anchors = (
{
name = bottom;
position = "{83, 0}";
},
{
name = top;
position = "{189, 601}";
}
);
layerId = "EB38A4D2-CD30-49BA-8E45-1F04A566FFE8";
name = Bold;
paths = (
{
closed = 1;
nodes = (
"-39 0 LINE",
"214 0 LINE",
"230 90 LINE",
"-23 90 LINE"
);
},
{
closed = 1;
nodes = (
"37 50 LINE",
"144 50 LINE",
"206 399 LINE",
"210 423 OFFCURVE",
"240 454 OFFCURVE",
"287 454 CURVE SMOOTH",
"320 454 OFFCURVE",
"340 443 OFFCURVE",
"373 423 CURVE",
"422 511 LINE",
"378 534 OFFCURVE",
"343 555 OFFCURVE",
"277 555 CURVE SMOOTH",
"186 555 OFFCURVE",
"116 497 OFFCURVE",
"100 405 CURVE"
);
},
{
closed = 1;
nodes = (
"300 357 LINE",
"24 357 LINE",
"8 267 LINE",
"284 267 LINE"
);
}
);
width = 327;
}
);
leftKerningGroup = f;
leftMetricsKey = "=n";
rightKerningGroup = f;
unicode = 0066;
},
{
glyphname = f.alt;
lastChange = "2015-11-11 18:41:44 +0000";
layers = (
{
anchors = (
{
name = bottom;
position = "{193, 0}";
},
{
name = top;
position = "{291, 557}";
}
);
background = {
paths = (
{
closed = 1;
nodes = (
"106 357 LINE",
"106 333 LINE",
"389 333 LINE",
"389 357 LINE"
);
},
{
closed = 1;
nodes = (
"78 0 LINE",
"395 0 LINE",
"395 25 LINE",
"78 25 LINE"
);
},
{
closed = 1;
nodes = (
"155 416 OFFCURVE",
"211 407 OFFCURVE",
"211 381 CURVE",
"211 0 LINE",
"235 0 LINE",
"235 384 LINE",
"235 413 OFFCURVE",
"179 427 OFFCURVE",
"179 449 CURVE",
"179 529 OFFCURVE",
"225 560 OFFCURVE",
"293 560 CURVE SMOOTH",
"346 560 OFFCURVE",
"387 547 OFFCURVE",
"414 531 CURVE",
"414 449 LINE",
"439 449 LINE",
"439 548 LINE",
"397 569 OFFCURVE",
"355 585 OFFCURVE",
"295 585 CURVE SMOOTH",
"208 585 OFFCURVE",
"154 538 OFFCURVE",
"155 447 CURVE"
);
}
);
};
layerId = "B29C398E-974A-40D0-A0A0-00935056D4B4";
name = "Light Extended";
paths = (
{
closed = 1;
nodes = (
"165 414 OFFCURVE",
"189 381 OFFCURVE",
"220 349 CURVE",
"157 0 LINE",
"181 0 LINE",
"241 347 LINE",
"212 383 OFFCURVE",
"189 417 OFFCURVE",
"196 453 CURVE",
"203 498 OFFCURVE",
"250 532 OFFCURVE",
"323 532 CURVE SMOOTH",
"398 532 OFFCURVE",
"451 510 OFFCURVE",
"491 490 CURVE",
"503 511 LINE",
"456 534 OFFCURVE",
"400 555 OFFCURVE",
"325 555 CURVE SMOOTH",
"237 555 OFFCURVE",
"182 512 OFFCURVE",
"172 457 CURVE"
);
},
{
closed = 1;
nodes = (
"47 357 LINE",
"43 334 LINE",
"413 334 LINE",
"417 357 LINE"
);
},
{
closed = 1;
nodes = (
"-15 0 LINE",
"359 0 LINE",
"363 23 LINE",
"-11 23 LINE"
);
}
);
width = 519;
},
{
anchors = (
{
name = bottom;
position = "{41, 0}";
},
{
name = top;
position = "{104, 357}";
}
);
layerId = "543F9737-16F7-428D-9F96-2EBD9FC8D3B6";
name = Light;
paths = (
{
closed = 1;
nodes = (
"66 427 OFFCURVE",
"83 388 OFFCURVE",
"111 349 CURVE",
"48 0 LINE",
"72 0 LINE",
"132 347 LINE",
"106 390 OFFCURVE",
"90 426 OFFCURVE",
"96 461 CURVE SMOOTH",
"104 503 OFFCURVE",
"147 532 OFFCURVE",
"193 532 CURVE SMOOTH",
"238 532 OFFCURVE",
"273 519 OFFCURVE",
"298 503 CURVE",
"311 523 LINE",
"282 540 OFFCURVE",
"242 555 OFFCURVE",
"195 555 CURVE SMOOTH",
"134 555 OFFCURVE",
"83 518 OFFCURVE",
"73 465 CURVE SMOOTH"
);
},
{
closed = 1;
nodes = (
"24 357 LINE",
"20 334 LINE",
"234 334 LINE",
"238 357 LINE"
);
},
{
closed = 1;
nodes = (
"-39 0 LINE",
"164 0 LINE",
"168 23 LINE",
"-35 23 LINE"
);
}
);
width = 273;
},
{
anchors = (
{
name = bottom;
position = "{137, 0}";
},
{
name = top;
position = "{243, 601}";
}
);
layerId = "EB38A4D2-CD30-49BA-8E45-1F04A566FFE8";
name = Bold;
paths = (
{
closed = 1;
nodes = (
"44 408 OFFCURVE",
"69 380 OFFCURVE",
"95 362 CURVE",
"37 50 LINE",
"146 50 LINE",
"196 347 LINE",
"169 357 OFFCURVE",
"152 375 OFFCURVE",
"156 394 CURVE SMOOTH",
"161 425 OFFCURVE",
"195 450 OFFCURVE",
"246 450 CURVE SMOOTH",
"273 450 OFFCURVE",
"303 444 OFFCURVE",
"331 430 CURVE",
"375 522 LINE",
"328 540 OFFCURVE",
"285 555 OFFCURVE",
"213 555 CURVE SMOOTH",
"134 555 OFFCURVE",
"62 512 OFFCURVE",
"53 456 CURVE SMOOTH"
);
},
{
closed = 1;
nodes = (
"24 357 LINE",
"8 267 LINE",
"261 267 LINE",
"276 357 LINE"
);
},
{
closed = 1;
nodes = (
"-39 0 LINE",
"216 0 LINE",
"232 90 LINE",
"-23 90 LINE"
);
}
);
width = 315;
}
);
leftKerningGroup = f.alt;
leftMetricsKey = n;
rightKerningGroup = f.alt;
},
{
glyphname = g;
lastChange = "2015-11-11 18:41:44 +0000";
layers = (
{
anchors = (
{
name = bottom;
position = "{257, -164}";
},
{
name = top;
position = "{359, 367}";
}
);
guideLines = (
{
position = "{80, 219}";
}
);
layerId = "B29C398E-974A-40D0-A0A0-00935056D4B4";
name = "Light Extended";
paths = (
{
closed = 1;
nodes = (
"425 -165 OFFCURVE",
"571 -122 OFFCURVE",
"587 -32 CURVE SMOOTH",
"598 30 OFFCURVE",
"545 59 OFFCURVE",
"472 59 CURVE SMOOTH",
"402 59 OFFCURVE",
"240 26 OFFCURVE",
"166 26 CURVE SMOOTH",
"68 26 OFFCURVE",
"44 62 OFFCURVE",
"49 92 CURVE SMOOTH",
"57 135 OFFCURVE",
"107 159 OFFCURVE",
"142 171 CURVE",
"124 180 LINE",
"89 170 OFFCURVE",
"36 142 OFFCURVE",
"28 93 CURVE SMOOTH",
"21 57 OFFCURVE",
"41 4 OFFCURVE",
"164 4 CURVE SMOOTH",
"239 4 OFFCURVE",
"396 36 OFFCURVE",
"472 36 CURVE SMOOTH",
"533 36 OFFCURVE",
"573 18 OFFCURVE",
"565 -28 CURVE SMOOTH",
"551 -106 OFFCURVE",
"412 -143 OFFCURVE",
"241 -143 CURVE SMOOTH",
"69 -143 OFFCURVE",
"9 -101 OFFCURVE",
"18 -48 CURVE SMOOTH",
"24 -15 OFFCURVE",
"55 14 OFFCURVE",
"89 25 CURVE",
"71 34 LINE",
"44 24 OFFCURVE",
"2 -6 OFFCURVE",
"-5 -47 CURVE SMOOTH",
"-17 -114 OFFCURVE",
"53 -165 OFFCURVE",
"242 -165 CURVE SMOOTH"
);
},
{
closed = 1;
nodes = (
"443 108 OFFCURVE",
"561 148 OFFCURVE",
"576 236 CURVE",
"592 326 OFFCURVE",
"487 367 OFFCURVE",
"357 367 CURVE",
"230 367 OFFCURVE",
"113 328 OFFCURVE",
"97 240 CURVE",
"81 150 OFFCURVE",
"186 106 OFFCURVE",
"315 108 CURVE"
);
},
{
closed = 1;
nodes = (
"200 131 OFFCURVE",
"108 167 OFFCURVE",
"120 236 CURVE",
"133 309 OFFCURVE",
"239 344 OFFCURVE",
"357 344 CURVE",
"475 344 OFFCURVE",
"568 311 OFFCURVE",
"555 240 CURVE",
"543 169 OFFCURVE",
"435 131 OFFCURVE",
"315 131 CURVE"
);
},
{
closed = 1;
nodes = (
"561 389 OFFCURVE",
"611 418 OFFCURVE",
"666 421 CURVE",
"668 446 LINE",
"606 443 OFFCURVE",
"549 402 OFFCURVE",
"523 326 CURVE",
"530 308 LINE"
);
}
);
width = 722;
},
{
anchors = (
{
name = bottom;
position = "{118, -169}";
},
{
name = top;
position = "{216, 387}";
}
);
background = {
paths = (
{
closed = 1;
nodes = (
"292 -169 OFFCURVE",
"420 -125 OFFCURVE",
"420 -34 CURVE SMOOTH",
"420 27 OFFCURVE",
"380 55 OFFCURVE",
"319 55 CURVE SMOOTH",
"259 55 OFFCURVE",
"200 22 OFFCURVE",
"128 22 CURVE SMOOTH",
"69 22 OFFCURVE",
"46 59 OFFCURVE",
"46 90 CURVE SMOOTH",
"46 132 OFFCURVE",
"93 155 OFFCURVE",
"128 167 CURVE",
"109 176 LINE",
"74 166 OFFCURVE",
"23 137 OFFCURVE",
"23 87 CURVE SMOOTH",
"23 52 OFFCURVE",
"43 0 OFFCURVE",
"126 0 CURVE SMOOTH",
"201 0 OFFCURVE",
"255 32 OFFCURVE",
"319 32 CURVE SMOOTH",
"370 32 OFFCURVE",
"396 13 OFFCURVE",
"396 -34 CURVE SMOOTH",
"396 -111 OFFCURVE",
"283 -147 OFFCURVE",
"198 -147 CURVE SMOOTH",
"101 -147 OFFCURVE",
"39 -104 OFFCURVE",
"39 -50 CURVE SMOOTH",
"39 -18 OFFCURVE",
"66 10 OFFCURVE",
"99 21 CURVE",
"81 30 LINE",
"54 20 OFFCURVE",
"15 -11 OFFCURVE",
"15 -53 CURVE SMOOTH",
"15 -119 OFFCURVE",
"87 -169 OFFCURVE",
"195 -169 CURVE SMOOTH"
);
},
{
closed = 1;
nodes = (
"292 118 OFFCURVE",
"369 159 OFFCURVE",
"369 248 CURVE SMOOTH",
"369 337 OFFCURVE",
"292 377 OFFCURVE",
"221 377 CURVE SMOOTH",
"150 377 OFFCURVE",
"73 336 OFFCURVE",
"73 247 CURVE SMOOTH",
"73 158 OFFCURVE",
"150 118 OFFCURVE",
"221 118 CURVE SMOOTH"
);
},
{
closed = 1;
nodes = (
"161 141 OFFCURVE",
"96 175 OFFCURVE",
"96 247 CURVE SMOOTH",
"96 317 OFFCURVE",
"161 354 OFFCURVE",
"221 354 CURVE SMOOTH",
"281 354 OFFCURVE",
"346 320 OFFCURVE",
"346 248 CURVE SMOOTH",
"346 178 OFFCURVE",
"281 141 OFFCURVE",
"221 141 CURVE SMOOTH"
);
},
{
closed = 1;
nodes = (
"428 456 LINE",
"363 453 OFFCURVE",
"320 401 OFFCURVE",
"306 345 CURVE",
"317 329 LINE",
"335 390 OFFCURVE",
"371 428 OFFCURVE",
"428 431 CURVE"
);
}
);
};
layerId = "543F9737-16F7-428D-9F96-2EBD9FC8D3B6";
name = Light;
paths = (
{
closed = 1;
nodes = (
"204 -169 OFFCURVE",
"317 -116 OFFCURVE",
"332 -26 CURVE SMOOTH",
"342 26 OFFCURVE",
"308 55 OFFCURVE",
"257 55 CURVE SMOOTH",
"197 55 OFFCURVE",
"130 22 OFFCURVE",
"70 22 CURVE SMOOTH",
"15 22 OFFCURVE",
"1 50 OFFCURVE",
"6 80 CURVE SMOOTH",
"13 118 OFFCURVE",
"47 145 OFFCURVE",
"89 164 CURVE",
"68 173 LINE",
"28 154 OFFCURVE",
"-10 122 OFFCURVE",
"-18 78 CURVE SMOOTH",
"-24 42 OFFCURVE",
"-5 -2 OFFCURVE",
"70 -2 CURVE SMOOTH",
"130 -2 OFFCURVE",
"191 32 OFFCURVE",
"252 32 CURVE SMOOTH",
"290 32 OFFCURVE",
"316 14 OFFCURVE",
"309 -22 CURVE SMOOTH",
"296 -100 OFFCURVE",
"196 -147 OFFCURVE",
"102 -147 CURVE SMOOTH",
"18 -147 OFFCURVE",
"-35 -110 OFFCURVE",
"-25 -57 CURVE SMOOTH",
"-19 -19 OFFCURVE",
"13 10 OFFCURVE",
"45 21 CURVE",
"28 30 LINE",
"0 20 OFFCURVE",
"-41 -10 OFFCURVE",
"-49 -56 CURVE SMOOTH",
"-61 -123 OFFCURVE",
"2 -169 OFFCURVE",
"99 -169 CURVE SMOOTH"
);
},
{
closed = 1;
nodes = (
"244 108 OFFCURVE",
"315 154 OFFCURVE",
"329 236 CURVE SMOOTH",
"344 321 OFFCURVE",
"278 367 OFFCURVE",
"210 367 CURVE SMOOTH",
"143 367 OFFCURVE",
"63 322 OFFCURVE",
"49 239 CURVE SMOOTH",
"34 154 OFFCURVE",
"99 108 OFFCURVE",
"168 108 CURVE SMOOTH"
);
},
{
closed = 1;
nodes = (
"113 131 OFFCURVE",
"59 164 OFFCURVE",
"72 235 CURVE SMOOTH",
"84 306 OFFCURVE",
"154 344 OFFCURVE",
"210 344 CURVE SMOOTH",
"264 344 OFFCURVE",
"319 311 OFFCURVE",
"306 240 CURVE SMOOTH",
"294 169 OFFCURVE",
"234 131 OFFCURVE",
"168 131 CURVE SMOOTH"
);
},
{
closed = 1;
nodes = (
"327 379 OFFCURVE",
"357 403 OFFCURVE",
"407 406 CURVE",
"409 431 LINE",
"352 428 OFFCURVE",
"312 392 OFFCURVE",
"284 336 CURVE",
"295 318 LINE"
);
}
);
width = 409;
},
{
anchors = (
{
name = bottom;
position = "{122, -161}";
},
{
name = top;
position = "{205, 367}";
}
);
layerId = "EB38A4D2-CD30-49BA-8E45-1F04A566FFE8";
name = Bold;
paths = (
{
closed = 1;
nodes = (
"210 -162 OFFCURVE",
"319 -114 OFFCURVE",
"333 -34 CURVE SMOOTH",
"346 39 OFFCURVE",
"301 78 OFFCURVE",
"230 78 CURVE SMOOTH",
"173 78 OFFCURVE",
"143 76 OFFCURVE",
"92 76 CURVE SMOOTH",
"78 76 OFFCURVE",
"61 76 OFFCURVE",
"64 95 CURVE SMOOTH",
"68 117 OFFCURVE",
"102 139 OFFCURVE",
"122 149 CURVE",
"74 183 LINE",
"27 168 OFFCURVE",
"-23 135 OFFCURVE",
"-32 84 CURVE SMOOTH",
"-43 22 OFFCURVE",
"10 -14 OFFCURVE",
"67 -14 CURVE SMOOTH",
"126 -14 OFFCURVE",
"166 -10 OFFCURVE",
"204 -10 CURVE SMOOTH",
"228 -10 OFFCURVE",
"238 -11 OFFCURVE",
"236 -25 CURVE SMOOTH",
"231 -51 OFFCURVE",
"167 -70 OFFCURVE",
"102 -70 CURVE SMOOTH",
"45 -70 OFFCURVE",
"23 -62 OFFCURVE",
"27 -42 CURVE SMOOTH",
"31 -16 OFFCURVE",
"52 7 OFFCURVE",
"63 13 CURVE",
"9 41 LINE",
"-26 22 OFFCURVE",
"-61 -9 OFFCURVE",
"-68 -51 CURVE SMOOTH",
"-81 -124 OFFCURVE",
"-13 -162 OFFCURVE",
"84 -162 CURVE SMOOTH"
);
},
{
closed = 1;
nodes = (
"233 108 OFFCURVE",
"331 147 OFFCURVE",
"345 230 CURVE SMOOTH",
"361 320 OFFCURVE",
"282 367 OFFCURVE",
"198 367 CURVE SMOOTH",
"129 367 OFFCURVE",
"35 327 OFFCURVE",
"20 245 CURVE SMOOTH",
"4 155 OFFCURVE",
"83 108 OFFCURVE",
"166 108 CURVE SMOOTH"
);
},
{
closed = 1;
nodes = (
"133 187 OFFCURVE",
"119 205 OFFCURVE",
"124 229 CURVE SMOOTH",
"129 260 OFFCURVE",
"157 288 OFFCURVE",
"199 288 CURVE SMOOTH",
"232 288 OFFCURVE",
"246 270 OFFCURVE",
"242 246 CURVE SMOOTH",
"236 215 OFFCURVE",
"207 187 OFFCURVE",
"168 187 CURVE SMOOTH"
);
},
{
closed = 1;
nodes = (
"326 334 OFFCURVE",
"355 352 OFFCURVE",
"410 351 CURVE",
"422 449 LINE",
"359 446 OFFCURVE",
"290 419 OFFCURVE",
"264 339 CURVE",
"303 291 LINE"
);
}
);
width = 400;
}
);
leftKerningGroup = g;
rightKerningGroup = g;
unicode = 0067;
},
{
glyphname = g.alt;
lastChange = "2015-11-11 18:41:44 +0000";
layers = (
{
anchors = (
{
name = bottom;
position = "{278, -210}";
},
{
name = top;
position = "{383, 387}";
}
);
background = {
paths = (
{
closed = 1;
nodes = (
"550 -27 OFFCURVE",
"692 42 OFFCURVE",
"692 175 CURVE",
"692 312 OFFCURVE",
"550 377 OFFCURVE",
"372 377 CURVE",
"194 376 OFFCURVE",
"53 312 OFFCURVE",
"53 175 CURVE",
"53 42 OFFCURVE",
"194 -28 OFFCURVE",
"372 -27 CURVE"
);
},
{
closed = 1;
nodes = (
"540 353 OFFCURVE",
"667 295 OFFCURVE",
"667 175 CURVE",
"667 60 OFFCURVE",
"540 -4 OFFCURVE",
"372 -4 CURVE",
"204 -4 OFFCURVE",
"77 60 OFFCURVE",
"77 175 CURVE",
"77 295 OFFCURVE",
"204 352 OFFCURVE",
"372 353 CURVE"
);
}
);
};
layerId = "B29C398E-974A-40D0-A0A0-00935056D4B4";
name = "Light Extended";
paths = (
{
closed = 1;
nodes = (
"463 -210 OFFCURVE",
"568 -122 OFFCURVE",
"592 17 CURVE",
"652 357 LINE",
"626 347 LINE",
"568 18 LINE",
"546 -105 OFFCURVE",
"449 -187 OFFCURVE",
"293 -187 CURVE SMOOTH",
"193 -187 OFFCURVE",
"83 -154 OFFCURVE",
"18 -120 CURVE",
"10 -143 LINE",
"74 -177 OFFCURVE",
"185 -210 OFFCURVE",
"291 -210 CURVE SMOOTH"
);
},
{
closed = 1;
nodes = (
"352 -11 OFFCURVE",
"479 52 OFFCURVE",
"604 136 CURVE",
"607 161 LINE",
"472 73 OFFCURVE",
"339 12 OFFCURVE",
"230 12 CURVE",
"104 12 OFFCURVE",
"40 72 OFFCURVE",
"55 159 CURVE",
"75 270 OFFCURVE",
"209 344 OFFCURVE",
"354 343 CURVE",
"466 344 OFFCURVE",
"566 301 OFFCURVE",
"629 261 CURVE",
"631 283 LINE",
"570 324 OFFCURVE",
"478 366 OFFCURVE",
"354 366 CURVE",
"200 366 OFFCURVE",
"55 290 OFFCURVE",
"32 163 CURVE",
"13 54 OFFCURVE",
"93 -11 OFFCURVE",
"230 -11 CURVE"
);
}
);
width = 775;
},
{
anchors = (
{
name = bottom;
position = "{111, -210}";
},
{
name = top;
position = "{216, 387}";
}
);
layerId = "543F9737-16F7-428D-9F96-2EBD9FC8D3B6";
name = Light;
paths = (
{
closed = 1;
nodes = (
"212 -190 OFFCURVE",
"279 -130 OFFCURVE",
"296 -33 CURVE SMOOTH",
"363 344 LINE",
"338 339 LINE",
"272 -32 LINE SMOOTH",
"257 -120 OFFCURVE",
"198 -167 OFFCURVE",
"125 -167 CURVE SMOOTH",
"72 -167 OFFCURVE",
"32 -147 OFFCURVE",
"-12 -123 CURVE",
"-21 -145 LINE",
"23 -169 OFFCURVE",
"64 -190 OFFCURVE",
"124 -190 CURVE SMOOTH"
);
},
{
closed = 1;
nodes = (
"202 -10 OFFCURVE",
"262 30 OFFCURVE",
"303 66 CURVE",
"306 95 LINE",
"259 53 OFFCURVE",
"205 14 OFFCURVE",
"138 13 CURVE SMOOTH",
"65 12 OFFCURVE",
"16 71 OFFCURVE",
"33 169 CURVE SMOOTH",
"51 271 OFFCURVE",
"132 345 OFFCURVE",
"212 345 CURVE SMOOTH",
"274 345 OFFCURVE",
"314 312 OFFCURVE",
"345 269 CURVE",
"347 290 LINE",
"316 332 OFFCURVE",
"276 367 OFFCURVE",
"212 367 CURVE SMOOTH",
"123 367 OFFCURVE",
"31 291 OFFCURVE",
"10 172 CURVE SMOOTH",
"-10 60 OFFCURVE",
"50 -10 OFFCURVE",
"138 -10 CURVE SMOOTH"
);
}
);
width = 446;
},
{
anchors = (
{
name = bottom;
position = "{135, -190}";
},
{
name = top;
position = "{232, 365}";
}
);
layerId = "EB38A4D2-CD30-49BA-8E45-1F04A566FFE8";
name = Bold;
paths = (
{
closed = 1;
nodes = (
"223 -190 OFFCURVE",
"331 -138 OFFCURVE",
"353 -12 CURVE SMOOTH",
"421 372 LINE",
"308 350 LINE",
"245 -3 LINE SMOOTH",
"235 -61 OFFCURVE",
"179 -89 OFFCURVE",
"135 -89 CURVE SMOOTH",
"92 -89 OFFCURVE",
"53 -74 OFFCURVE",
"15 -48 CURVE",
"-35 -136 LINE",
"15 -165 OFFCURVE",
"64 -190 OFFCURVE",
"142 -190 CURVE SMOOTH"
);
},
{
closed = 1;
nodes = (
"224 -11 OFFCURVE",
"285 55 OFFCURVE",
"328 95 CURVE",
"340 184 LINE",
"293 142 OFFCURVE",
"230 87 OFFCURVE",
"175 86 CURVE SMOOTH",
"122 85 OFFCURVE",
"100 121 OFFCURVE",
"108 169 CURVE SMOOTH",
"119 228 OFFCURVE",
"166 272 OFFCURVE",
"229 272 CURVE SMOOTH",
"276 272 OFFCURVE",
"319 228 OFFCURVE",
"342 185 CURVE",
"351 256 LINE",
"329 298 OFFCURVE",
"294 367 OFFCURVE",
"204 367 CURVE SMOOTH",
"95 367 OFFCURVE",
"8 289 OFFCURVE",
"-10 185 CURVE SMOOTH",
"-30 73 OFFCURVE",
"38 -11 OFFCURVE",
"138 -11 CURVE SMOOTH"
);
}
);
width = 452;
}
);
leftKerningGroup = g.alt;
leftMetricsKey = "=q";
rightKerningGroup = g.alt;
},
{
glyphname = h;
lastChange = "2015-11-11 18:41:44 +0000";
layers = (
{
anchors = (
{
name = bottom;
position = "{365, 0}";
},
{
name = center;
position = "{396, 179}";
},
{
name = top;
position = "{429, 367}";
}
);
layerId = "B29C398E-974A-40D0-A0A0-00935056D4B4";
name = "Light Extended";
paths = (
{
closed = 1;
nodes = (
"637 0 LINE",
"661 134 LINE",
"682 256 OFFCURVE",
"654 367 OFFCURVE",
"505 367 CURVE SMOOTH",
"377 367 OFFCURVE",
"242 264 OFFCURVE",
"172 212 CURVE",
"170 187 LINE",
"239 238 OFFCURVE",
"375 344 OFFCURVE",
"505 344 CURVE SMOOTH",
"643 344 OFFCURVE",
"655 238 OFFCURVE",
"637 136 CURVE",
"613 0 LINE"
);
},
{
closed = 1;
nodes = (
"321 0 LINE",
"325 23 LINE",
"-45 23 LINE",
"-49 0 LINE"
);
},
{
closed = 1;
nodes = (
"810 0 LINE",
"814 23 LINE",
"445 23 LINE",
"441 0 LINE"
);
},
{
closed = 1;
nodes = (
"43 520 LINE",
"39 497 LINE",
"212 497 LINE",
"124 0 LINE",
"148 0 LINE",
"240 520 LINE"
);
}
);
width = 883;
},
{
anchors = (
{
name = bottom;
position = "{211, 0}";
},
{
name = center;
position = "{242, 179}";
},
{
name = top;
position = "{279, 387}";
}
);
background = {
paths = (
{
closed = 1;
nodes = (
"127 0 LINE",
"151 0 LINE",
"151 520 LINE",
"127 520 LINE"
);
},
{
closed = 1;
nodes = (
"35 23 LINE",
"35 0 LINE",
"227 0 LINE",
"227 23 LINE"
);
},
{
closed = 1;
nodes = (
"35 520 LINE",
"35 497 LINE",
"151 497 LINE",
"151 520 LINE"
);
},
{
closed = 1;
nodes = (
"265 367 OFFCURVE",
"205 305 OFFCURVE",
"138 218 CURVE",
"138 193 LINE",
"207 279 OFFCURVE",
"269 343 OFFCURVE",
"338 343 CURVE SMOOTH",
"400 343 OFFCURVE",
"432 303 OFFCURVE",
"432 233 CURVE SMOOTH",
"432 0 LINE",
"456 0 LINE",
"456 233 LINE SMOOTH",
"456 324 OFFCURVE",
"413 367 OFFCURVE",
"342 367 CURVE SMOOTH"
);
},
{
closed = 1;
nodes = (
"354 23 LINE",
"354 0 LINE",
"540 0 LINE",
"540 23 LINE"
);
}
);
};
layerId = "543F9737-16F7-428D-9F96-2EBD9FC8D3B6";
name = Light;
paths = (
{
closed = 1;
nodes = (
"347 0 LINE",
"389 233 LINE SMOOTH",
"404 323 OFFCURVE",
"367 367 OFFCURVE",
"300 367 CURVE SMOOTH",
"231 367 OFFCURVE",
"161 316 OFFCURVE",
"98 255 CURVE",
"95 230 LINE",
"160 293 OFFCURVE",
"234 344 OFFCURVE",
"295 344 CURVE SMOOTH",
"355 344 OFFCURVE",
"377 305 OFFCURVE",
"364 230 CURVE SMOOTH",
"324 0 LINE"
);
},
{
closed = 1;
nodes = (
"138 0 LINE",
"143 23 LINE",
"-40 23 LINE",
"-44 0 LINE"
);
},
{
closed = 1;
nodes = (
"425 0 LINE",
"429 23 LINE",
"257 23 LINE",
"252 0 LINE"
);
},
{
closed = 1;
nodes = (
"48 520 LINE",
"44 497 LINE",
"131 497 LINE",
"43 0 LINE",
"67 0 LINE",
"159 520 LINE"
);
}
);
width = 504;
},
{
anchors = (
{
name = bottom;
position = "{211, 0}";
},
{
name = center;
position = "{242, 179}";
},
{
name = top;
position = "{275, 363}";
}
);
layerId = "EB38A4D2-CD30-49BA-8E45-1F04A566FFE8";
name = Bold;
paths = (
{
closed = 1;
nodes = (
"395 0 LINE",
"428 185 LINE SMOOTH",
"448 302 OFFCURVE",
"417 366 OFFCURVE",
"326 366 CURVE SMOOTH",
"256 366 OFFCURVE",
"202 324 OFFCURVE",
"118 230 CURVE",
"105 134 LINE",
"170 214 OFFCURVE",
"225 263 OFFCURVE",
"275 263 CURVE SMOOTH",
"312 263 OFFCURVE",
"327 237 OFFCURVE",
"320 193 CURVE SMOOTH",
"286 0 LINE"
);
},
{
closed = 1;
nodes = (
"176 0 LINE",
"192 93 LINE",
"-39 93 LINE",
"-55 0 LINE"
);
},
{
closed = 1;
nodes = (
"453 0 LINE",
"469 93 LINE",
"248 93 LINE",
"232 0 LINE"
);
},
{
closed = 1;
nodes = (
"36 520 LINE",
"20 427 LINE",
"87 427 LINE",
"12 0 LINE",
"122 0 LINE",
"214 520 LINE"
);
}
);
width = 512;
}
);
leftKerningGroup = h;
rightKerningGroup = n;
rightMetricsKey = "=n";
unicode = 0068;
},
{
glyphname = hbar;
lastChange = "2015-11-11 18:41:44 +0000";
layers = (
{
anchors = (
{
name = bottom;
position = "{365, 0}";
},
{
name = center;
position = "{396, 179}";
},
{
name = top;
position = "{429, 367}";
}
);
layerId = "B29C398E-974A-40D0-A0A0-00935056D4B4";
name = "Light Extended";
paths = (
{
closed = 1;
nodes = (
"637 0 LINE",
"661 134 LINE",
"682 256 OFFCURVE",
"654 367 OFFCURVE",
"505 367 CURVE SMOOTH",
"377 367 OFFCURVE",
"242 264 OFFCURVE",
"172 212 CURVE",
"170 187 LINE",
"239 238 OFFCURVE",
"375 344 OFFCURVE",
"505 344 CURVE SMOOTH",
"643 344 OFFCURVE",
"655 238 OFFCURVE",
"637 136 CURVE",
"613 0 LINE"
);
},
{
closed = 1;
nodes = (
"321 0 LINE",
"325 23 LINE",
"-45 23 LINE",
"-49 0 LINE"
);
},
{
closed = 1;
nodes = (
"148 0 LINE",
"240 520 LINE",
"216 520 LINE",
"124 0 LINE"
);
},
{
closed = 1;
nodes = (
"810 0 LINE",
"814 23 LINE",
"445 23 LINE",
"441 0 LINE"
);
},
{
closed = 1;
nodes = (
"43 520 LINE",
"39 497 LINE",
"223 497 LINE",
"227 520 LINE"
);
},
{
closed = 1;
nodes = (
"727 434 LINE",
"731 456 LINE",
"32 456 LINE",
"28 434 LINE"
);
}
);
width = 842;
},
{
anchors = (
{
name = bottom;
position = "{211, 0}";
},
{
name = center;
position = "{242, 179}";
},
{
name = top;
position = "{279, 387}";
}
);
layerId = "543F9737-16F7-428D-9F96-2EBD9FC8D3B6";
name = Light;
paths = (
{
closed = 1;
nodes = (
"347 0 LINE",
"389 233 LINE SMOOTH",
"404 323 OFFCURVE",
"367 367 OFFCURVE",
"300 367 CURVE SMOOTH",
"231 367 OFFCURVE",
"161 316 OFFCURVE",
"98 255 CURVE",
"95 230 LINE",
"160 293 OFFCURVE",
"234 344 OFFCURVE",
"295 344 CURVE SMOOTH",
"355 344 OFFCURVE",
"377 305 OFFCURVE",
"364 230 CURVE SMOOTH",
"324 0 LINE"
);
},
{
closed = 1;
nodes = (
"138 0 LINE",
"143 23 LINE",
"-40 23 LINE",
"-44 0 LINE"
);
},
{
closed = 1;
nodes = (
"67 0 LINE",
"159 520 LINE",
"135 520 LINE",
"43 0 LINE"
);
},
{
closed = 1;
nodes = (
"425 0 LINE",
"429 23 LINE",
"257 23 LINE",
"252 0 LINE"
);
},
{
closed = 1;
nodes = (
"48 520 LINE",
"44 497 LINE",
"146 497 LINE",
"150 520 LINE"
);
},
{
closed = 1;
nodes = (
"439 434 LINE",
"443 456 LINE",
"54 456 LINE",
"50 434 LINE"
);
}
);
width = 523;
},
{
anchors = (
{
name = bottom;
position = "{211, 0}";
},
{
name = center;
position = "{242, 179}";
},
{
name = top;
position = "{275, 363}";
}
);
layerId = "EB38A4D2-CD30-49BA-8E45-1F04A566FFE8";
name = Bold;
paths = (
{
closed = 1;
nodes = (
"395 0 LINE",
"428 185 LINE SMOOTH",
"448 302 OFFCURVE",
"417 366 OFFCURVE",
"326 366 CURVE SMOOTH",
"256 366 OFFCURVE",
"202 324 OFFCURVE",
"118 230 CURVE",
"105 134 LINE",
"170 214 OFFCURVE",
"225 263 OFFCURVE",
"275 263 CURVE SMOOTH",
"312 263 OFFCURVE",
"327 237 OFFCURVE",
"320 193 CURVE SMOOTH",
"286 0 LINE"
);
},
{
closed = 1;
nodes = (
"176 0 LINE",
"192 93 LINE",
"-39 93 LINE",
"-55 0 LINE"
);
},
{
closed = 1;
nodes = (
"122 0 LINE",
"214 520 LINE",
"104 520 LINE",
"12 0 LINE"
);
},
{
closed = 1;
nodes = (
"453 0 LINE",
"469 93 LINE",
"248 93 LINE",
"232 0 LINE"
);
},
{
closed = 1;
nodes = (
"104 520 LINE",
"87 427 LINE",
"195 427 LINE",
"211 520 LINE"
);
},
{
closed = 1;
nodes = (
"308 396 LINE",
"321 469 LINE",
"27 469 LINE",
"14 396 LINE"
);
}
);
width = 510;
},
{
associatedMasterId = "B29C398E-974A-40D0-A0A0-00935056D4B4";
components = (
{
name = h;
}
);
layerId = "FA480B27-EBBD-4830-9868-98507D39050C";
name = SemiBold;
paths = (
{
closed = 1;
nodes = (
"5 426 LINE",
"5 374 LINE",
"465 374 LINE",
"465 426 LINE"
);
}
);
width = 539;
}
);
leftKerningGroup = h;
rightKerningGroup = n;
unicode = 0127;
},
{
glyphname = i;
lastChange = "2015-11-11 18:41:44 +0000";
layers = (
{
anchors = (
{
name = bottom;
position = "{143, 0}";
},
{
name = ogonek;
position = "{328, 10}";
},
{
name = top;
position = "{216, 357}";
}
);
layerId = "B29C398E-974A-40D0-A0A0-00935056D4B4";
name = "Light Extended";
paths = (
{
closed = 1;
nodes = (
"181 0 LINE",
"244 357 LINE",
"220 357 LINE",
"157 0 LINE"
);
},
{
closed = 1;
nodes = (
"354 0 LINE",
"358 23 LINE",
"-11 23 LINE",
"-15 0 LINE"
);
},
{
closed = 1;
nodes = (
"240 334 LINE",
"244 357 LINE",
"47 357 LINE",
"43 334 LINE"
);
},
{
closed = 1;
nodes = (
"272 469 OFFCURVE",
"289 481 OFFCURVE",
"292 497 CURVE",
"295 516 OFFCURVE",
"281 530 OFFCURVE",
"251 530 CURVE",
"223 530 OFFCURVE",
"206 518 OFFCURVE",
"203 501 CURVE",
"200 483 OFFCURVE",
"214 469 OFFCURVE",
"244 469 CURVE"
);
}
);
width = 446;
},
{
anchors = (
{
name = bottom;
position = "{51, 0}";
},
{
name = ogonek;
position = "{158, 0}";
},
{
name = top;
position = "{124, 357}";
}
);
layerId = "543F9737-16F7-428D-9F96-2EBD9FC8D3B6";
name = Light;
paths = (
{
closed = 1;
nodes = (
"72 0 LINE",
"135 357 LINE",
"111 357 LINE",
"48 0 LINE"
);
},
{
closed = 1;
nodes = (
"159 0 LINE",
"163 23 LINE",
"-35 23 LINE",
"-39 0 LINE"
);
},
{
closed = 1;
nodes = (
"131 334 LINE",
"135 357 LINE",
"24 357 LINE",
"20 334 LINE"
);
},
{
closed = 1;
nodes = (
"157 469 OFFCURVE",
"173 481 OFFCURVE",
"176 497 CURVE",
"179 516 OFFCURVE",
"165 530 OFFCURVE",
"142 530 CURVE",
"122 530 OFFCURVE",
"104 518 OFFCURVE",
"101 501 CURVE",
"98 483 OFFCURVE",
"113 469 OFFCURVE",
"135 469 CURVE"
);
}
);
width = 241;
},
{
anchors = (
{
name = bottom;
position = "{65, 0}";
},
{
name = ogonek;
position = "{206, 0}";
},
{
name = top;
position = "{138, 357}";
}
);
layerId = "EB38A4D2-CD30-49BA-8E45-1F04A566FFE8";
name = Bold;
paths = (
{
closed = 1;
nodes = (
"143 30 LINE",
"200 357 LINE",
"91 357 LINE",
"34 30 LINE"
);
},
{
closed = 1;
nodes = (
"206 0 LINE",
"222 90 LINE",
"-23 90 LINE",
"-39 0 LINE"
);
},
{
closed = 1;
nodes = (
"154 267 LINE",
"170 357 LINE",
"24 357 LINE",
"8 267 LINE"
);
},
{
closed = 1;
nodes = (
"194 412 OFFCURVE",
"224 433 OFFCURVE",
"229 462 CURVE",
"236 501 OFFCURVE",
"209 530 OFFCURVE",
"164 530 CURVE",
"128 530 OFFCURVE",
"96 509 OFFCURVE",
"91 478 CURVE",
"84 441 OFFCURVE",
"113 412 OFFCURVE",
"156 412 CURVE"
);
}
);
width = 271;
}
);
leftKerningGroup = i;
leftMetricsKey = "=n";
rightKerningGroup = i;
unicode = 0069;
},
{
glyphname = idotless;
lastChange = "2015-11-11 18:41:44 +0000";
layers = (
{
anchors = (
{
name = bottom;
position = "{132, 0}";
},
{
name = ogonek;
position = "{323, 0}";
},
{
name = top;
position = "{204, 357}";
}
);
layerId = "B29C398E-974A-40D0-A0A0-00935056D4B4";
name = "Light Extended";
paths = (
{
closed = 1;
nodes = (
"170 0 LINE",
"233 357 LINE",
"209 357 LINE",
"146 0 LINE"
);
},
{
closed = 1;
nodes = (
"343 0 LINE",
"347 23 LINE",
"-23 23 LINE",
"-27 0 LINE"
);
},
{
closed = 1;
nodes = (
"229 334 LINE",
"233 357 LINE",
"36 357 LINE",
"32 334 LINE"
);
}
);
width = 406;
},
{
anchors = (
{
name = bottom;
position = "{51, 0}";
},
{
name = ogonek;
position = "{157, 0}";
},
{
name = top;
position = "{124, 357}";
}
);
layerId = "543F9737-16F7-428D-9F96-2EBD9FC8D3B6";
name = Light;
paths = (
{
closed = 1;
nodes = (
"72 0 LINE",
"135 357 LINE",
"111 357 LINE",
"48 0 LINE"
);
},
{
closed = 1;
nodes = (
"159 0 LINE",
"163 23 LINE",
"-35 23 LINE",
"-39 0 LINE"
);
},
{
closed = 1;
nodes = (
"131 334 LINE",
"135 357 LINE",
"24 357 LINE",
"20 334 LINE"
);
}
);
width = 241;
},
{
anchors = (
{
name = bottom;
position = "{87, 0}";
},
{
name = ogonek;
position = "{205, 0}";
},
{
name = top;
position = "{135, 357}";
}
);
layerId = "EB38A4D2-CD30-49BA-8E45-1F04A566FFE8";
name = Bold;
paths = (
{
closed = 1;
nodes = (
"143 30 LINE",
"200 357 LINE",
"91 357 LINE",
"34 30 LINE"
);
},
{
closed = 1;
nodes = (
"206 0 LINE",
"222 90 LINE",
"-23 90 LINE",
"-39 0 LINE"
);
},
{
closed = 1;
nodes = (
"154 267 LINE",
"170 357 LINE",
"24 357 LINE",
"8 267 LINE"
);
}
);
width = 271;
}
);
leftKerningGroup = idotless;
leftMetricsKey = "=i";
rightKerningGroup = idotless;
rightMetricsKey = "=i";
unicode = 0131;
},
{
glyphname = j;
lastChange = "2015-11-11 18:41:44 +0000";
layers = (
{
anchors = (
{
name = bottom;
position = "{119, 0}";
},
{
name = top;
position = "{181, 357}";
}
);
layerId = "B29C398E-974A-40D0-A0A0-00935056D4B4";
name = "Light Extended";
paths = (
{
closed = 1;
nodes = (
"94 -190 OFFCURVE",
"151 -130 OFFCURVE",
"168 -33 CURVE SMOOTH",
"234 344 LINE",
"211 344 LINE",
"144 -32 LINE SMOOTH",
"129 -120 OFFCURVE",
"80 -167 OFFCURVE",
"6 -167 CURVE SMOOTH",
"-37 -167 OFFCURVE",
"-78 -156 OFFCURVE",
"-116 -143 CURVE",
"-124 -165 LINE",
"-87 -178 OFFCURVE",
"-45 -190 OFFCURVE",
"5 -190 CURVE SMOOTH"
);
},
{
closed = 1;
nodes = (
"232 334 LINE",
"237 357 LINE",
"40 357 LINE",
"36 334 LINE"
);
},
{
closed = 1;
nodes = (
"266 469 OFFCURVE",
"282 481 OFFCURVE",
"285 497 CURVE",
"288 516 OFFCURVE",
"275 530 OFFCURVE",
"244 530 CURVE",
"217 530 OFFCURVE",
"198 518 OFFCURVE",
"195 501 CURVE",
"192 483 OFFCURVE",
"208 469 OFFCURVE",
"237 469 CURVE"
);
}
);
width = 384;
},
{
anchors = (
{
name = bottom;
position = "{62, 0}";
},
{
name = top;
position = "{124, 357}";
}
);
layerId = "543F9737-16F7-428D-9F96-2EBD9FC8D3B6";
name = Light;
paths = (
{
closed = 1;
nodes = (
"1 -190 OFFCURVE",
"47 -146 OFFCURVE",
"59 -79 CURVE SMOOTH",
"136 357 LINE",
"112 357 LINE",
"35 -78 LINE SMOOTH",
"25 -136 OFFCURVE",
"-13 -167 OFFCURVE",
"-56 -167 CURVE SMOOTH",
"-87 -167 OFFCURVE",
"-114 -156 OFFCURVE",
"-130 -146 CURVE",
"-139 -168 LINE",
"-123 -177 OFFCURVE",
"-95 -190 OFFCURVE",
"-58 -190 CURVE SMOOTH"
);
},
{
closed = 1;
nodes = (
"132 334 LINE",
"136 357 LINE",
"25 357 LINE",
"21 334 LINE"
);
},
{
closed = 1;
nodes = (
"157 469 OFFCURVE",
"173 481 OFFCURVE",
"176 497 CURVE",
"179 516 OFFCURVE",
"165 530 OFFCURVE",
"142 530 CURVE",
"122 530 OFFCURVE",
"104 518 OFFCURVE",
"101 501 CURVE",
"98 483 OFFCURVE",
"113 469 OFFCURVE",
"135 469 CURVE"
);
}
);
width = 232;
},
{
anchors = (
{
name = bottom;
position = "{76, 0}";
},
{
name = top;
position = "{139, 357}";
}
);
layerId = "EB38A4D2-CD30-49BA-8E45-1F04A566FFE8";
name = Bold;
paths = (
{
closed = 1;
nodes = (
"36 -190 OFFCURVE",
"112 -132 OFFCURVE",
"134 -11 CURVE SMOOTH",
"199 357 LINE",
"91 357 LINE",
"27 -5 LINE SMOOTH",
"18 -57 OFFCURVE",
"-13 -89 OFFCURVE",
"-52 -89 CURVE SMOOTH",
"-71 -89 OFFCURVE",
"-85 -85 OFFCURVE",
"-110 -76 CURVE",
"-148 -169 LINE",
"-123 -177 OFFCURVE",
"-103 -190 OFFCURVE",
"-52 -190 CURVE SMOOTH"
);
},
{
closed = 1;
nodes = (
"154 267 LINE",
"170 357 LINE",
"24 357 LINE",
"8 267 LINE"
);
},
{
closed = 1;
nodes = (
"194 412 OFFCURVE",
"224 433 OFFCURVE",
"229 462 CURVE",
"236 501 OFFCURVE",
"209 530 OFFCURVE",
"164 530 CURVE",
"128 530 OFFCURVE",
"96 509 OFFCURVE",
"91 478 CURVE",
"84 441 OFFCURVE",
"113 412 OFFCURVE",
"156 412 CURVE"
);
}
);
width = 245;
}
);
leftKerningGroup = j;
rightKerningGroup = j;
rightMetricsKey = g.alt;
unicode = 006A;
},
